<?xml version="1.0" encoding="UTF-8"?>
<svg width="141px" height="140px" viewBox="0 0 141 140" version="1.1" xmlns="http://www.w3.org/2000/svg" xmlns:xlink="http://www.w3.org/1999/xlink">
    <title>sharing-alphabets.1</title>
    <g id="sharing-alphabets.1" stroke="none" fill="none" transform="translate(0.0133, 0)" fill-rule="evenodd" stroke-width="1">
        <g id="Layer_1" transform="translate(18.3127, 6.6421)" fill="#000000">
            <path d="M97.3877358,79.1727362 C85.5252582,72.2626001 86.7230284,72.9605981 86.6372568,72.9107594 C82.197525,70.3737742 76.946872,71.5608834 72.4855763,74.1541261 C67.8535838,76.8154661 63.3757221,81.3871606 60.0751252,86.760788 L49.4197688,85.577397 C49.3782081,84.2994374 49.2934492,83.4340121 49.0171901,82.1853854 C49.9148957,81.0450516 49.6716827,81.3539888 71.1861032,54.0245473 C72.6184255,54.7192656 74.1894014,55.0818606 75.8738795,55.0818606 C78.5708504,55.0818606 81.5399688,54.1931887 84.6109816,52.428743 C96.9581318,45.25776 104.965852,27.531773 102.900339,16.9386218 C102.084218,11.482125 99.1436364,7.74638186 94.8542469,6.62828692 L86.5134358,1.77960749 C81.6140415,-1.07651931 77.0814643,-0.248601043 72.2959756,2.51866273 C62.0033753,8.48527598 53.6751398,22.9245812 53.7293114,34.699161 C53.7293114,35.4727183 53.7788075,36.2169301 53.8421688,36.9590484 L30.462134,66.5796171 C30.3154192,66.5368925 30.1767659,66.4756269 30.0253757,66.439835 C26.6615785,65.5653509 22.7134995,66.3572878 18.5977494,68.7395476 C8.3167575,74.6571479 -0.0269545735,89.0835557 6.54408108e-05,100.89554 C6.54408108e-05,106.887948 2.10379418,111.385479 5.91257105,113.552342 C13.9362854,118.234889 16.4524827,119.740518 16.7198013,119.853013 C21.1321953,122.465573 26.4436276,121.22147 30.9101783,118.65221 C35.5340896,115.963784 39.5275003,111.68299 42.5014456,107.237162 L54.0709473,108.52809 C54.5451099,113.335172 56.5509094,117.016905 59.827484,118.942415 L70.4979955,125.15022 C70.5004138,125.151671 70.5034772,125.150865 70.5058955,125.152316 C78.754486,130.185769 89.7074333,122.179812 95.6942292,113.734204 C99.7429098,108.066825 102.388289,101.564946 103.140242,95.4474266 C103.96004,89.4195084 102.764487,82.1190011 97.3877358,79.1727362 Z M73.8076209,76.4409408 C77.3950773,74.3572244 81.7135075,73.1351694 85.3165021,75.1988639 L90.0761848,77.9724166 C87.7712021,78.3198966 85.3892852,79.2848078 83.3689047,80.4664051 C78.4820457,83.2754373 74.1667898,87.9769077 71.1854584,92.6872556 L62.5837852,87.6983109 C65.6277122,82.8809099 69.6647847,78.8219107 73.8076209,76.4409408 Z M43.8713738,74.0006401 L63.2045014,49.4564001 L68.8501152,52.7410357 L48.0864386,79.1017974 C47.1239307,76.8559491 45.5071571,75.0222421 43.8713738,74.0006401 Z M57.4221688,45.575877 C59.0368165,47.266517 59.9671952,47.4916071 60.8970499,48.1158148 C59.0137461,50.5063172 43.3702866,70.3627356 41.5634387,72.6561855 C41.2958155,72.5011928 32.6949485,67.519987 32.9625717,67.6749797 L54.4786849,40.4155504 C55.0151258,42.1793108 56.0818806,44.1715222 57.4221688,45.575877 Z M49.4020342,88.2322881 L60.3150281,89.4343812 L65.5251733,92.4750834 L49.1453643,90.6516294 C49.1750298,90.4492922 49.2021155,90.2480834 49.2279115,90.047036 C49.3065891,89.4266426 49.3646299,88.8204368 49.4020342,88.2322881 Z M100.297524,17.3848924 C102.189317,27.1361042 94.5001568,43.6281032 83.2902269,50.1419286 C74.5239229,55.1749431 67.2541493,51.4466768 67.2541493,41.0114377 C67.2541493,27.8741444 77.81664,12.9677976 87.7310065,9.6551239 C90.0100824,8.81933367 92.1124555,8.63618224 93.9994323,9.12114699 C97.3825767,9.91953265 99.6152195,12.8344798 100.297524,17.3848924 Z M73.6205999,4.80418782 C77.6301434,2.48617243 81.1791072,1.7328879 85.1849425,4.06255315 L89.31875,6.46544975 C89.2586131,6.47721926 89.1958965,6.50478869 89.1355985,6.51736413 C88.3868698,6.67439711 87.6287901,6.87899179 86.8578125,7.16323115 C75.7749682,10.8535807 64.5855543,26.9653898 64.5855543,41.0114377 C64.5855543,43.327721 64.9837849,45.8164849 65.77217,47.8809099 C64.2585851,47.0011205 60.5970811,44.8630257 60.5833064,44.8563301 C57.3489174,42.6187293 56.3705772,38.5974417 56.3705772,34.6927123 C56.3205188,23.7565122 64.059316,10.3477462 73.6205999,4.80418782 Z M7.23203592,111.264238 C4.27194592,109.57976 2.64158267,105.897382 2.64158267,100.89296 C2.61713456,89.9219256 10.3662487,76.5247778 19.9185041,71.0263626 C22.754854,69.3868411 26.2159176,68.1764045 29.3882148,69.0039569 C31.20589,69.4276762 31.957964,70.2866726 36.1506338,72.574122 C36.1003315,72.580571 36.0500295,72.5883098 35.9997272,72.5960487 C23.4968843,74.6760368 10.8497952,92.5491667 10.8834586,107.234905 C10.8834586,109.515643 11.216368,111.934179 12.0584659,114.08374 L7.23203592,111.264238 Z M29.5881338,116.365396 C20.2899918,121.707957 13.5249062,117.29912 13.5249062,107.232325 C13.4929498,92.8931905 25.9013426,76.9614003 36.4150428,75.2040233 C45.1537419,73.8883472 48.0782867,82.7045099 46.3013562,91.5715794 C44.5382504,101.23116 37.5491947,111.736678 29.5881338,116.365396 Z M44.6446086,103.674091 C46.2522128,100.743182 47.7956946,97.1497402 48.6549179,93.2557348 L69.4930803,95.5754392 C67.6529292,99.0157376 66.0786535,103.162342 65.3583055,107.129786 C65.0923398,107.10012 42.6367838,104.595481 44.063554,104.75462 C44.2720177,104.399119 44.4474305,104.033461 44.6446086,103.674091 Z M61.1611364,116.662049 C58.7582398,115.249719 57.2169293,112.499866 56.7409935,108.830386 L64.9608859,109.743564 C64.9499226,109.840299 64.9542758,109.939614 64.9442798,110.03651 C64.8562509,110.892937 64.7970814,111.755652 64.7970814,112.623687 C64.7970814,115.106279 65.219007,117.384498 65.7167084,118.767002 C65.8018352,119.009484 65.8869618,119.242938 65.9733786,119.462204 L61.1611364,116.662049 Z M100.520659,95.1069197 C99.8190078,100.812993 97.3413028,106.882789 93.5428432,112.203213 C88.585398,119.194541 78.7754649,127.154438 71.8445456,122.877593 C69.836771,121.670673 67.4385903,117.669695 67.4385903,112.623687 C67.4385903,101.605948 75.2030524,88.2044468 84.6935285,82.75193 C87.1914571,81.2921389 90.2481812,80.1928871 93.1236583,80.5179973 C99.703984,81.3851757 101.419196,88.5273399 100.520659,95.1069197 Z" id="Shape" fill-rule="nonzero"></path>
            <path d="M89.0061347,27.8309787 C89.0050063,27.8288826 89.0051674,27.8266257 89.0040387,27.8245297 C89.0027488,27.8224336 89.000653,27.8213052 88.9993632,27.8192091 L84.7180348,20.480411 C84.4574954,20.0315607 83.9609225,19.7761804 83.435974,19.8329316 C82.9174745,19.8896828 82.4802326,20.2443776 82.3202974,20.7409505 L76.1924598,39.7358256 C75.9188914,40.5865844 76.552576,41.4615773 77.4500143,41.4615773 C78.0084976,41.4615773 78.5269968,41.1055927 78.7075688,40.5458196 L80.789144,34.0931163 L87.3817932,30.2864342 L89.1833206,33.3745367 C89.5496237,34.0052486 90.3621974,34.2206452 90.98904,33.849183 C91.6184623,33.4828798 91.8312792,32.6728858 91.4636863,32.0434635 L89.0061347,27.8309787 Z M81.998654,30.3439919 L83.927388,24.3652874 L86.0503979,28.0044566 L81.998654,30.3439919 Z" id="Shape" fill-rule="nonzero"></path>
            <path d="M88.3733268,106.915034 C87.8264517,107.547036 86.6204893,108.611121 85.0237174,109.532038 C81.6261335,111.494145 80.1402844,110.304839 80.1302179,106.504878 C80.11732,101.933828 82.7639885,97.3305341 86.7159344,95.0488786 C88.4507148,94.0454146 89.2942436,94.0299369 89.312301,94.0299369 C90.0358786,94.0634717 90.6536925,93.4869313 90.6794884,92.7581946 C90.7065742,92.0294579 90.1364828,91.4168031 89.4077461,91.3910072 C88.9369692,91.3742397 87.6226634,91.4722645 85.3951797,92.7607743 C80.6500073,95.5003086 77.4732311,101.027099 77.4886522,106.512617 C77.5051334,112.488389 81.2457435,114.761107 86.3444721,111.820142 C88.2224203,110.73671 89.6540978,109.470127 90.3699365,108.645945 C90.8471624,108.095201 90.7878315,107.2607 90.2370871,106.782185 C89.6863427,106.304959 88.8531324,106.36429 88.3733268,106.915034 Z" id="Path"></path>
            <path d="M35.7662735,97.9096539 C35.7662735,96.1041259 34.8882627,94.8575852 33.9824807,94.3562563 C34.824498,93.1502937 35.4397426,91.5925282 35.6358424,90.3939922 C36.3319462,86.1738488 33.2692214,83.9662762 29.9570163,85.8822734 L25.2286112,88.6024608 C24.818455,88.839784 24.5656541,89.2783158 24.566939,89.7516722 C24.5677501,90.0176529 24.6228589,108.213974 24.6198257,107.211688 C24.6211155,107.683755 24.8739161,108.118417 25.2840723,108.353161 C25.6801365,108.582735 26.1873452,108.592721 26.6035372,108.349292 L31.3293626,105.604598 C33.9473185,104.093779 35.7662735,100.607713 35.7662735,97.9096539 Z M31.2803507,88.1690879 C33.16041,87.0669844 33.4314291,88.8429779 32.8611613,90.7298236 C32.4796024,91.9922755 31.1851626,93.9251408 29.9828125,94.6258245 L27.2278006,96.2106657 L27.2110331,90.5100741 L31.2803507,88.1690879 Z M30.0060287,103.319073 L27.2535965,104.917135 L27.236829,99.2545924 C27.500991,99.1026076 31.5753064,96.7583969 31.3111444,96.9103817 L31.3138852,96.9087693 C32.436671,96.2440993 33.1247638,96.5253965 33.1247638,97.9096539 C33.1247638,99.8395872 31.6819267,102.349547 30.0060287,103.319073 Z" id="Shape" fill-rule="nonzero"></path>
        </g>
    </g>
</svg>