<?xml version="1.0" encoding="UTF-8"?>
<svg id="Layer_1" xmlns="http://www.w3.org/2000/svg" version="1.1" viewBox="0 0 140 140">
  <!-- Generator: Adobe Illustrator 30.0.0, SVG Export Plug-In . SVG Version: 2.1.1 Build 123)  -->
  <defs>
    <style>
      .st0 {
        fill-rule: evenodd;
      }
    </style>
  </defs>
  <g id="ICONS">
    <g id="Layer_11" data-name="Layer_1">
      <path id="Shape" d="M10.52,36.37c.15.79.91,1.3,1.69,1.17.79-.15,1.31-.91,1.16-1.7-.52-2.82-.96-5.69-1.31-8.53-.58-4.79.42-8.64,2.74-10.54,2.68-2.2,7.18-1.31,10.68.78,1.7.98,3.23,3.27,3.55,5.33,1.33,8.28,3.6,17.01,6.76,25.96.35.97.71,2.87.03,3.54-.1.1-.19.19-.34.2h-.01c-1.34.06-2.68.33-4.01.63h-.04c-1.49.34-2.49,1.12-3.07,2.27-3.76,7.47,18.72,40.75,22.77,46.33,1.23,1.66,2.97,3.29,5.05,3.85,2.09.56,3.95-.28,4.7-1.44l2.33-3.18c.09-.12.22-.17.35-.21.94-.33,2.36.88,3.04,1.7,3.4,4.02,6.91,7.76,10.49,11.25,2.81,2.74,5.66,5.34,8.56,7.73.37.3.7.68,1.02,1.08,1.34,1.68,1.9,3.85,1.79,5.04,0,4.76-2.09,7.91-4.44,8.93-2.38,1.03-5.53.53-8.86-1.41-.92-.53-1.85-1.17-2.77-1.91-24.07-19.27-42.93-45.94-53.09-75.11-.26-.76-1.09-1.16-1.85-.89-.75.27-1.15,1.1-.89,1.86,10.34,29.68,29.52,56.82,54.01,76.42,1.03.83,2.08,1.55,3.12,2.16,3.48,2.02,7.73,3.16,11.45,1.56.5-.21,6.12-3.53,22.37-13.02,2.29-1.35,3.91-3.72,4.72-6.99.04-.29.57-4.38.53-4.08.26-2.85-1.36-6.39-3.88-8.45-6.35-5.22-12.62-11.48-18.64-18.59-1.76-2.11-4.67-3.67-6.86-2.32l-6.48,3.78c-.7-.51-1.4-1.19-2.01-2.03-8.8-12.11-16.23-25.03-22.09-38.4-.44-1-.64-1.97-.69-2.86l6.46-3.77s0,0,.01,0c1.94-1.16,2.48-4.04,1.35-7.16-3.07-8.66-5.3-17.23-6.62-25.47-.46-2.94-2.5-5.98-5.02-7.43l-4.19-1.71c-3.22-1.12-6.2-.96-8.62.45C6.14,18.37,16.22,12.46,14.05,13.74c-4.51,2.7-5.52,8.64-4.87,13.93.36,2.9.81,5.82,1.34,8.7ZM84.88,88.3c.79-.5,2.45.85,3.15,1.69,6.14,7.26,12.54,13.65,19.02,18.97,1.78,1.46,3.02,4.08,2.82,5.97-.04.43-.52,4.04-.48,3.75-.59,2.38-1.72,4.07-3.34,5.03l-15.55,9.08c.63-2.03.79-4.73.84-5.02.22-2.31-.81-5.07-2.52-7.13-.42-.51-.87-.99-1.36-1.39-2.86-2.36-5.69-4.93-8.48-7.66-7.68-7.51-10.16-11.41-12.17-12.76,25.67-14.97-5.55,3.24,18.06-10.54ZM50.17,50.32c5.93,13.56,13.47,26.67,22.39,38.94.5.7,1.06,1.33,1.66,1.89-.29.17-13.1,7.64-12.28,7.16-.61.35-.87.81-1.14,1.1l-2.26,3.06c-.38.52-1.02.56-1.65.37-1.34-.39-2.65-1.7-3.43-2.77-3.37-4.63-25.68-38.34-22.42-43.41.16-.25.33-.44.67-.53,1.29-.28,2.5-.57,3.88-.63.32-.02,1.15-.18,1.41-.37,3.09-1.81,11.9-6.97,12.38-7.24.17.8.43,1.61.79,2.42ZM36.96,3.71c1.67-.97,3.82-1.05,6.18-.24.3.12,4.08,1.65,3.78,1.53,1.7.98,3.23,3.27,3.55,5.33,1.35,8.42,3.62,17.17,6.76,26,.7,1.93.39,3.36-.1,3.66-.3.17-18.34,10.7-18.05,10.53-.03-.55-.29-1.93-.54-2.63-3.08-8.67-5.31-17.24-6.63-25.46-.46-2.93-2.5-5.97-5.01-7.42h-.02s0-.01,0-.01c-3.57-1.42-3.75-1.71-5.55-2.13l15.64-9.15Z"/>
      <path id="Path" class="st0" d="M16.59,49.57c-.7-2.47-1.11-3.96-1.68-6.44-.18-.78-.96-1.26-1.74-1.09-.78.18-1.27.97-1.09,1.75.59,2.54,1,4.06,1.72,6.58.18.64.76,1.06,1.39,1.06.13,0,.27-.02.4-.06.77-.22,1.21-1.03.99-1.8Z"/>
      <path id="Shape1" data-name="Shape" d="M87.17,7.35l-10.22,5.99s-.04.02-.06.03c-5.06,2.93-7.86,8.97-7.89,17-.05,16.03,11.18,35.6,25.02,43.64,5.86,3.4,12.89,5.12,18.76,1.73.02-.01.03-.03.05-.04h0s0,.01,0,.01c0,0,0,0,0,0l10.31-6.04c5.02-2.95,7.81-8.99,7.84-17.02.03-16-11.2-35.56-25.05-43.6-7.02-4.08-13.69-4.69-18.79-1.7ZM95.47,71.48c-13.04-7.57-23.61-26.01-23.57-41.11.02-6.93,2.29-12.06,6.4-14.46h0c13.78-8.06,39.54,18.16,39.47,42.77-.02,5.67-1.61,11.73-6.44,14.52-4.16,2.41-9.79,1.79-15.86-1.73ZM128.1,52.63c-.06,13.59-8.16,15.05-9.37,16.25,1.09-2.45,1.93-6.13,1.95-10.19.04-19.72-17.5-45.36-35.02-47.08,1.71-.48,6.94-6.96,18.84-.03,13.04,7.57,23.63,26,23.6,41.06Z"/>
      <path id="Shape2" data-name="Shape" d="M95.08,32.99c-.38-.5-1.03-.7-1.62-.5-.59.2-.99.75-.99,1.38v3.38s-9.99-5.79-9.99-5.79c-.45-.26-1-.26-1.45,0s-.72.74-.73,1.26l-.03,10.73c0,.52.27,1.01.72,1.27l11.42,6.63v5.04c-.02.43.17.83.49,1.11.32.28.75.4,1.17.33l15.3-2.39c.51-.08.93-.42,1.12-.9.19-.48.12-1.02-.19-1.43l-15.23-20.12ZM95.32,54.68v-4.18c.01-.52-.26-1.01-.71-1.27l-11.42-6.63.02-7.37,9.98,5.79c.44.26,1,.26,1.45,0,.45-.26.72-.74.73-1.26v-1.59s11.17,14.75,11.17,14.75l-11.21,1.75Z"/>
    </g>
  </g>
</svg>