<?xml version="1.0" encoding="UTF-8"?>
<svg width="102px" height="140px" viewBox="0 0 102 140" version="1.1" xmlns="http://www.w3.org/2000/svg" xmlns:xlink="http://www.w3.org/1999/xlink">
    <title>Layer_1</title>
    <g id="ICONS" stroke="none" stroke-width="1" fill="none" fill-rule="evenodd">
        <g id="Layer_1" transform="translate(-0, 0)" fill="#000000">
            <path d="M81.5836571,54.2795085 L66.9622419,51.683342 C66.4744247,51.5950469 65.9571419,51.7075521 65.567543,51.9838307 C65.1779441,52.2615336 64.9520419,52.6773761 64.9520419,53.1160043 L64.9651378,58.0135448 L53.9679692,63.5376973 C53.4474127,63.7997351 53.1298403,64.2825108 53.1298403,64.8051619 L53.1560318,73.1860944 C53.1560318,74.2961719 54.5495416,75.0066396 55.6704187,74.4450144 L65.0076993,69.7553948 L65.0175212,72.9810212 C65.0207953,73.6104812 65.4856947,74.1687354 66.1732226,74.3638394 C66.8738461,74.5589435 67.6203045,74.3495983 68.0459172,73.8397642 L82.6018537,56.5709137 C82.9390695,56.1693125 83.0176441,55.6466614 82.81466,55.182399 C82.6084005,54.7195608 82.1435011,54.3777726 81.5836571,54.2795085 Z M68.3536667,68.5406228 L68.3503926,67.2304344 C68.3471186,66.7106313 68.0295465,66.2307039 67.5089896,65.9700903 C66.9917068,65.7109008 66.3532882,65.712325 65.8360058,65.9715145 L56.5019992,70.6597098 L56.4856295,65.6411193 L67.4827981,60.1169669 C68.0033546,59.8549291 68.320927,59.3721533 68.320927,58.8495022 L68.3111052,54.8989998 L78.3490026,56.681995 L68.3536667,68.5406228 Z" id="Shape" fill-rule="nonzero"></path>
            <path d="M57.5824001,57.6276093 C58.1028929,57.3655715 58.4238031,56.8827957 58.4205538,56.3601446 L58.3910634,47.9792121 C58.3877894,47.4594091 58.0702173,46.9794817 57.5496604,46.718868 C57.0323776,46.4596786 56.393959,46.4611028 55.8766765,46.7202922 L46.54267,51.4084876 L46.5328481,48.1842851 C46.529574,47.5548251 46.0646746,46.9965708 45.3771467,46.8014668 C44.683071,46.6063628 43.9333385,46.8171321 43.5044521,47.3255421 L28.9485092,64.5929687 C28.6112934,64.9945699 28.5327188,65.517221 28.7357029,65.9814834 C28.9419611,66.4443216 29.4068608,66.7846857 29.9667048,66.8843739 C45.0869295,69.5607528 44.5851085,69.5119317 44.9220685,69.5119317 C45.8254971,69.5119317 46.5983264,68.8771538 46.5983264,68.0493023 L46.5819568,63.1517617 L57.5824001,57.6276093 Z M44.0642965,61.0483397 C43.5437399,61.3103775 43.2228934,61.7931532 43.2261675,62.3158044 L43.2392634,66.2663068 L33.2013596,64.4833115 L43.1967022,52.6246838 L43.1999763,53.9348722 C43.2032504,54.4546752 43.5208225,54.9346027 44.0413793,55.1952163 C44.5586621,55.4544057 45.1970807,55.4529815 45.7143632,55.1937921 L55.0483698,50.5055967 L55.0647394,55.5241872 L44.0642965,61.0483397 Z" id="Shape" fill-rule="nonzero"></path>
            <path d="M74.2140153,121.825409 L70.5013658,123.702396 C69.6992502,124.106845 69.4275194,124.999767 69.8924128,125.69616 C70.3535909,126.386657 71.3768767,126.630604 72.1841719,126.223084 L75.8968213,124.346097 C76.6989369,123.941648 76.9706741,123.048726 76.5057743,122.352332 C76.0376005,121.654515 75.006309,121.423807 74.2140153,121.825409 Z" id="Path"></path>
            <path d="M99.2033949,5.45755001 C98.3153255,4.99122938 89.2524804,0.396670353 89.5884431,0.576030027 C87.8172409,-0.311195213 85.6007827,-0.168783521 83.3483111,0.970510598 L7.2029918,39.2037965 C3.13675684,41.2659216 -0.025870503,46.0538052 0.000159524288,50.1039956 L0.157470207,110.789921 C0.157470207,113.040027 1.11673495,114.75324 2.84537594,115.609135 C5.75794314,117.082018 12.8693175,120.677125 12.4216541,120.453983 C14.3844267,121.432341 16.6672718,121.052124 18.6421426,120.060927 L39.5036965,109.582447 L39.5120858,112.858096 L25.2391341,120.063775 C24.9788559,120.195684 24.7703468,120.383134 24.6262932,120.602804 C24.4781472,120.821762 24.3944574,121.072941 24.3944574,121.335512 L24.3715399,129.277817 C24.3715399,129.800468 24.6891124,130.283244 25.2096689,130.545281 L43.645232,139.804894 C44.1631286,140.064395 44.7977552,140.065675 45.3182158,139.804894 C45.3190342,139.804538 45.3194435,139.80347 45.3202622,139.803114 C48.7991508,138.044484 69.0584081,127.803131 67.7610834,128.458949 C68.563199,128.054499 68.8349361,127.161578 68.3700364,126.465184 C67.9018629,125.765942 66.8738451,125.533811 66.0782773,125.93826 L46.166985,136.003568 L46.180081,131.456538 L81.9208729,113.373448 L81.907777,117.934719 L78.843368,119.484159 C78.0412524,119.888609 77.7695152,120.78153 78.234415,121.4765 C78.6993147,122.175742 79.7306063,122.406449 80.526174,122.004847 L84.4221642,120.035292 C84.939447,119.776103 85.2570191,119.296175 85.2570191,118.779221 L85.2799366,110.851336 C85.2801411,110.843681 85.2864844,110.837451 85.2864844,110.829796 C85.2864844,110.309993 84.9656382,109.830065 84.4483554,109.569452 L66.0095246,100.311263 C65.6182887,100.115447 65.1701679,100.116693 64.7463972,100.216025 L64.7355522,96.9088678 L94.7776401,81.8190952 C98.8373273,79.7797586 102.009776,74.9975716 101.999977,70.9331398 L101.849353,10.2543342 C101.839736,8.03929708 100.897455,6.34708957 99.2033949,5.45755001 Z M9.69118715,115.700279 L4.51508606,113.081326 C3.87666748,112.765172 3.50998606,111.929215 3.50998606,110.787073 L3.35272357,50.0926028 C3.35272357,50.0911786 3.35272357,50.0883306 3.35272357,50.0869064 C3.33319314,47.0862905 5.87049783,43.2568381 8.88579752,41.7273359 L85.0311172,3.49404714 C85.777576,3.11523188 86.4781992,2.92155174 87.0609609,2.92155174 C87.3850812,2.92155174 87.6699139,2.97994047 87.9089118,3.09956657 L93.0620954,5.70855083 C93.0097123,5.73418506 92.9573293,5.75981899 92.9049462,5.78545322 L16.7661743,44.0358303 C12.5677507,46.1411712 9.53530087,51.069781 9.55040764,54.937451 C9.74341365,138.137074 9.67674217,109.397457 9.69118715,115.623376 C9.69118715,115.64901 9.69118715,115.674644 9.69118715,115.700279 Z M45.7585611,106.440666 C45.7595011,106.737238 45.8057072,121.305372 45.8027593,120.376013 L42.8824036,118.894574 C42.8815979,118.595087 42.8521323,107.608019 42.852938,107.907507 C43.1888433,107.737926 46.0944661,106.271084 45.7585611,106.440666 Z M27.7404254,123.861897 C28.0803142,124.03268 43.8264563,131.944621 42.8267468,131.442297 L42.8136508,136.019589 L27.7273295,128.441859 L27.7404254,123.861897 Z M64.7654271,103.477077 L65.1812175,103.263459 L80.2628262,110.834603 L44.5046417,128.914488 C44.1648937,128.743494 28.423931,120.821172 29.4232312,121.324119 L39.5208845,116.226134 L39.5298877,119.734804 C39.5298877,120.253183 39.8474601,120.731686 40.3614689,120.9923 C40.7005903,121.164229 47.048756,124.382779 46.6509147,124.181077 C46.6521423,124.181789 46.6527562,124.183036 46.6539839,124.183748 C46.9683399,124.341101 47.8282736,124.433402 48.3269677,124.182323 L63.9567634,116.325466 C64.4067257,116.099031 64.6633209,115.696006 64.734529,115.25631 C64.745783,115.187952 64.7948924,115.129741 64.7948924,115.059426 L64.7948924,115.058001 L64.7948924,115.058001 L64.7948924,115.053017 L64.7654271,103.477077 Z M61.4391028,114.222044 L49.1569122,120.396129 C49.1539261,119.475859 49.1032247,103.852888 49.106043,104.759317 L61.3899938,98.5893273 L61.4391028,114.222044 Z M93.1013822,79.2927109 C92.0379266,79.8234506 21.5903521,115.210349 16.9658847,117.534542 C15.8101833,118.117006 14.7592484,118.262266 14.0946383,117.92475 C13.436576,117.595779 13.0567989,116.751277 13.0535249,115.609135 C13.0387443,109.382982 13.1069663,138.123367 12.9093699,54.9217857 C12.8912406,52.0787128 15.3328209,48.1263913 18.4489801,46.5636391 L94.5844775,8.3218079 C96.8479859,7.18132469 98.4895862,7.71648012 98.4968374,10.2614562 L98.6474672,70.9388368 C98.6572606,73.9536939 96.1166822,77.7788737 93.1013822,79.2927109 Z" id="Shape" fill-rule="nonzero"></path>
            <path d="M93.0424513,14.5879241 C92.5251685,14.3287346 91.8867499,14.3287346 91.3694675,14.5879241 L18.3540358,51.2618034 C17.8334793,51.5238412 17.5159068,52.0066169 17.5159068,52.529268 L17.6665082,105.318461 C17.6665082,106.428539 19.060018,107.139006 20.1808951,106.577381 L93.1963268,69.9035032 C93.7168833,69.6414654 94.0344557,69.1587287 94.0344557,68.6360385 L93.8838544,15.8468443 C93.8838544,15.3270412 93.5630082,14.8471135 93.0424513,14.5879241 Z M21.0124763,102.792076 L20.8716968,53.3652251 L90.5378863,18.3732275 L90.6786658,67.8000785 L21.0124763,102.792076 Z" id="Shape" fill-rule="nonzero"></path>
            <path d="M57.199349,91.1157355 L52.8253634,93.311725 C52.0232479,93.7147503 51.7482366,94.606248 52.2131364,95.3040656 C52.6715074,95.9997915 53.6955797,96.2406676 54.5016214,95.8381098 L58.8756069,93.6421204 C60.7956712,92.6773809 59.1201166,90.1511631 57.199349,91.1157355 Z" id="Path"></path>
        </g>
    </g>
</svg>