<?xml version="1.0" encoding="UTF-8"?>
<svg width="141px" height="138px" viewBox="0 0 141 138" version="1.1" xmlns="http://www.w3.org/2000/svg" xmlns:xlink="http://www.w3.org/1999/xlink">
    <title>progress-chart.1</title>
    <g id="progress-chart.1" stroke="none" fill="none" transform="translate(0.0133, -0)" fill-rule="evenodd" stroke-width="1">
        <g id="Layer_1" transform="translate(24.5118, 6.5101)" fill="#000000">
            <path d="M42.054203,103.599155 C42.0554929,104.061935 42.3057138,104.489117 42.7107111,104.720507 C42.7728582,104.756116 41.8469233,104.225694 51.7160914,109.879742 C52.1177884,110.107795 52.6221707,110.113158 53.0355563,109.878471 L64.0762302,103.595341 C64.4863967,103.361408 64.7379075,102.930413 64.7366126,102.463819 L64.6553603,74.1541377 C64.6542015,73.7089234 64.4128277,73.2680746 63.9936931,73.0289719 C63.9920807,73.0280184 63.9901461,73.028654 63.988534,73.0277005 L54.9973414,67.8786364 C54.5884749,67.6421609 54.0828736,67.6447035 53.674007,67.8760936 L42.6333231,74.1592229 C42.1669498,74.4253918 41.973641,75.0233747 41.9729457,75.2856601 C41.9729457,75.2866136 41.9735905,75.2872495 41.9735905,75.288203 C41.9735905,75.2891565 41.9729457,75.2897923 41.9729457,75.2907458 L42.054203,103.599155 Z M44.6209041,77.5526786 C44.9725913,77.754112 51.384512,81.4265448 50.9752627,81.192145 L51.0479753,106.485174 L44.693133,102.845231 L44.6209041,77.5526786 Z M53.6894844,106.499159 L53.6172555,81.1927809 L62.0202993,76.4097136 L62.0925282,101.717522 L53.6894844,106.499159 Z M54.3318047,70.5078374 L60.6995449,74.1541375 C59.89669,74.6111318 52.0278802,79.0901272 52.2956949,78.9376815 C51.6364513,78.5600736 45.5445517,75.0706689 45.9287606,75.2907456 L54.3318047,70.5078374 Z" id="Shape" fill-rule="nonzero"></path>
            <path d="M79.8659659,36.2557552 L68.8136739,42.5452414 C68.400797,42.7808777 68.1545058,43.2144557 68.1532965,43.6716786 C68.1532965,43.6726321 68.1539413,43.673268 68.1539413,43.6742215 C68.1539413,43.9451631 68.2803314,88.3855682 68.2822764,88.6732266 C68.2835662,89.1360067 68.5337872,89.5631883 68.9387845,89.7945784 C68.999667,89.8294518 68.0838087,89.3048213 77.9441548,94.9538133 C78.346814,95.1823924 78.8511257,95.1867331 79.2636297,94.9525419 L90.3159217,88.6617843 C90.7260779,88.4278514 90.977589,87.9968558 90.976304,87.5302616 L90.8473192,42.5337994 C90.8461604,42.0885851 90.6047867,41.6477363 90.185652,41.4086335 C90.1840396,41.40768 90.182105,41.4083156 90.1804929,41.4073621 L81.1893004,36.2582981 C80.7804338,36.0218226 80.2748325,36.0243654 79.8659659,36.2557552 Z M70.8012549,45.9385382 L77.1556135,49.5781635 L77.2760486,91.5592448 L70.9212064,87.9193016 L70.8012549,45.9385382 Z M79.917558,91.5732302 C79.874521,76.5064274 79.8437876,65.7449333 79.7976066,49.5787993 L88.2122588,44.7892164 L88.3322102,86.7839652 L79.917558,91.5732302 Z M78.4760457,47.323859 C77.7339878,46.898793 71.8417199,43.5235986 72.1091114,43.6767643 L80.5237636,38.887499 L86.8915038,42.5337991 C86.1837568,42.936651 78.1363851,47.5171924 78.4760457,47.323859 Z" id="Shape" fill-rule="nonzero"></path>
            <path d="M15.8274219,118.526355 C15.8287117,118.989135 16.0789327,119.416317 16.48393,119.647707 C16.7513215,119.800878 25.7520237,124.956775 25.4846322,124.803605 C25.4860832,124.804399 25.4865668,124.806148 25.4880178,124.806942 C25.8897148,125.034994 26.394097,125.040358 26.8074827,124.80567 L37.8481667,118.52127 C38.2583228,118.287337 38.5098339,117.856341 38.5085489,117.389747 L38.4659806,102.48416 C38.4647512,102.108658 38.069065,101.511311 37.8094725,101.362809 C37.4216862,101.140706 28.4762513,96.0174067 28.8079617,96.2073876 C28.3990951,95.9709121 27.8934939,95.9734547 27.4846273,96.2048448 L16.443946,102.487974 C16.0310691,102.723615 15.7847803,103.157193 15.7835686,103.614411 C15.7835686,103.615365 15.7842134,103.616001 15.7842134,103.616954 C15.7842134,103.617908 15.7835686,103.618544 15.7835686,103.619497 L15.8274219,118.526355 Z M18.4315247,105.88143 C18.7832118,106.082864 25.1951325,109.755297 24.7858832,109.520897 L24.8199016,121.412374 L18.4663493,117.772431 L18.4315247,105.88143 Z M27.4614111,121.426359 C27.4559445,119.484415 27.4262943,108.95889 27.4278153,109.521532 C27.6957114,109.369117 36.3772762,104.428657 35.8309201,104.739577 L35.8644549,116.64345 L27.4614111,121.426359 Z M28.1424252,98.8365889 L34.5100043,102.48416 L26.1063154,107.266592 L19.7393811,103.619497 L28.1424252,98.8365889 Z" id="Shape" fill-rule="nonzero"></path>
            <path d="M24.8340894,59.4201863 C25.3216336,58.8849379 25.2790702,58.062359 24.7373545,57.5805083 C24.1943489,57.099929 23.3611384,57.140613 22.8710145,57.6758613 C11.8432311,69.7386562 2.32580024,77.7381402 0.459460502,79.2777739 C0.135720804,79.5523908 -0.0332428188,79.9643158 0.00545106795,80.3825977 C0.00819189813,80.4123161 0.0291512189,80.4356775 0.0339878227,80.4649191 C0.0360838604,80.4781096 0.0275388415,80.4901877 0.0299571434,80.5033782 L1.56352877,88.6681409 C1.63446782,89.0419248 1.86663167,89.3673965 2.19940005,89.5581026 C8.20291545,92.9735391 10.6446523,94.4206209 10.9158553,94.5037469 C11.3025709,94.6257194 11.7312958,94.5636676 12.0940971,94.2977842 C23.8864899,85.6570608 49.210041,59.3375766 63.629972,34.6639952 L69.0780853,37.710207 C69.4521272,37.9174408 69.903557,37.9339688 70.2943662,37.754705 C70.6825959,37.5728986 70.9573232,37.2169338 71.0308417,36.7986318 L76.3847996,6.25387588 C76.3926996,6.20890116 76.3640017,6.16948836 76.3670648,6.12467247 C76.3722239,6.05570033 76.4051139,5.9921318 76.399745,5.92204733 C76.3899588,5.81684108 76.3328853,5.72832163 76.2995116,5.63042599 C76.2754892,5.55986477 76.2659769,5.49327665 76.2303461,5.42780085 C76.1161988,5.21722952 75.9620678,5.03033768 75.7463489,4.90749112 L75.7431244,4.90558412 C75.7428019,4.90542529 75.7428019,4.90510737 75.7424796,4.90494854 C75.7421574,4.90478971 75.7418348,4.90494854 75.7415123,4.90478971 L67.4838934,0.175438574 C67.004088,-0.0991783019 66.4017515,-0.0470517962 65.9735382,0.301304468 L41.7407848,20.256788 C41.4105961,20.528862 41.2351832,20.9433497 41.2725875,21.3666972 C41.308702,21.7887934 41.5524739,22.1689342 41.9239362,22.3812534 L47.1337588,25.3658034 C43.4978141,31.57122 39.1753733,37.9196663 34.2173839,44.2666823 C33.7724032,44.8362578 33.8794564,45.653751 34.4572866,46.0923752 C35.0313482,46.5304577 35.8652188,46.4266619 36.3094388,45.8558997 C41.333208,39.4251319 45.7423876,32.9810149 49.4344388,26.6837414 C49.8521526,26.9203734 54.9754328,29.8226938 54.6473248,29.636825 C38.5757778,57.0721186 13.8535479,78.6033109 8.65887775,82.9685729 L3.59802673,80.063166 C7.04807895,77.1242258 15.4019492,69.7345242 24.8340894,59.4201863 Z M3.15207812,82.8244301 L7.67814578,85.42582 L9.14577635,90.5191023 L4.05026212,87.6065439 L3.15207812,82.8244301 Z M66.9576524,2.88473581 L72.7898033,6.22447537 L50.7611559,24.3660262 C49.2912883,23.5404477 45.2248929,21.2564818 44.8814436,21.0641096 L66.9576524,2.88473581 Z M57.6066057,29.7806484 C57.96517,29.1564038 57.7433244,28.364338 57.1113227,28.0083532 C56.846818,27.8566995 52.925505,25.6084339 53.1900096,25.7600874 L73.1691655,9.30628512 L68.7478939,34.531772 L63.7873249,31.7576343 C63.484222,31.5859987 63.1243679,31.5415008 62.7838609,31.6355824 C62.4459334,31.7283926 62.159598,31.9483404 61.9867648,32.2496558 C44.7305371,62.3112905 19.0751345,85.0332834 12.0225133,90.970599 L10.3045004,85.0091271 C15.4121064,80.723326 41.2661354,58.2721359 57.6066057,29.7806484 Z" id="Shape" fill-rule="nonzero"></path>
            <path d="M28.8479457,54.9118948 C30.0964718,53.4752424 31.3540263,51.9928203 32.6115808,50.4684432 C33.0720392,49.9115814 32.9869123,49.0915453 32.4206905,48.6376649 C31.8557583,48.1837844 31.0251274,48.2689664 30.5633792,48.8258281 C29.3187227,50.3324062 28.0766456,51.7970288 26.8410177,53.2184246 C26.3663715,53.7638441 26.4308616,54.5864228 26.9854753,55.0542884 C27.5389653,55.520714 28.3724479,55.4591069 28.8479457,54.9118948 Z" id="Path"></path>
        </g>
    </g>
</svg>