<?xml version="1.0" encoding="UTF-8"?>
<svg width="140px" height="140px" viewBox="0 0 140 140" version="1.1" xmlns="http://www.w3.org/2000/svg" xmlns:xlink="http://www.w3.org/1999/xlink">
    <title>Administrator</title>
    <g id="Administrator" stroke="none" fill="none" fill-rule="evenodd" stroke-width="1">
        <g id="Layer_1" transform="translate(17.4354, 6.605)" fill="#000000">
            <path d="M47.9716356,5.53341545 L44.6736181,7.43715949 C44.0416164,7.80217277 43.82493,8.60958738 44.1899432,9.24158911 C44.5584882,9.87781172 45.3684572,10.0868172 45.9943729,9.72526402 L49.2923904,7.82151998 C49.9243921,7.4565067 50.1410786,6.64909209 49.7760653,6.01709036 C49.4097621,5.38508836 48.5984783,5.16840217 47.9716356,5.53341545 Z" id="Path"></path>
            <path d="M104.393916,29.0000268 C102.862319,28.1105942 95.9561483,24.1000356 96.2718871,24.2833912 C96.6086458,23.7643251 95.0512028,26.1632615 99.5649066,19.2065791 C99.8773808,18.6642159 99.7117925,17.7721407 99.0825216,17.4073089 C98.81513,17.2519284 83.9746966,8.62832994 84.2420881,8.7837104 L69.0895233,0.170429113 C68.5969811,-0.107683792 68.0141529,-0.0328754528 67.6046416,0.303600811 C67.5823924,0.321980434 67.5691722,0.348260019 67.5480517,0.367929491 C67.4542187,0.455635793 67.3592572,0.543180962 67.2915429,0.660552736 C67.2823531,0.67635266 67.2831593,0.694248623 67.2747754,0.71037134 C67.2718735,0.716014132 67.2660693,0.719400019 67.2631673,0.725042811 L64.4904208,6.1844416 L56.3579122,1.45893866 C55.9490456,1.21903598 55.4434444,1.22161542 55.0345778,1.45635896 L51.7700953,3.34075606 C51.1380936,3.70576934 50.9214071,4.51318394 51.2864204,5.14518568 C51.6514337,5.77589757 52.4575584,5.99000432 53.09085,5.62886058 L55.6923757,4.12624402 C56.0749273,4.34852651 68.4834889,11.5585323 67.8900099,11.2136925 L49.1727617,22.0205989 L36.9760948,14.9323445 L41.8670146,12.1088134 C42.4990164,11.7438001 42.7157028,10.9363855 42.3506895,10.3043838 C41.9843864,9.67109221 41.1731025,9.45311617 40.5462599,9.82070889 C38.8175457,10.8182654 35.3603841,12.813836 33.6316446,13.8113487 C33.4055972,13.9546387 33.014813,14.5241291 33.0138307,14.9308933 C33.0131859,15.1968766 33.7470867,24.0575197 33.7593349,23.7918161 C31.5752205,25.7914889 29.5052537,27.9814075 27.5491113,30.2756382 L22.2723803,27.2046254 C21.9705673,27.0292125 21.6068438,26.9802004 21.2676265,27.0691965 C20.9284091,27.1594825 20.6382042,27.3813281 20.4627916,27.6857206 L5.43275742,53.7319353 C5.06903399,54.3626472 5.28443059,55.1687719 5.91385263,55.5337852 L11.220088,58.6170509 C10.2283935,61.4554159 9.38147882,64.3021648 8.75399116,67.1032869 L0.757232894,70.8695017 C0.312252139,71.0784493 0.0207573465,71.5156912 5.73144318e-05,72.007105 C-0.00116929498,72.0346744 0.017693988,72.0574072 0.0181776484,72.0848153 C0.0181776484,72.0865888 0.0168877994,72.0878786 0.0168877994,72.0896521 L0.0865370069,96.6345322 C0.087826856,97.1040193 0.338047799,97.5373919 0.743045082,97.7721355 L8.86072214,102.490061 L5.62622738,107.480457 C5.42888814,107.783559 5.36568791,108.155022 5.44952493,108.505847 C5.53336195,108.857963 5.75778697,109.159776 6.06991855,109.340348 L20.8616619,117.935249 C20.8763333,117.944439 20.8848784,117.9604 20.9000335,117.969107 L36.0345412,126.615923 C36.6941528,126.992242 37.5275094,126.735481 37.8660566,126.069047 L40.6487991,120.610293 L48.7854995,125.323543 C49.1510921,125.536391 49.6551216,125.56391 50.0649806,125.34805 C50.331576,125.207643 71.7359203,112.89966 71.4704935,112.987901 C71.9141847,112.731231 72.1708546,112.241107 72.1257118,111.729056 L71.3673096,102.998403 C73.7740755,100.776079 76.0544412,98.3693128 78.1645531,95.8245384 L82.6891698,99.4630628 C82.9909829,99.7055452 83.3830819,99.7984107 83.7597033,99.732631 C84.1389044,99.6616919 84.4678032,99.4282382 84.6612732,99.0941803 L99.7158134,73.0183083 C100.119773,72.3181033 99.8043764,71.4111477 99.0386686,71.1223031 L93.6318289,69.0818404 C94.7539546,66.0069583 95.6813204,62.8417902 96.3958693,59.6443772 L104.37199,55.8846117 C104.835028,55.6666357 105.130392,55.1997283 105.129106,54.6863879 L105.059453,30.1415005 C105.058254,29.7807712 104.806128,29.2392567 104.393916,29.0000268 Z M101.258897,30.2350099 L95.8941373,33.8857875 C95.2092538,31.9639861 94.3747535,30.2304956 93.3983752,28.7098219 L94.8313426,26.5023299 L101.258897,30.2350099 Z M66.778364,7.51390247 L68.9863396,3.16663304 L70.4825072,4.03466817 L81.5222238,10.4509371 C81.3819076,10.7265374 76.6968721,19.9287152 76.9830968,19.3665138 C76.7039157,19.3551978 73.4882742,19.4098052 71.2138236,19.8385803 C71.2785755,18.9572264 70.9771354,23.0311792 71.8458253,11.2188514 C71.8458253,10.9545797 71.5313159,10.2894286 71.2267216,10.0993055 C70.9606598,9.93323006 66.5135719,7.34580421 66.778364,7.51390247 Z M47.898762,24.3423993 L48.4206471,30.5213453 L36.3877847,23.5293419 L35.867512,17.3505574 L47.898762,24.3423993 Z M35.3298269,25.9680305 L47.7588187,33.190263 C45.5939657,35.2745513 44.4252814,36.3976192 41.792206,39.5454302 C41.5257012,39.3344774 36.8173837,35.6075413 37.1141031,35.8424156 L29.8430195,31.6107421 C31.572802,29.6097794 33.4201175,27.7326375 35.3298269,25.9680305 Z M8.37865961,53.9125073 L22.0879388,30.1556872 C24.3015673,31.4436579 34.9158163,37.6195379 34.6338187,37.4556327 C33.231177,39.883126 39.714964,28.6619105 20.9159946,61.1964891 C20.6485856,61.0411284 8.11125037,53.7571469 8.37865961,53.9125073 Z M26.3442772,66.3087705 C25.925455,67.456027 24.6073201,71.5037101 23.8596396,74.6120163 L11.4219416,67.3825288 C11.9834879,64.9290077 12.6715961,62.4438864 13.5233474,59.9553796 L20.7323595,64.1444873 C21.0056912,64.2498978 26.6973548,66.4449401 26.3442772,66.3087705 Z M9.83339221,69.514406 L21.8854401,76.5196296 L16.2272509,79.2093402 L4.15843542,72.1876767 L9.83339221,69.514406 Z M2.72546701,95.8696807 L2.66484648,74.3842054 L14.8491001,81.4648773 C14.8502412,81.8752755 14.9096501,103.206665 14.9089212,102.942297 C14.64145,102.787037 1.93145437,95.4087487 2.72546701,95.8696807 Z M8.59663565,107.753894 L11.1472143,103.819038 C11.6046196,104.084787 9.49054754,102.85581 15.6208839,106.417661 C16.0597406,106.649856 16.6322983,106.545261 16.8964958,106.393155 C17.2350858,106.198224 23.7636252,101.711385 24.0821302,101.492885 C24.7684649,103.424198 25.6019977,105.160268 26.5738616,106.677556 L21.1321973,115.038682 L8.59663565,107.753894 Z M48.2811875,121.979093 L41.8502471,118.253507 L42.977693,116.041984 C44.8240814,116.122546 47.7758781,115.752193 48.7429358,115.567822 L48.2811875,121.979093 Z M94.6817256,57.5329744 C94.3102634,57.7083872 94.0406952,58.0476043 93.9542788,58.4500219 C93.1571827,62.1633547 92.0621429,65.8405733 90.7001146,69.3772036 C90.4371568,70.0614222 90.7810697,70.829523 91.4662556,71.0874777 L96.6499598,73.0441037 L83.1444688,96.4384825 L78.7965546,92.9431258 C78.5231172,92.7238599 78.169712,92.6232553 77.8240456,92.6593698 C77.47451,92.6980637 77.1559295,92.8734765 76.9366636,93.1482038 C74.5479548,96.1366695 71.9128943,98.9419834 69.1075804,101.484178 C68.8018978,101.761485 68.6432524,102.166482 68.6793669,102.577928 L69.4210016,111.12027 L50.9459132,121.788202 L51.5069759,113.992654 C51.5379312,113.569599 51.3638082,113.159443 51.0400685,112.886006 C50.7176186,112.612568 50.277797,112.515833 49.8715101,112.615148 C47.4810078,113.210159 44.7654507,113.554736 42.3016766,113.352913 C41.7433999,113.308838 41.1423081,113.805885 41.0067178,114.071332 C40.8664975,114.346986 36.0014946,123.91091 36.1415939,123.635195 L23.4254605,116.369754 L29.2656727,107.39017 C29.5168613,107.005165 29.4988039,106.536645 29.3106545,106.129713 C28.8241127,105.068823 27.447932,103.694894 26.0695496,99.0283996 C25.9495981,98.6234025 25.6439158,98.2996628 25.2466576,98.157785 C25.080596,98.1008726 24.907118,98.0963583 24.7362195,98.1049033 C24.4942207,98.1155441 24.2560916,98.171328 24.0484338,98.3112712 C23.78304,98.492609 17.1274878,103.040059 17.5504239,102.751084 L17.4910932,81.5387181 C17.7561975,81.4134059 25.7868822,77.6172993 25.2866416,77.8537659 C25.7873963,77.6185086 26.214476,76.60261 26.0205375,76.9225306 C26.8801736,72.9247265 28.7752319,67.3257974 29.2837304,66.0172755 C29.4101308,65.6896665 29.402392,65.3233634 29.2592243,65.0022034 C29.1160566,64.6810434 28.8503577,64.4295323 28.5227487,64.3044217 C28.2485706,64.2004466 23.0006231,62.2103416 23.322277,62.3323183 C41.8461713,30.3310972 35.4572552,41.3683551 36.8393761,38.9806591 L41.1640738,42.4216829 C41.704384,42.8493322 42.6116923,42.7232339 43.016226,42.2372416 C44.3956867,40.6605172 46.4752618,37.886642 50.8478889,33.9219015 C51.1404316,33.6550615 51.2997923,33.1151443 51.2761024,32.8320207 L50.551235,24.2754907 L57.3346132,20.3588531 L69.0250338,13.6090109 C68.2989269,23.4655041 68.4654221,21.0402426 68.4654221,21.5058073 C68.4641927,22.324699 69.1231695,22.8257558 69.7602195,22.8257558 C70.381681,22.8257558 73.5032579,21.7268744 77.6486333,22.0725128 C78.190349,22.135713 78.6946607,21.8364794 78.938433,21.3553842 C79.0738013,21.0901919 84.1516515,11.1420865 83.8282243,11.775722 L96.5493558,19.0053695 C90.4540453,28.3937875 91.7693284,26.3680189 90.7078536,28.003011 C90.4137794,28.4570205 90.4253875,29.0425895 90.7362293,29.483701 C92.0582738,31.3577798 93.1275175,33.6639412 93.9130055,36.3415677 C94.16893,37.2056577 95.1910557,37.5614862 95.923803,37.0612757 L102.424393,32.6372609 L102.485013,53.8544656 L94.6817256,57.5329744 Z" id="Shape" fill-rule="nonzero"></path>
            <path d="M59.3773329,40.3747714 C46.3942107,47.8697964 35.8642875,66.0443615 35.9054401,80.8886593 C35.948316,96.2944481 47.2134855,102.837772 60.8464144,94.9706905 C73.6941075,87.5530534 84.1118184,69.4416935 84.0693849,54.5986805 C84.0239206,39.1044196 72.8081566,32.6198441 59.3773329,40.3747714 Z M59.52566,92.682586 C47.6648851,99.5279048 38.5844497,94.2423265 38.5469581,80.8809204 C38.5083769,66.8801515 48.4449923,49.7361364 60.6980879,42.6628757 C72.3095484,35.9579788 81.3902511,41.0844129 81.4278676,54.6064194 C81.4677295,68.6059035 71.6420366,85.6867134 59.52566,92.682586 Z" id="Shape" fill-rule="nonzero"></path>
            <path d="M59.2934959,65.719332 C53.4236181,69.1076352 48.8396708,77.048931 48.8576747,83.7984771 L48.8615972,84.955397 C48.8635772,85.6796497 49.4492823,86.2722824 50.1823519,86.2722824 C50.4106464,86.2722824 50.638941,86.2129517 50.8427292,86.0955799 L70.4567107,74.7724349 C70.8668669,74.5351116 71.118378,74.0978697 71.117093,73.6245133 L71.1132188,72.4662733 C71.0946075,65.2656097 65.6536285,62.0493033 59.2934959,65.719332 Z M51.5482497,82.6376275 C52.022896,77.088915 55.9026129,70.7276236 60.6142506,68.0074365 C65.1358142,65.3971796 68.4582572,67.2322066 68.4717094,72.4740124 L68.4729992,72.8674013 L51.5482497,82.6376275 Z" id="Shape" fill-rule="nonzero"></path>
            <path d="M60.5949036,63.3241742 C63.6684959,61.5494101 66.0701026,57.3962556 66.0610993,53.868654 C66.0504028,49.8010797 62.8039018,47.9118307 59.2431936,49.9721695 C56.1760504,51.7430644 53.7808926,55.8987982 53.7898958,59.4354285 C53.8007586,63.4910674 57.0622385,65.3646322 60.5949036,63.3241742 Z M60.5639486,52.260274 C62.272404,51.273255 63.4139521,51.7642604 63.4195812,53.8763928 C63.4260138,56.4559919 61.5274289,59.7346622 59.2741492,61.0360699 C57.5184803,62.0526485 56.4368622,61.4570888 56.4314145,59.42769 C56.4249817,56.8390622 58.3171176,53.5565224 60.5639486,52.260274 Z" id="Shape" fill-rule="nonzero"></path>
        </g>
    </g>
</svg>