<?xml version="1.0" encoding="UTF-8"?>
<svg width="115px" height="140px" viewBox="0 0 115 140" version="1.1" xmlns="http://www.w3.org/2000/svg" xmlns:xlink="http://www.w3.org/1999/xlink">
    <title>Layer_1</title>
    <g id="ICONS" stroke="none" stroke-width="1" fill="none" fill-rule="evenodd">
        <g id="Layer_1" transform="translate(0, 0)" fill="#000000">
            <path d="M0.205606993,129.220597 C0.207034874,129.738989 0.484033002,130.217505 0.932370729,130.476701 C1.22837696,130.648267 17.3176595,139.97416 17.0216533,139.802594 C17.0232596,139.803484 17.023795,139.805442 17.0254012,139.806332 C17.4700825,140.061779 18.0284437,140.067798 18.4860675,139.804908 L114.268942,84.6474266 C114.722991,84.3853821 115.001417,83.9025941 115,83.3799298 L114.792957,10.7779958 C114.792031,10.4781838 114.610207,9.835017 114.060482,9.51761976 C114.058697,9.51655168 114.056556,9.51726364 114.054771,9.51619555 L97.9774463,0.19795743 C97.5248255,-0.0669351365 96.9651177,-0.0640870112 96.5124966,0.195109013 L88.4824011,4.81933628 C87.7827663,5.22237182 87.5428913,6.11389219 87.9469662,6.81172751 C88.3496132,7.51098703 89.2434326,7.74739659 89.9444953,7.34578527 L97.240688,3.14310737 L110.413635,10.7779958 L17.551377,64.2544346 L4.3791437,56.6200802 L79.1615508,13.5550956 C79.8611857,13.1520601 80.1010606,12.2605397 79.6969858,11.5627044 C79.2900551,10.8634448 78.3948081,10.6256111 77.6994566,11.0286466 L0.731047087,55.3525837 C0.273986506,55.6165362 0.0013413252,56.1022225 0,56.614384 C0,56.615452 0,56.6161643 0,56.6172324 C0,56.6183005 0,56.6190127 0,56.6200808 L0.205606993,129.220597 Z M111.875908,13.3044445 L111.913924,26.6464499 L19.0520225,80.1227122 L19.0143637,66.7803496 C53.9801768,46.6446899 76.9904962,33.3938068 111.875908,13.3044445 Z M2.93132746,59.1536499 L16.0896396,66.7796373 C16.1315707,81.5776577 16.2453173,121.721393 16.2857871,136.003842 L3.12693958,128.376074 L2.93132746,59.1536499 Z M19.2099758,136.019507 C19.1782402,124.791568 19.0884907,93.0405268 19.0614817,83.4853171 L111.923024,30.0097667 L112.072945,82.5439515 L19.2099758,136.019507 Z" id="Shape" fill-rule="nonzero"></path>
            <path d="M82.8667603,11.4217133 L85.7923765,9.73693941 C86.4920114,9.33390387 86.7318864,8.44238349 86.3278115,7.74454818 C85.9223087,7.04386445 85.024206,6.80460676 84.3302824,7.21049042 L81.4046661,8.89526429 C80.7050313,9.29829982 80.4651563,10.1898202 80.8692312,10.8876555 C81.2743435,11.587345 82.1708845,11.8226404 82.8667603,11.4217133 Z" id="Path"></path>
            <path d="M101.784032,47.1708202 L55.7694722,73.6686253 C55.0698373,74.0716608 54.8299623,74.9631812 55.2340372,75.6610165 C55.6391551,76.3607045 56.5356961,76.5960013 57.2315663,76.1950742 L103.246126,49.6972691 C103.945761,49.2942336 104.185636,48.4027132 103.781561,47.7048779 C103.376058,47.0056181 102.480811,46.7663604 101.784032,47.1708202 Z" id="Path"></path>
            <path d="M101.784032,60.163375 L66.869394,80.2681538 C66.1697592,80.6711894 65.9298842,81.5627098 66.3339591,82.2605451 C66.739077,82.960233 67.6356179,83.1955299 68.3314882,82.7946028 L103.246126,62.6898239 C103.945761,62.2867884 104.185636,61.395268 103.781561,60.6974327 C103.376058,59.9995974 102.480811,59.7617636 101.784032,60.163375 Z" id="Path"></path>
            <path d="M101.784032,73.1545058 L55.7694722,99.6523165 C55.0698373,100.055352 54.8299623,100.946872 55.2340372,101.644708 C55.6391551,102.34439 56.5356961,102.579687 57.2315663,102.178765 L103.246126,75.6809548 C103.945761,75.2779193 104.185636,74.3863989 103.781561,73.6885636 C103.376058,72.990728 102.480811,72.7514703 101.784032,73.1545058 Z" id="Path"></path>
            <path d="M38.4042481,96.9207896 C32.0761217,100.565199 27.1358427,109.103001 27.1571906,116.356216 L27.1601158,117.598078 C27.1623355,118.409112 27.8237203,119.053564 28.62221,119.053564 C28.8749353,119.053564 29.1276606,118.988053 29.353257,118.858455 L50.4565304,106.70615 C50.9105791,106.444106 51.1890054,105.961318 51.187583,105.437229 L51.1832942,104.196791 C51.1624953,96.3625991 45.207093,92.9981471 38.4042481,96.9207896 Z M30.1399892,115.03745 C30.6782796,109.114394 34.8289708,102.34824 39.8663423,99.4472386 C44.6471566,96.6914676 48.2440632,98.554528 48.2591055,104.20676 L48.2605334,104.602675 L30.1399892,115.03745 Z" id="Shape" fill-rule="nonzero"></path>
            <path d="M39.8463525,93.2792283 C43.2945531,91.2939578 45.9860059,86.6483683 45.9746193,82.7048809 C45.96272,78.1480003 42.322683,76.068441 38.3485625,78.3583635 C34.9089289,80.3407856 32.2246152,84.9892235 32.2360017,88.9412559 C32.2480968,93.561233 35.9639699,95.5148827 39.8463525,93.2792283 Z M39.8106569,80.8848125 C41.8614283,79.70993 43.0445051,80.4557527 43.0504207,82.7134259 C43.058962,85.6101548 40.9215061,89.2915977 38.3842586,90.7527796 C36.3946774,91.9032288 35.1662338,91.218578 35.1602009,88.9327112 C35.1516597,86.028856 37.2819765,82.3417217 39.8106569,80.8848125 Z" id="Shape" fill-rule="nonzero"></path>
            <path d="M58.7821856,50.8024123 C59.1873036,51.5021003 60.0838445,51.7373972 60.7797148,51.3364701 L71.1600123,45.3592967 C71.8596472,44.9562612 72.0995222,44.0647408 71.6954473,43.3669055 C71.2899445,42.6662217 70.3918418,42.426964 69.6979182,42.8328477 L59.3176206,48.8100211 C58.6179855,49.2130566 58.3781108,50.1045767 58.7821856,50.8024123 Z" id="Path"></path>
        </g>
    </g>
</svg>