<?xml version="1.0" encoding="UTF-8"?>
<svg width="96px" height="140px" viewBox="0 0 96 140" version="1.1" xmlns="http://www.w3.org/2000/svg" xmlns:xlink="http://www.w3.org/1999/xlink">
    <title>Layer_1</title>
    <g id="ICONS" stroke="none" stroke-width="1" fill="none" fill-rule="evenodd">
        <g id="Layer_1" fill="#000000">
            <path d="M0.124618749,134.890084 C0.126102371,135.422723 0.427266019,135.909789 0.910908141,136.16614 L7.82877032,139.820558 C8.29680904,140.065626 8.86330458,140.059428 9.32123627,139.803468 L39.2061661,123.240381 C39.6779396,122.981182 39.9672349,122.496965 39.9657512,121.975719 L39.8426155,80.1877438 C39.8415375,79.8596619 39.5341152,79.1791262 39.087481,78.9287784 L32.1696188,75.0692801 C31.6963617,74.8100813 31.1162878,74.8043847 30.645998,75.0692801 L21.2435356,80.2801366 L21.2342632,76.1288618 L74.3666486,46.6827416 L74.37555,50.8331263 L56.793825,60.5769351 C56.4357295,60.7736483 56.2322956,61.1156271 56.1317843,61.4894714 C56.1002585,61.6062534 56.0346109,61.7123538 56.0342399,61.8359005 C56.0342399,61.8369686 56.0349815,61.8376809 56.0349815,61.838749 C56.0349815,62.1750031 56.1544895,103.382423 56.1588592,103.834653 C56.1603429,104.367292 56.4615065,104.854358 56.9451486,105.110708 L63.8630108,108.765126 C64.3310465,109.010194 64.897542,109.003997 65.3554768,108.748036 L95.2404036,92.1849496 C95.712177,91.9257508 96.0014723,91.4415334 96,90.9202873 L95.8768529,49.1323123 C95.8754389,48.6998156 95.4255594,48.0436573 95.1217184,47.8733469 L88.2038562,44.0138487 C87.7305991,43.7518014 87.1505253,43.7518014 86.6802354,44.0138487 L77.4099962,49.1513607 L77.3990548,44.1562658 C77.3975712,43.63502 77.1082762,43.1564992 76.6379861,42.8944519 C76.167696,42.6381016 75.5876224,42.6352531 75.1202995,42.8973004 L49.3196263,57.1970263 L49.3374291,47.0428786 L68.4487094,36.4515112 C70.3610242,35.3919292 71.7985985,32.9993251 71.792664,30.8887066 L71.7244202,8.05642913 C71.7214529,6.77182857 71.1651164,5.72933672 70.2007994,5.19669745 C70.1954215,5.19367108 70.1893017,5.19313703 70.1839238,5.19028859 L61.5071105,0.337432282 C60.5264742,-0.175268738 59.3114346,-0.101211726 58.1676064,0.542512631 L51.8520715,4.04027207 C51.1251248,4.44188772 50.8758858,5.33341768 51.2957346,6.0312605 C51.7155835,6.72625516 52.6442951,6.96551543 53.3712417,6.56389978 L59.6941944,3.06329218 C59.9285975,2.93226855 60.0621186,2.9180269 60.0383816,2.89239174 L65.6492232,6.02841205 L27.1685225,27.3624635 C25.5076718,28.299653 23.8394035,30.6571397 23.8394035,32.9224197 C23.8403192,33.216021 23.9111998,55.8141298 23.9067203,54.3841138 L18.3383459,51.2828074 C18.320543,51.2543241 18.2745526,51.1346937 18.2745526,50.8954334 L18.2018579,28.0688511 C18.2018579,27.0092692 19.0682598,25.565162 20.0207081,25.0353708 L39.9598174,13.9923652 C40.686764,13.5907495 40.936003,12.6992196 40.5161542,12.0013768 C40.0948218,11.3035339 39.1616596,11.0585768 38.4406471,11.4687375 L18.5015379,22.5117431 C16.5981246,23.5656282 15.1635144,25.9553841 15.1635144,28.0745477 L15.2362091,50.90113 C15.2362091,52.1743371 15.7866115,53.2139808 16.7464809,53.7494682 C17.1536729,53.9770349 25.9903984,58.9150964 25.4266325,58.6000101 C25.4294141,58.6016123 25.4314541,58.6042825 25.4342357,58.6058849 C26.483168,59.1832465 27.7279369,59.0201567 28.7915426,58.4292879 L46.2961223,48.728382 L46.2783195,58.8827076 L18.9540252,74.0267877 C18.483735,74.2859865 18.1929564,74.7702039 18.1944401,75.29145 L18.2089047,81.9619019 L0.759585114,91.6323718 C0.40148965,91.829085 0.198055742,92.1710638 0.0975444011,92.5449081 C0.0660185806,92.6616901 -4.62455013e-14,92.7677905 -4.62455013e-14,92.8913372 C-4.62455013e-14,92.8924053 -4.62455013e-14,92.8931175 -4.62455013e-14,92.8941856 C-4.62455013e-14,93.2191858 0.121683408,134.586113 0.124618749,134.890084 Z M59.1942327,102.968758 L59.0799981,64.3785766 L62.9545127,66.5401093 C62.9708146,72.0052693 63.041875,95.8217101 63.0693036,105.013865 L59.1942327,102.968758 Z M66.1076441,104.965443 L65.9934094,66.5385072 L92.84593,51.65594 L92.958681,90.0828761 L66.1076441,104.965443 Z M87.4368533,46.9618787 L91.3265744,49.1321344 C84.630227,52.8428181 69.769012,61.077937 64.4744246,64.0118531 C64.1701141,63.842082 60.280022,61.6718266 60.5843325,61.8415974 L74.3827821,54.1954116 L74.3829675,54.2678661 C74.3844511,55.0710974 75.0639237,55.7233668 75.9021377,55.7233668 C76.6216666,55.7518501 77.4227916,55.0710974 77.4213079,54.2621692 L77.4174137,52.5138236 L87.4368533,46.9618787 Z M27.2723715,55.9056605 C27.1351418,55.9797172 27.0348158,56.0179919 26.9980975,56.0537742 C26.977142,55.992891 26.9504381,55.9117132 26.9504381,55.7433054 C26.9495572,55.4497041 26.8776914,31.4046588 26.8819911,32.9110265 C26.8790127,31.7843223 27.8823426,30.3350607 28.7069786,29.8775462 L68.364146,7.8969219 C68.3780543,7.88944495 68.3786106,7.88855477 68.3919629,7.88179007 C68.5128734,7.82055078 68.5976221,7.78601474 68.650845,7.77123904 C68.6682769,7.83746297 68.6860797,7.92700765 68.6860797,8.06212544 L68.7543312,30.8944029 C68.7572908,31.9511364 67.8879217,33.3952439 66.9295392,33.9278832 L27.2723715,55.9056605 Z M3.15999196,134.024189 L3.04575735,95.4327673 L6.92175551,97.594834 C6.94437413,105.275167 6.99531373,122.572256 7.03506282,136.069296 L3.15999196,134.024189 Z M10.0734033,136.020874 L9.96065228,97.5939439 L36.8116922,82.7113712 L36.9244432,121.138307 L10.0734033,136.020874 Z M18.2163219,85.3241875 L18.2166929,85.5112875 C18.2181765,86.3145244 18.8976491,86.9667938 19.7358631,86.9667938 C19.7373467,86.9667938 19.7373467,86.9667938 19.7388303,86.9667938 C20.578528,86.9639453 21.2565169,86.3116759 21.2550333,85.5055906 L21.2509534,83.6425998 L31.4026156,78.0173099 L35.2923367,80.1877435 C30.2319961,82.9919937 16.2108786,90.7619599 8.44148205,95.0674677 L4.55009197,92.8970341 L18.2163219,85.3241875 Z" id="Shape" fill-rule="nonzero"></path>
            <path d="M32.7140867,89.7866489 L12.6518386,100.906561 C11.924892,101.308177 11.675653,102.199707 12.0955018,102.89755 C12.5185032,103.598541 13.4525577,103.832862 14.1710089,103.430189 L34.2332569,92.3102766 C34.9602035,91.908661 35.2094425,91.017131 34.7895937,90.3192882 C34.3682613,89.6214454 33.4350991,89.3793367 32.7140867,89.7866489 Z" id="Path"></path>
            <path d="M32.7140867,98.2917867 L12.6518386,109.411699 C11.924892,109.813315 11.675653,110.704845 12.0955018,111.402687 C12.5185032,112.103679 13.4525577,112.337999 14.1710089,111.935327 L34.2332569,100.815414 C34.9602035,100.413799 35.2094425,99.5222688 34.7895937,98.824426 C34.3682613,98.1265831 33.4350991,97.8844744 32.7140867,98.2917867 Z" id="Path"></path>
            <path d="M32.7140867,106.796924 L12.6518386,117.916837 C11.924892,118.318452 11.675653,119.209982 12.0955018,119.907825 C12.5185032,120.608817 13.4525577,120.843137 14.1710089,120.440464 L34.2332569,109.320552 C34.9602035,108.918937 35.2094425,108.027407 34.7895937,107.329564 C34.3682613,106.631721 33.4350991,106.389612 32.7140867,106.796924 Z" id="Path"></path>
            <path d="M32.7140867,115.302062 L12.6518386,126.421975 C11.924892,126.82359 11.675653,127.71512 12.0955018,128.412963 C12.5185032,129.113955 13.4525577,129.348275 14.1710089,128.945602 L34.2332569,117.82569 C34.9602035,117.424075 35.2094425,116.532545 34.7895937,115.834702 C34.3682613,115.139707 33.4350991,114.89475 32.7140867,115.302062 Z" id="Path"></path>
            <path d="M88.7483247,58.731212 L68.6860797,69.8511242 C67.9591331,70.2527399 67.7098941,71.1442699 68.1297429,71.8421127 C68.5527443,72.5431154 69.4867988,72.7774301 70.20525,72.3747519 L90.2674949,61.2548397 C90.9944416,60.853224 91.2436806,59.9616941 90.8238318,59.2638512 C90.402499,58.5660084 89.4693369,58.3238997 88.7483247,58.731212 Z" id="Path"></path>
            <path d="M88.7483247,67.23635 L68.6860797,78.3562623 C67.9591331,78.7578779 67.7098941,79.6494079 68.1297429,80.3472507 C68.5527443,81.0482535 69.4867988,81.2825682 70.20525,80.87989 L90.2674949,69.7599777 C90.9944416,69.3583621 91.2436806,68.4668321 90.8238318,67.7689893 C90.402499,67.0711462 89.4693369,66.8290375 88.7483247,67.23635 Z" id="Path"></path>
            <path d="M88.7483247,75.7414878 L68.6860797,86.8614056 C67.9591331,87.2630212 67.7098941,88.1545512 68.1297429,88.852394 C68.5527443,89.5533857 69.4867988,89.7877059 70.20525,89.3850333 L90.2674949,78.2651155 C90.9944416,77.8634998 91.2436806,76.9719699 90.8238318,76.274127 C90.402499,75.5762842 89.4693369,75.3341755 88.7483247,75.7414878 Z" id="Path"></path>
            <path d="M88.7483247,84.2466255 L68.6860797,95.3665433 C67.9591331,95.768159 67.7098941,96.6596889 68.1297429,97.3575318 C68.5527443,98.0585235 69.4867988,98.2928437 70.20525,97.890171 L90.2674949,86.7702588 C90.9944416,86.3686431 91.2436806,85.4771076 90.8238318,84.7792648 C90.402499,84.081422 89.4693369,83.8393133 88.7483247,84.2466255 Z" id="Path"></path>
            <path d="M44.6983223,11.3690462 L48.7588389,9.1217074 C49.4857855,8.7172433 49.7365078,7.82571363 49.3166593,7.12787052 C48.8982941,6.43287586 47.9680989,6.19361559 47.2426359,6.59238279 L43.1821193,8.83972159 C42.4551727,9.24418568 42.2044503,10.1357154 42.6242988,10.8335585 C43.0401604,11.5263793 43.9664207,11.7705312 44.6983223,11.3690462 Z" id="Path"></path>
            <path d="M62.1183386,18.9199893 L31.9990087,35.5998577 C31.272062,36.0014734 31.022823,36.8930033 31.4426718,37.5908462 C31.8656732,38.2918489 32.7997277,38.5261607 33.5181789,38.1234854 L63.6375088,21.443617 C64.3644555,21.0420014 64.6136945,20.1504714 64.1938457,19.4526286 C63.7710296,18.7547858 62.8408347,18.5126768 62.1183386,18.9199893 Z" id="Path"></path>
            <path d="M53.6501513,31.6776959 L40.465712,38.9779867 C39.7387653,39.3824508 39.4895263,40.2739805 39.9093751,40.9718236 C40.326199,41.6625958 41.2464379,41.9098837 41.9848822,41.5073113 L55.1693216,34.2070205 C55.8962682,33.8025564 56.1455072,32.9110268 55.7256584,32.2131837 C55.3058096,31.5153405 54.3770983,31.2789287 53.6501513,31.6776959 Z" id="Path"></path>
        </g>
    </g>
</svg>