<?xml version="1.0" encoding="UTF-8"?>
<svg width="140px" height="140px" viewBox="0 0 140 140" version="1.1" xmlns="http://www.w3.org/2000/svg" xmlns:xlink="http://www.w3.org/1999/xlink">
    <title>upload-literature.1</title>
    <g id="upload-literature.1" stroke="none" fill="none" fill-rule="evenodd" stroke-width="1">
        <g id="Layer_1" transform="translate(18.7781, 6.5969)" fill="#000000">
            <path d="M5.43393391,30.741994 C1.94502746,32.7502118 0.0154872334,36.8556413 4.89975943e-06,42.3024646 C-0.0012800119,42.775821 0.250231045,43.2130632 0.660387196,43.4503862 L9.30591206,48.4419103 C9.71090908,48.675364 10.2152208,48.6766538 10.6253769,48.4432001 C11.0329536,48.2071667 11.2857543,47.7725042 11.2870441,47.3017275 C11.2979721,43.4475547 13.6883915,42.2482627 16.9208885,44.1172125 C20.6690459,46.2802064 23.8264751,51.7463767 23.814867,56.0517275 L23.73103,84.3421953 C23.7284503,85.0722219 24.3178889,85.6642399 25.0479154,85.6668193 C25.0492053,85.6668193 25.0504951,85.6668193 25.0517847,85.6668193 C25.7792316,85.6668193 26.3699597,85.077381 26.3725394,84.3499339 L26.4563764,56.0594661 C26.4705643,50.7467818 22.8617053,44.4964133 18.2416432,41.829108 C13.5908252,39.145005 9.79166267,41.1647504 8.8789884,45.1451826 L2.6582852,41.5530909 C3.01634814,32.770871 9.18318463,29.6800781 16.9492641,34.1677012 C25.5367495,39.1256882 32.5003769,51.1853138 32.4732912,61.0509902 L32.2965887,123.201275 L26.2758044,119.725265 L26.3390047,98.1636866 C26.3415844,97.43366 25.7521458,96.841642 25.0221192,96.8390626 C24.3075703,96.7900502 23.7000747,97.4259215 23.6974952,98.155948 L23.6317156,120.482378 C23.6304257,120.955734 23.8819368,121.392976 24.2920929,121.630299 L32.9505171,126.629562 C33.3636761,126.86752 33.8680433,126.862351 34.269982,126.630852 C34.2836861,126.622952 34.2890064,126.60683 34.3023883,126.598446 L61.711112,110.690381 L68.3787306,114.478361 C68.3800204,114.479167 68.3814714,114.478683 68.3827613,114.479489 C68.3880818,114.482553 68.3927573,114.486906 68.3980775,114.489969 C72.9884741,117.131307 78.4848942,115.801755 83.0540695,113.164055 C93.7800424,106.970438 102.47845,91.9029997 102.44373,79.5750957 C102.425569,73.364061 100.245969,68.6872479 96.308533,66.3959192 C96.3067595,66.3949518 96.3059533,66.3930172 96.3041801,66.3920499 C96.3019229,66.3905989 96.2993432,66.389309 96.2970863,66.3880192 C96.0324757,66.2368155 88.0120691,61.6810319 88.2764678,61.8326086 C87.4801779,61.3671522 86.6227836,61.0414778 85.7344342,60.7986729 L85.8116608,31.5945509 C85.8387466,20.8969536 78.2792316,7.80935788 68.9630095,2.42315505 C64.1920412,-0.355073104 59.6209915,-0.758780273 56.0908101,1.28684161 C44.3612976,8.10734497 13.7623054,25.9456352 5.43393391,30.741994 Z M99.8022121,79.5828353 C99.8343612,91.0672105 91.7292611,105.105388 81.7333147,110.875952 C72.2555453,116.349407 64.8716452,112.157246 64.8716452,101.277263 C64.835651,89.7877291 72.9407513,75.7508359 82.940567,69.985432 C86.6022675,67.8660948 91.2623133,66.5552101 94.9236107,68.6446853 L94.9666578,68.6691913 C98.0700767,70.4673334 99.7879284,74.341085 99.8022121,79.5828353 Z M88.654379,65.0841937 C86.3714339,65.427648 83.6037155,66.541133 81.6107838,67.6921683 C70.8848109,73.8857858 62.186403,88.9532287 62.2212276,101.281133 C62.2296062,104.121906 62.7925079,106.870953 63.5277945,108.684582 L61.6653241,107.626946 C61.6577464,107.622594 61.6514588,107.616144 61.6438811,107.611791 C58.0389418,105.489849 56.843939,100.868327 56.843939,96.7178221 C56.8316946,92.6978092 57.8191973,87.7511055 60.4180878,82.2224101 C63.5923147,75.516939 68.824316,68.8179215 75.3010845,65.211884 C78.8562054,63.2504919 83.4222467,62.0572761 86.9582925,64.1207137 L88.654379,65.0841937 Z M57.4180141,3.57107659 C60.089189,2.01815803 63.7173949,2.42315505 67.6370956,4.70739056 C76.2271604,9.67440856 83.1946575,21.7327443 83.1702158,31.5868129 L83.0940532,60.3985133 C80.0474157,60.2966797 76.7317643,61.3934122 74.030632,62.8902447 C74.0280523,62.8915345 74.0267627,62.8928244 74.024183,62.894114 C68.3667191,66.0665573 63.6425816,71.3114211 60.3402161,76.7700998 L40.1514678,88.7533098 C39.5246252,89.1260619 39.3182573,89.9360559 39.6897195,90.5641884 C40.0649959,91.1935502 40.8755946,91.3956053 41.5005981,91.0259366 L57.9518299,81.2611868 C55.2570758,87.016222 54.1749442,92.5391737 54.1922255,96.7307198 C54.1922255,97.4892831 54.2338216,98.1786809 54.2973441,98.8327706 C54.3107257,98.9881915 54.3321687,99.1373245 54.3486137,99.2906493 L40.1527576,107.692726 C39.525915,108.064188 39.3182573,108.874182 39.6897195,109.502315 C40.0626983,110.133057 40.8746927,110.334789 41.4993083,109.965353 L54.8553437,102.060171 C55.5504447,104.770564 56.8972022,107.309696 59.0989452,109.050723 C59.1221617,109.069426 59.1397352,109.095705 59.1631128,109.114085 L34.9419674,123.1729 L35.1212496,61.0471206 C35.1482447,50.3822519 27.551794,37.2406661 18.2532513,31.8654089 C16.4942319,30.8799618 14.5607215,30.0492829 12.5536273,29.6843579 L57.4180141,3.57107659 Z" id="Shape" fill-rule="nonzero"></path>
            <path d="M25.0259885,94.5264525 C25.0272784,94.5264525 25.0285682,94.5264525 25.0298578,94.5264525 C25.7573047,94.5264525 26.3480328,93.9370142 26.3506125,93.2095671 L26.3609395,89.3582257 C26.3635107,88.6281992 25.7727823,88.0361812 25.0440456,88.0336118 C24.3075701,88.0452098 23.722001,88.6217502 23.7194216,89.3504869 L23.7090947,93.2018283 C23.7065236,93.9318551 24.2972518,94.5238731 25.0259885,94.5264525 Z" id="Path"></path>
            <path d="M34.4570027,37.5044105 L70.909317,16.3246149 C71.5400289,15.9583117 71.7554255,15.1508974 71.3878325,14.5201852 C71.0202395,13.8868937 70.207666,13.6727869 69.5834029,14.0416697 L33.1310886,35.2214678 C32.5003767,35.5877709 32.2849801,36.3951829 32.652573,37.0258947 C33.0212998,37.6624312 33.8332789,37.8685722 34.4570027,37.5044105 Z" id="Path"></path>
            <path d="M39.6974584,52.6221507 C40.0742208,53.2559764 40.8881449,53.4534971 41.5070471,53.0851888 L76.2220013,32.4948317 C76.8501338,32.1220796 77.0565017,31.3120856 76.6850394,30.685243 C76.3097079,30.0558207 75.4958443,29.8481632 74.8754507,30.2222049 L40.1604962,50.812562 C39.532364,51.1853141 39.3259961,51.9953081 39.6974584,52.6221507 Z" id="Path"></path>
            <path d="M74.8754507,49.1861246 L40.1604965,69.7777742 C39.532364,70.1505263 39.3259961,70.9605204 39.6974584,71.587363 C40.0742208,72.2211887 40.8881449,72.4187094 41.5070471,72.0504011 L76.2220013,51.4587515 C76.8501338,51.0859994 77.0565017,50.2760053 76.6850394,49.6491627 C76.3097076,49.0184509 75.4958443,48.8133728 74.8754507,49.1861246 Z" id="Path"></path>
            <path d="M83.3171886,74.7422125 C83.0231144,74.3888073 82.575554,74.2224234 82.1086466,74.2817541 C81.6533473,74.3501135 81.2664073,74.6506367 81.0871252,75.073691 L73.6230553,92.7400803 C73.4012097,93.2637389 73.5392183,93.8686549 73.9648521,94.2452763 C74.3917758,94.6206078 75.0095897,94.6812286 75.4997136,94.3987625 L77.9322754,92.9941707 L77.9671,105.270483 C77.9698812,106.286744 79.07269,106.914937 79.9482321,106.410665 L86.1199229,102.846949 C86.530079,102.609626 86.7815901,102.172384 86.7803002,101.699028 L86.7416063,87.9072013 L90.4846046,85.746787 C91.1916466,85.3392909 91.36454,84.3862903 90.8380098,83.7566263 L83.3171886,74.7422125 Z M84.7578946,86.0021677 C84.3477384,86.2394909 84.0962273,86.6767328 84.0975172,87.1500892 L84.1362111,100.941916 L80.6021604,102.982378 L80.5673358,90.7060665 C80.5653708,89.9874668 79.9836209,89.389181 79.2465811,89.389181 C79.0182866,89.389181 78.789992,89.4485117 78.5862038,89.5658835 L77.5878989,90.1424238 L82.6774478,78.0982759 L87.804401,84.2441707 L84.7578946,86.0021677 Z" id="Shape" fill-rule="nonzero"></path>
        </g>
    </g>
</svg>