<?xml version="1.0" encoding="UTF-8"?>
<svg width="140px" height="140px" viewBox="0 0 140 140" version="1.1" xmlns="http://www.w3.org/2000/svg" xmlns:xlink="http://www.w3.org/1999/xlink">
    <title>Communication</title>
    <g id="Communication" stroke="none" fill="none" fill-rule="evenodd" stroke-width="1">
        <g id="Layer_1" transform="translate(6.6036, 9.4753)" fill="#000000">
            <path d="M7.91564748,64.6342827 L18.5268294,70.6705447 C18.5369865,70.6763489 18.5485946,70.673608 18.558752,70.6790897 C18.5642337,70.6823142 18.5690706,70.6866674 18.574552,70.6898919 C20.7078804,71.9177812 23.1159362,72.5278563 25.7110129,72.5265684 C29.3546965,72.5265684 33.3672629,71.3231835 37.4984883,68.9383442 C51.5353764,60.8332439 62.9178574,41.0941521 62.8715663,24.9368334 C62.8494981,16.8704273 60.0274166,10.8122387 54.9262596,7.87665505 C54.9035268,7.86359595 54.8785371,7.85634078 54.8558042,7.84344282 C54.816949,7.82135505 54.7785776,7.79894474 54.7392386,7.77734063 L44.3576422,1.87005886 C39.217791,-1.11840676 32.4889095,-0.509621256 25.4040407,3.58549233 C22.7792985,5.09589712 20.6885335,6.77645791 18.8015567,8.38483788 C17.7800353,9.28640776 16.7843102,10.2460187 15.8182505,11.2520624 C15.3139388,11.7783005 15.330706,12.6140907 15.8569443,13.119692 C16.3844723,13.6227139 17.2189726,13.6059464 17.7245742,13.0809981 C18.6390418,12.1265466 19.5831751,11.2185277 20.5324676,10.3801578 C22.5806691,8.63505908 24.4173437,7.20080188 26.7247951,5.87359818 C32.9558166,2.27118818 38.7444344,1.65982324 43.0407568,4.15945456 L46.4329296,6.09028437 C46.3897213,6.09366999 46.3440945,6.10592316 46.3007252,6.10963131 C39.7212561,6.67745546 33.2724853,10.7952451 28.4494184,15.3115447 C18.0990996,25.0019699 10.583114,40.4755309 10.6113285,53.58328 C10.6255931,56.9186461 11.265942,61.0585903 12.7772243,64.2242872 C12.8044713,64.2811996 12.8226897,64.3469795 12.8504206,64.4034082 L9.23382276,62.346178 C5.01488842,59.8826608 2.67261261,54.6228584 2.64165729,47.5392792 C2.62617963,39.9436498 5.39150982,30.9795457 10.2269682,22.9453844 C10.6035896,22.3211215 10.4023811,21.5085478 9.77682808,21.133216 C9.15127533,20.752725 8.34128129,20.9578031 7.96465963,21.5833561 C2.8119105,30.1424658 -0.0166199169,39.3619503 7.34702557e-05,47.5483079 C0.0362620454,55.6082656 2.84286582,61.6741927 7.91564748,64.6342827 Z M60.2300482,24.9445741 C60.2737683,40.2583613 49.4845951,58.9669037 36.1777333,66.6502394 C23.2730069,74.0988771 13.3057233,68.2330601 13.2630302,53.5781211 C13.2355854,43.66182 17.7843872,32.3294824 24.6080715,23.4806517 C39.7230848,3.88386852 60.1702869,3.19258497 60.2300482,24.9445741 Z" id="Shape" fill-rule="nonzero"></path>
            <path d="M12.6066483,19.3042808 C13.1922174,18.4749398 13.7984232,17.6662353 14.4226861,16.8768781 C14.875407,16.3054969 14.778672,15.4748661 14.2059996,15.0221465 C13.6359083,14.568137 12.8039876,14.6674515 12.351268,15.2388327 C11.6986295,16.0643044 11.064048,16.9117027 10.4501034,17.7771581 C10.0283389,18.3730454 10.170217,19.1972275 10.7648144,19.6189918 C11.3609426,20.0395925 12.1846194,19.8993418 12.6066483,19.3042808 Z" id="Path"></path>
            <path d="M36.0577821,38.0966575 C31.0004807,41.0167638 27.0524044,47.8565705 27.0691184,53.669697 L27.0717513,54.6551039 C27.0737565,55.3876497 27.6715359,55.9719893 28.392506,55.9719893 C28.6208006,55.9719893 28.8490952,55.9126586 29.0528834,55.7952869 L45.7635235,46.1475863 C46.1736797,45.910263 46.4251907,45.4730211 46.4239058,44.9996647 L46.4213212,44.012968 C46.4054407,37.7544576 41.6320387,34.8836459 36.0577821,38.0966575 Z M43.7798117,44.2425521 L29.7932282,52.3179869 C30.3452625,47.7895007 33.590398,42.5709719 37.3785368,40.3847618 C41.1096446,38.2318748 43.7690854,39.7184796 43.7798117,44.0207065 L43.7798117,44.2425521 Z" id="Shape" fill-rule="nonzero"></path>
            <path d="M37.3617693,35.487393 C40.137418,33.8841721 42.3055708,30.1347275 42.2965705,26.9502125 C42.2856697,23.2040125 39.2543688,21.4862011 36.0139288,23.3594106 C33.2447317,24.9574723 31.0830276,28.709499 31.0920281,31.9030427 C31.1028963,35.6242628 34.1214981,37.3588065 37.3617693,35.487393 Z M37.3346835,25.6475149 C38.7581031,24.8240484 39.6493447,25.2004658 39.6550517,26.9579513 C39.6614819,29.2060719 38.0066693,32.0655576 36.0410146,33.1992887 C34.5270997,34.0691679 33.7388886,33.530082 33.7335469,31.8953039 C33.7271168,29.6381547 35.3754805,26.7773793 37.3346835,25.6475149 Z" id="Shape" fill-rule="nonzero"></path>
            <path d="M118.848729,56.3976229 C118.823739,56.3832739 118.796008,56.3752126 118.770857,56.3610247 C118.734098,56.3400654 118.697661,56.3187838 118.660418,56.2983082 L108.278822,50.3910264 C99.9698425,45.5533409 90.014041,50.6909954 82.7227337,56.9058038 C71.6240036,66.7082803 63.8929453,82.8114273 63.9212431,96.0666971 C63.9561455,104.129234 66.7627493,110.195161 71.8368205,113.153961 L82.4480064,119.191513 C82.4589697,119.197801 82.4718677,119.194898 82.4829922,119.200864 C82.4875065,119.203443 82.4912146,119.20699 82.495729,119.20957 C88.3978717,122.604645 95.4951046,120.878097 101.419668,117.458022 C115.456556,109.354212 126.839037,89.6151199 126.792746,73.4565114 C126.770678,65.3913951 123.948596,59.3332068 118.848729,56.3976229 Z M73.1549961,110.864567 C68.9347719,108.40363 66.5924961,103.143827 66.5627561,96.0589583 C66.5357448,83.5092087 73.9005,68.2225049 84.4536448,58.9011237 C90.7963147,53.4970754 99.7314713,48.4729284 106.961936,52.6804205 L110.354109,54.6112503 C110.311385,54.614636 110.266242,54.626728 110.223356,54.6304361 C102.395159,55.3034093 94.8766963,60.8862963 89.5552858,66.7106986 C80.6906548,76.4107972 74.5068673,90.2221316 74.532502,102.104249 C74.5513503,106.497487 75.5528292,110.442037 76.7715942,112.923087 L73.1549961,110.864567 Z M100.098913,115.169918 C93.8743407,118.76201 88.0921693,119.379824 83.8139043,116.920176 C78.8228234,114.048377 77.2009813,107.831291 77.1842051,102.09909 C77.1580502,92.6387326 81.2896055,81.87987 87.5941454,73.226121 C102.968254,52.1289257 124.091139,51.5969386 124.151228,73.4642502 C124.194948,88.7793299 113.405775,107.487872 100.098913,115.169918 Z" id="Shape" fill-rule="nonzero"></path>
            <path d="M99.9789617,86.616336 C94.9216577,89.5377318 90.9735814,96.3775388 90.9902957,102.189375 L90.9929286,103.176072 C90.9949338,103.908618 91.5927156,104.492958 92.3136833,104.492958 C92.5419779,104.492958 92.7702725,104.433627 92.9740607,104.316255 L109.684703,94.6685546 C110.09486,94.4312313 110.346371,93.9939894 110.345086,93.520633 L110.342501,92.5339363 C110.326479,86.2212644 105.511547,83.4262083 99.9789617,86.616336 Z M107.700992,92.7635207 L93.7144055,100.838956 C94.2664398,96.3104693 97.5115753,91.0919405 101.299716,88.9044405 C105.021735,86.7537703 107.69024,88.2332409 107.700992,92.5416751 L107.700992,92.7635207 L107.700992,92.7635207 Z" id="Shape" fill-rule="nonzero"></path>
            <path d="M101.282949,84.0083613 C104.058598,82.4051405 106.226751,78.6556932 106.21775,75.4711782 C106.206819,71.7174837 103.167346,70.0103586 99.9351087,71.8803763 C97.1646194,73.478438 95.0029153,77.2304647 95.0119158,80.4240084 C95.0227158,84.1196671 98.0178116,85.8893123 101.282949,84.0083613 Z M101.255863,74.1684809 C102.673273,73.3484908 103.57054,73.7268403 103.576232,75.4789173 C103.582662,77.7270378 101.927849,80.5865236 99.9621945,81.7202573 C98.5074315,82.5650458 97.6589652,82.1079831 97.6534346,80.4162701 C97.6470042,78.1591206 99.296658,75.2983453 101.255863,74.1684809 Z" id="Shape" fill-rule="nonzero"></path>
            <path d="M71.2667294,12.6785806 C88.3783436,16.6727673 89.84936,29.0917632 89.9765664,39.266828 L85.5473948,35.5054501 C84.9927811,35.035963 84.1595706,35.1017429 83.6849244,35.6576464 C83.2128579,36.21355 83.2812172,37.0480504 83.8371208,37.5201169 L90.5157027,43.1900757 C91.1116808,43.6963421 92.0198709,43.5746425 92.4607203,42.9282464 L97.0433781,36.2238685 C97.4561139,35.6215323 97.3013381,34.7999298 96.6990016,34.3884838 C96.0966651,33.9770378 95.2750629,34.1305238 94.8636169,34.7328603 L92.5980841,38.0471614 C92.3423812,27.577861 90.1803549,14.3809549 71.8677761,10.1067203 C71.1480681,9.94033614 70.4464171,10.3827375 70.2813228,11.0921272 C70.1149386,11.8028069 70.5573397,12.5134862 71.2667294,12.6785806 Z" id="Path"></path>
            <path d="M42.0992029,85.7624887 C42.6241514,85.2543077 42.6370493,84.4185175 42.1301582,83.8948588 L36.3712033,77.9463035 C35.768479,77.3266859 34.7873471,77.4506374 34.3320327,78.1191366 L29.7506648,84.8235145 C29.337929,85.4258507 29.4927048,86.2474532 30.0950413,86.6588992 C30.6982065,87.0712319 31.5197962,86.9159521 31.930426,86.3145227 L34.1959588,82.9990929 C34.4518228,93.4683956 36.6138468,106.665302 54.9262591,110.940665 C55.0281532,110.963882 55.1287577,110.97549 55.2280722,110.97549 C55.827829,110.97549 56.3708346,110.564044 56.5127124,109.955258 C56.6790966,109.244579 56.2379851,108.533899 55.5273055,108.368805 C38.6576951,104.429918 36.9899842,92.3037068 36.8240837,82.2119928 L40.2315728,85.7315333 C40.7397543,86.2590615 41.5755445,86.2693801 42.0992029,85.7624887 Z" id="Path"></path>
        </g>
    </g>
</svg>