<?xml version="1.0" encoding="UTF-8"?>
<svg width="122px" height="140px" viewBox="0 0 122 140" version="1.1" xmlns="http://www.w3.org/2000/svg" xmlns:xlink="http://www.w3.org/1999/xlink">
    <title>Layer_1</title>
    <g id="ICONS" stroke="none" stroke-width="1" fill="none" fill-rule="evenodd">
        <g id="Layer_1" transform="translate(0, 0)" fill="#000000">
            <path d="M14.7970461,123.523777 L36.9945783,136.460431 C37.02027,136.474669 37.0459614,136.490331 37.0716531,136.504569 C37.1189327,136.531977 37.1726353,136.523434 37.2213423,136.544969 C37.2400757,136.555826 37.2555979,136.570776 37.274331,136.581454 C41.253672,138.866654 45.7568361,140 50.6168274,140 C57.5278636,140 65.1639736,137.707681 73.0498628,133.165756 C100.128793,117.569442 122.087962,79.6166072 121.999735,48.5620876 C121.956649,33.2633478 116.658474,21.8117178 107.082649,16.3144229 C95.5602408,9.68968191 93.2962033,8.3091346 84.9907407,3.4859788 C75.713224,-1.90737879 63.4697564,-1.02035093 50.5154885,5.9932921 C49.8061153,6.37771821 49.5420627,7.26189836 49.9274366,7.96952742 C50.3099558,8.67858034 51.2005975,8.93913569 51.9085433,8.55613344 C63.9336323,2.05078757 75.1608548,1.14525018 83.5163293,6.00468236 L95.4675551,12.97045 C88.0992443,12.548293 79.8381507,14.806263 71.272862,19.73724 C55.4868105,28.82892 41.4807932,45.5317055 32.532985,64.0197591 C26.1232885,77.2128755 22.2684803,91.314021 22.2732976,104.241242 C22.2961346,113.853322 24.3814349,121.950477 28.2908378,128.010173 L16.2700307,121.005073 C7.66905909,116.01038 2.92896178,105.445778 2.92325232,91.2576024 C2.89185146,67.8688263 15.8832297,39.6263131 35.248978,20.9802177 C35.8298934,20.4206641 35.8470209,19.498041 35.2860881,18.918554 C34.7265823,18.3419146 33.8016854,18.3234051 33.2193427,18.8815352 C13.3169255,38.043047 -0.0327076288,67.1298739 6.01883908e-05,91.2590266 C0.00582976666,106.527866 5.26118628,117.986616 14.7970461,123.523777 Z M119.076594,48.5706301 C119.161976,78.6925602 97.8593699,115.509202 71.5882971,130.639933 C45.8451786,145.463791 25.3507707,133.847 25.267538,104.27399 C25.2317545,91.6315282 29.0025297,77.8201261 35.2944731,64.9178212 C44.0158739,47.1025135 57.5728237,31.0420402 72.8172111,22.2972336 C98.8169056,7.41914502 118.994144,19.3788871 119.076594,48.5706301 Z" id="Shape" fill-rule="nonzero"></path>
            <path d="M43.921315,10.061091 C42.2099701,11.2456932 40.4786426,12.5513186 38.7758615,13.9409482 C38.1506996,14.4520928 38.0579244,15.3704443 38.5689015,15.9926452 C38.8586455,16.3457465 39.2782747,16.527993 39.7021858,16.527993 C40.0276125,16.527993 40.3544665,16.4197841 40.6256556,16.1990949 C42.2699171,14.8564523 43.9398702,13.5978121 45.5884134,12.4559241 C46.2521127,11.9974601 46.4162533,11.0890753 45.9552322,10.4270078 C45.4942108,9.76778781 44.5850143,9.60120313 43.921315,10.061091 Z" id="Path"></path>
            <path d="M101.224254,55.4296127 C99.2813278,41.9036106 89.1479378,35.8562945 76.3653264,40.6745868 L76.3455225,33.681945 C76.3440951,33.1622576 76.0643424,32.682437 75.6133123,32.4218813 C75.1608548,32.1613257 74.6027767,32.1655972 74.1531739,32.4233052 L68.4910341,35.6838092 C68.0371496,35.9457887 67.7588239,36.428457 67.7602513,36.9509919 L67.7839804,45.3464334 C54.5019663,54.8684573 44.1878654,72.9711948 42.9023941,89.0197439 L34.982071,93.5812459 C34.5281865,93.8432254 34.2498608,94.3258938 34.2512827,94.8484286 L34.2698433,101.315332 C34.2712707,101.835019 34.5510234,102.31484 35.0020535,102.575396 C35.4465715,102.83079 36.004728,102.836797 36.4621919,102.573972 L43.3254133,98.6213226 C44.4900985,104.684401 47.4435604,109.308372 51.8014954,111.751792 C54.1351475,113.061689 56.8027905,113.713789 59.6816754,113.713789 C62.3011467,113.713789 65.0990316,113.144625 67.9732777,112.065206 C67.9738632,112.360277 67.9911357,121.044461 67.9900486,120.495352 C67.991476,121.01504 68.2712287,121.49486 68.7222588,121.753992 C69.1689513,122.013458 69.7286351,122.014693 70.1823972,121.753992 L75.8531008,118.487793 C76.3069854,118.225814 76.5853111,117.743145 76.5838837,117.22061 L76.5838837,117.217763 L76.5838837,117.217763 L76.5553376,107.400656 C89.4327093,98.1667739 99.4743723,81.0537559 101.294728,65.2342609 L109.360637,60.5889328 C109.814521,60.3269533 110.092847,59.8442849 110.091425,59.3217501 L110.072865,52.8548469 C110.071437,52.3351594 109.791685,51.8553388 109.340654,51.5947831 C108.889624,51.3342275 108.331546,51.3384991 107.880516,51.596207 L101.224254,55.4296127 Z M73.4295273,36.2077679 L73.4694921,50.4842187 L70.7290564,52.0630359 C70.7281753,51.7694217 70.6833935,36.8392348 70.6862372,37.786763 L73.4295273,36.2077679 Z M37.177274,95.6841994 L49.6676661,88.4911576 L49.67623,91.5964672 C37.0435919,98.8455377 52.0271997,90.2418432 37.1858379,98.789509 L37.177274,95.6841994 Z M73.657897,116.381992 L70.9131794,117.962411 C70.9125884,117.668797 70.8827377,102.742703 70.8846333,103.690231 L73.6122233,102.109812 L73.657897,116.381992 Z M76.5446322,103.773702 L76.5325,99.5797185 C76.5310727,99.0600311 76.2513199,98.5802104 75.8002898,98.3196548 C75.5728123,98.188665 75.3185726,98.125662 75.0648682,98.1270858 C74.8109855,98.1267298 74.5574594,98.191157 74.3301602,98.3225025 L72.9751075,99.1070168 L68.6780117,101.581583 C68.2241271,101.843562 67.9458014,102.32623 67.9472288,102.848765 L67.9615019,107.888664 L67.9615019,108.956871 C62.3607365,111.317533 57.1596178,111.411504 53.2330873,109.210308 C49.4171733,107.070157 46.8731712,102.782381 46.0083996,97.0761431 C46.3024254,96.9073114 52.2600575,93.4862742 51.8814246,93.7036928 C52.3367365,93.4431372 52.6179166,92.9576211 52.6150622,92.4322386 L52.5850887,85.9596399 C52.5790004,84.8522233 51.3791341,84.1420247 50.3927401,84.7038475 L46.0051882,87.2282465 C47.7962841,73.186011 56.5194692,57.8678717 67.7943283,48.9664471 L67.810207,54.5904602 C67.8131953,55.6887278 69.0127605,56.4213623 70.0068374,55.8533716 L75.6775411,52.5885964 C76.1314256,52.3266169 76.4097513,51.8439485 76.4083239,51.3214137 L76.3826322,43.7866597 C88.2390088,38.7753257 97.1971649,44.1752182 98.4916684,57.0009551 C98.198858,57.1697145 92.0817518,60.6952566 92.4712737,60.4707577 C92.0173892,60.7327372 91.7390635,61.2154056 91.7404909,61.7379404 C91.7411489,62.0373668 91.755645,68.609626 91.7547639,68.2091152 C91.7547639,68.7302262 92.0330893,69.211471 92.4855468,69.4720266 C92.9394313,69.7311584 93.494655,69.7325823 93.9485399,69.4706028 L98.1020126,67.0743461 C95.8541775,80.625192 87.2483885,95.2787721 76.5446322,103.773702 Z M94.6778954,65.6774191 L94.6778954,62.5751351 C94.9713079,62.4059698 107.987363,54.901872 107.156869,55.3806694 L107.165433,58.485979 L94.6778954,65.6774191 Z" id="Shape" fill-rule="nonzero"></path>
        </g>
    </g>
</svg>