<?xml version="1.0" encoding="UTF-8"?>
<svg width="140px" height="140px" viewBox="0 0 140 140" version="1.1" xmlns="http://www.w3.org/2000/svg" xmlns:xlink="http://www.w3.org/1999/xlink">
    <title>Group</title>
    <g id="ICONS" stroke="none" stroke-width="1" fill="none" fill-rule="evenodd">
        <g id="indication.1" fill="#000000">
            <g id="Layer_1" transform="translate(29.8867, 6.1561)">
                <path d="M0.120869821,45.8552758 L6.42557118,57.8252602 L0.124739368,77.2838209 C-0.0674407455,77.874549 0.180200764,78.5194487 0.716757368,78.8315803 L9.64474967,84.0204439 C10.0073219,84.2302378 10.4282776,84.2495446 10.7810631,84.1120197 C10.8181449,84.0978319 10.8424898,84.0647808 10.8777981,84.0475297 C10.9069799,84.0333418 10.9409983,84.0394683 10.9693739,84.0230236 L22.9272666,77.1187268 L22.8993746,94.0652415 C20.8192504,94.6474247 18.888098,95.3853515 17.222322,96.3470582 C13.187829,98.6944934 10.9655047,101.894486 10.9655047,105.360177 C10.9655047,105.374526 10.9688903,105.388553 10.9688903,105.402902 L10.4753808,115.166523 C10.4663521,118.66317 12.7170523,121.891538 16.8134557,124.25832 C24.716778,128.821197 37.5486357,128.836655 45.4031521,124.271218 C49.4337756,121.928942 51.6599695,118.736688 51.6677083,115.347095 L52.1320363,106.184359 C52.5366907,101.944133 49.498961,98.4730306 45.8081491,96.3457681 C44.0212932,95.3115102 41.9148891,94.5339222 39.6250114,93.9409369 L39.6775708,67.4474872 L45.2212903,64.2465272 C45.853292,63.8815139 46.0699785,63.0740993 45.7049652,62.4420975 C45.338662,61.8075161 44.5273782,61.5921198 43.9005356,61.9584226 C-17.1092593,97.1748571 33.9191196,67.6934859 12.6241869,80.0169059 L18.0374755,63.2959449 C18.1237208,63.0318129 18.0950931,62.6128146 17.9692773,62.3408482 C17.8461568,62.0747161 11.8668175,50.6658398 11.9770297,50.9375693 L65.1299855,20.2492108 L77.1231864,27.4885332 L64.263885,50.2019004 L60.3648211,52.4526007 C59.7328194,52.817614 59.5161329,53.6250286 59.8811462,54.2570303 C60.2448696,54.889032 61.0522842,55.1018489 61.6855758,54.7407052 L65.8967713,52.309433 C66.1005596,52.1907714 66.2695234,52.0205179 66.3856054,51.8167297 L80.0549008,27.6729747 C80.4070161,27.0500017 80.2006482,26.2606441 79.5879934,25.8904717 L65.8271221,17.5841626 C65.8232528,17.5817443 65.818416,17.5828728 65.8145467,17.5806156 C65.8116447,17.5790032 65.8106774,17.5754565 65.8077752,17.5738441 L56.8797829,12.3862704 C56.4709163,12.1476575 55.965315,12.1476575 55.5564485,12.3836907 L39.7610848,21.5032183 L39.7847849,5.43425075 C39.7847849,5.4329609 39.7847849,5.4329609 39.7847849,5.43167105 C39.7847849,4.05773667 38.9757682,2.49300765 37.0323527,1.37009222 C33.8620255,-0.45884348 28.9066156,-0.457553631 25.7491863,1.3791209 C24.007957,2.39161358 23.0483462,3.81684211 23.0509257,5.39297716 C23.0509257,17.7155328 23.027019,21.3981372 23.0123929,31.1730064 L0.629050802,44.095989 C0.0099974809,44.4550423 -0.136492972,45.3684321 0.120869821,45.8552758 Z M49.0274882,115.276156 C49.0210393,117.752571 47.2617528,120.136121 44.0759479,121.988273 C36.9523852,126.12337 25.3171036,126.115631 18.1342099,121.970216 C14.8916538,120.097427 13.1104407,117.684212 13.1155889,115.237462 L13.3193883,111.218447 C13.3338987,111.235214 13.3548577,111.249563 13.3695292,111.26633 C14.4763636,112.531614 16.0644143,113.708687 17.3074484,114.430048 C19.6473059,115.775308 22.4323056,116.67446 25.3685343,117.226172 C33.2602635,118.714237 43.6525108,117.474398 49.1951623,111.952343 L49.0274882,115.276156 Z M39.6222703,96.6204957 C41.4331489,97.1351256 43.0634555,97.8096908 44.4873942,98.632583 C49.6616719,101.616 49.2271908,104.753558 49.518096,105.5738 C49.2118442,113.913231 30.0421836,118.719377 18.6333628,112.134204 C15.3908067,110.261415 13.6095935,107.848201 13.6160425,105.338251 C13.6160425,105.329383 13.6112056,105.322128 13.6112056,105.313261 C13.6332934,102.844585 15.3825842,100.472966 18.546946,98.632583 C19.8375516,97.8869177 21.2955087,97.2623323 22.8948603,96.7673718 L22.8780928,106.945341 C22.8780928,108.521476 23.8699487,109.998297 25.5969902,110.992732 C28.8738569,112.899197 33.8836851,112.768917 36.8775769,110.995312 C38.6329941,109.984109 39.5990538,108.56404 39.5990538,107.000803 L39.6222703,96.6204957 Z M37.0323527,68.9788019 L36.9575443,106.998223 C36.9575443,107.572183 36.4480735,108.195157 35.5452138,108.714946 C33.233893,110.082133 29.2845268,110.079554 26.9190345,108.707207 C26.0303626,108.193867 25.5196019,107.551546 25.5196019,106.94792 C25.5385458,95.4332249 25.5522449,87.1071055 25.571194,75.5922489 C25.8430143,75.4354022 37.7863414,68.5437313 37.0323527,68.9788019 Z M25.6975945,9.3810375 C25.7285498,9.3990946 25.758215,9.41457226 25.7891703,9.43133977 C26.0150466,9.56031965 26.2675247,9.65915067 26.5098457,9.76991207 C29.8857801,11.3247478 34.2774216,11.0514792 37.069757,9.43004992 C37.086202,9.42053758 37.0970039,9.40828467 37.1132877,9.39861094 C37.1210266,9.39393546 37.1290877,9.38974365 37.1368265,9.38490678 L37.1174796,23.0271164 L25.6576108,29.637339 L25.6975945,9.3810375 Z M27.0776799,3.66206656 C29.4162024,2.30438011 33.3692514,2.30386871 35.711598,3.65819727 C37.6307642,4.76583158 37.5516431,6.0981326 35.7373939,7.1432355 C33.4405835,8.48511067 29.5218501,8.48930248 27.1184698,7.14388029 C27.1146005,7.14162312 27.1099248,7.14033327 27.1060555,7.13807611 C25.3914436,6.14937444 25.1213917,4.79903112 27.0776799,3.66206656 Z M9.22459725,51.3801323 L13.4702948,59.4381548 L8.84507363,56.7502126 L4.60034337,48.6928349 C4.86512775,48.8467139 9.52076012,51.5522448 9.22459725,51.3801323 Z M8.60517122,59.6664494 L15.1960468,63.4958641 L9.55704337,80.9146067 L2.96616775,77.0839022 L8.60517122,59.6664494 Z M56.2142464,15.053576 L62.5097579,18.7114474 L10.2180655,48.9024273 C9.87871714,48.7051636 3.64249876,45.0799904 3.92448861,45.2439109 L56.2142464,15.053576 Z" id="Shape" fill-rule="nonzero"></path>
                <path d="M56.9984445,55.9221612 C56.6321414,55.2888697 55.8234372,55.0708936 55.1940149,55.4384863 L49.8929439,58.4991806 C49.2609422,58.8641939 49.0442557,59.6716085 49.409269,60.3036102 C49.7752245,60.9372949 50.5850976,61.1503939 51.2136987,60.7872851 L56.5147696,57.7265909 C57.1467713,57.3615776 57.3634578,56.554163 56.9984445,55.9221612 Z" id="Path"></path>
            </g>
            <g id="GOV.UK" transform="translate(51.6667, 34.5851)">
                <path d="M5.22701967,31.2606226 C4.79098794,31.8113541 4.25488336,32.2856178 3.61870593,32.6834138 C2.57151498,33.3382128 1.71374765,33.4982255 1.04540393,33.1634519 C0.348467978,32.842849 0,32.0262675 0,30.7137073 C0,29.386316 0.352042009,28.1020495 1.05612603,26.860908 C1.76021004,25.6197665 2.691245,24.6371567 3.8492309,23.9130787 C4.85353348,23.2850974 5.66037087,23.0447699 6.26974308,23.1920961 C6.87911529,23.3394223 7.22847678,23.7800306 7.31782754,24.5139212 L5.69343066,25.5296418 C5.56833959,25.0479827 5.26275998,24.8478863 4.77669182,24.9293525 C4.5050655,24.9768406 4.20305992,25.1045033 3.87067508,25.3123405 C3.23449764,25.7101365 2.71179568,26.2863266 2.30256918,27.040911 C1.89334268,27.7954953 1.68872943,28.67334 1.68872943,29.6744452 C1.68872943,30.682966 1.91031933,31.2581588 2.35349911,31.4000236 C2.7966789,31.5418884 3.30061721,31.4362709 3.86531403,31.0831711 C4.41928877,30.7367757 4.87319065,30.2870311 5.22701967,29.7339372 C5.58084869,29.1808433 5.79886456,28.6097807 5.88106726,28.0207496 L4.05295064,29.1638543 L4.05295064,27.7956771 L7.34463277,25.7374182 L7.34463277,30.1367195 L6.25097942,30.820571 L6.084787,29.9011376 C5.76669828,30.4893543 5.48077584,30.9425159 5.22701967,31.2606226 Z" id="Path" fill-rule="nonzero"></path>
                <path d="M12.8559662,27.208292 C11.6514395,27.9269816 10.7308914,28.1585198 10.0943219,27.9029065 C9.24048018,27.6328508 8.81355932,26.7644958 8.81355932,25.2978415 C8.81355932,23.8016323 9.24048018,22.4238265 10.0943219,21.1644239 C10.7308914,20.149183 11.6514395,19.2822178 12.8559662,18.5635282 C14.0604929,17.8448386 14.981041,17.6133005 15.6176105,17.8689138 C16.4676404,18.111689 16.8926554,18.9811812 16.8926554,20.4773903 C16.8926554,21.9440447 16.4676404,23.3207134 15.6176105,24.6073963 C14.981041,25.6226372 14.0604929,26.4896025 12.8559662,27.208292 Z M14.519814,24.0211052 C14.9276759,23.279015 15.1316068,22.4480242 15.1316068,21.5281327 C15.1316068,20.6119355 14.9267229,20.0257906 14.5169552,19.7696979 C14.1071874,19.5136053 13.5535244,19.5936606 12.8559662,20.0098637 C12.158408,20.4260669 11.6018862,21.0074878 11.1864007,21.7541266 C10.7709152,22.5007654 10.5631725,23.3340306 10.5631725,24.2539221 C10.5631725,25.1738136 10.7709152,25.7591764 11.1864007,26.0100103 C11.6018862,26.2608443 12.158408,26.1781597 12.8559662,25.7619566 C13.5535244,25.3457534 14.1081403,24.7654696 14.519814,24.0211052 Z" id="Shape" fill-rule="nonzero"></path>
                <polygon id="Path" fill-rule="nonzero" points="17.6271186 15.9295384 19.497385 14.7946958 21.3164891 20.0095549 23.1526473 12.576751 24.9717514 11.4729526 22.1123472 21.5312217 20.4580994 22.5349883"></polygon>
                <polygon id="Path" fill-rule="nonzero" points="24.2372881 18.0975831 25.7062147 17.1645759 25.7062147 18.6973215 24.2372881 19.6303287"></polygon>
                <path d="M32.7737968,11.3839601 L32.7737968,6.34744793 L34.519774,5.28563778 L34.519774,10.3221499 C34.519774,11.19307 34.3840378,11.9538234 34.1125653,12.60441 C33.6068083,13.8014347 32.6417793,14.8330389 31.2174784,15.6992227 C29.7931774,16.5654065 28.8262891,16.7086912 28.3168133,16.1290769 C28.0453408,15.8086804 27.9096045,15.2130221 27.9096045,14.3421021 L27.9096045,9.30558993 L29.6555818,8.24377978 L29.6555818,13.2802919 C29.6555818,13.8436104 29.7225202,14.2142728 29.8563971,14.3922791 C30.0646499,14.7251801 30.5183437,14.6790424 31.2174784,14.253866 C31.9128942,13.8309512 32.3647286,13.326395 32.5729815,12.7401975 C32.7068583,12.3993577 32.7737968,11.9472786 32.7737968,11.3839601 Z" id="Path" fill-rule="nonzero"></path>
                <polygon id="Path" fill-rule="nonzero" points="43.3333333 7.92612101 41.0977649 9.25608292 38.5291193 7.27573518 37.6992492 8.5920691 37.6992492 11.2778937 35.9887006 12.2955161 35.9887006 4.26528187 37.6992492 3.2476595 37.6992492 6.55454699 40.9114675 1.33667888 43.1583267 0 39.7485203 5.33541524"></polygon>
            </g>
        </g>
    </g>
</svg>