<?xml version="1.0" encoding="UTF-8"?>
<svg width="140px" height="140px" viewBox="0 0 140 140" version="1.1" xmlns="http://www.w3.org/2000/svg" xmlns:xlink="http://www.w3.org/1999/xlink">
    <title>GOV APP</title>
    <g id="GOV-APP" stroke="none" fill="none" fill-rule="evenodd" stroke-width="1">
        <g id="Layer_1" transform="translate(34.1123, 6.606)" fill="#000000">
            <path d="M23.6464258,17.0091856 C23.2788328,16.375894 22.4714185,16.157918 21.8419962,16.5255107 C21.5741561,16.680128 7.88084088,24.5848255 8.14867831,24.4302084 C8.14819465,24.4305309 8.14738846,24.4303695 8.1469048,24.4306921 C3.56602054,27.076877 -0.0105935354,33.2714617 2.35759387e-05,38.5369072 C0.00657944571,41.7687517 0.217580049,111.911577 0.218506955,112.177044 C0.218506955,115.483052 1.68466382,117.471873 3.08573126,118.156555 C8.6737676,121.398728 16.3421347,125.892843 16.8601453,126.145895 C18.9365564,127.294482 21.3558121,126.776013 23.4194208,125.58451 L63.6276313,102.370698 C68.2102891,99.7227399 71.7894829,93.5226735 71.7753371,88.2538424 L71.5663477,14.6088687 C71.5586089,12.1892062 70.8350313,10.3138375 69.5065377,9.21363851 C68.8906384,8.6684904 54.7615999,0.519455721 55.0259584,0.67516557 C53.1712268,-0.383759826 50.8044447,-0.192869562 48.3564052,1.21817115 L33.3302406,9.89336308 C32.6982388,10.2583764 32.4815524,11.065791 32.8465657,11.6977927 C33.211579,12.3285046 34.0177037,12.5426113 34.6509953,12.1814676 L49.67587,3.50627595 C51.2752216,2.58406927 52.7081887,2.39575844 53.7064936,2.96327036 L63.3116307,8.55455127 C63.2850286,8.56551459 63.2574592,8.58341055 63.2308571,8.5946964 C62.8385969,8.75850089 62.4444018,8.94616666 62.0489171,9.17494489 L22.5035022,32.006815 C22.2387305,31.8529233 10.7087542,25.1514902 11.4436325,25.5786155 L23.1627509,18.8136168 C23.7947526,18.4486019 24.0114391,17.6411876 23.6464258,17.0091856 Z M4.34070631,115.833626 C3.23034518,115.278447 2.86001639,113.475036 2.86001639,112.173174 L2.64590963,40.8421012 L13.6878834,47.2691723 L13.8553961,103.265013 C13.8683244,106.94602 13.891435,118.91013 13.9160166,120.307295 C13.9219819,120.698104 13.9395554,121.081336 13.985827,121.444253 L4.34070631,115.833626 Z M23.1508202,34.6850821 C23.1529163,34.6839537 23.1554957,34.6844373 23.1575917,34.6833086 C41.1866414,24.286071 62.5806065,11.9040935 63.6443988,11.3390657 C66.7255183,9.70728406 68.9127161,10.8899811 68.924838,14.6166062 L69.1338185,88.2615796 C69.1453937,92.5991753 66.0834096,97.9015414 62.3068766,100.082592 L22.0986661,123.296404 C18.805435,125.194828 16.5473689,123.843057 16.5473689,120.138975 L16.4983565,103.770613 L16.3358012,46.4965813 C16.3229442,42.1636624 19.378479,36.8690351 23.1508202,34.6850821 Z M20.0488524,33.6422792 C16.8965067,36.2459007 14.5316745,40.4407722 13.8813534,44.3142417 C13.6165616,44.1603778 1.92584394,37.3670843 2.66799741,37.7983358 C2.95723503,33.8657372 5.56246888,29.3549858 8.83436767,27.1173446 C9.09907412,27.2713597 20.7907692,34.0739489 20.0488524,33.6422792 Z" id="Shape" fill-rule="nonzero"></path>
            <path d="M27.3133259,16.4171679 L30.4165836,14.6256362 C31.0485853,14.2606242 31.2652717,13.4532096 30.9002585,12.8212079 C30.5352452,12.190496 29.7239613,11.9712301 29.0958288,12.337533 L25.9925711,14.1290647 C25.3605694,14.4940779 25.143883,15.3014912 25.5088962,15.933493 C25.753958,16.3578369 26.1976492,16.5938703 26.6542384,16.5938703 C26.8786634,16.5938703 27.1056681,16.5371191 27.3133259,16.4171679 Z" id="Path"></path>
            <path d="M19.849256,107.838158 C20.2482576,109.340442 21.7890138,110.030404 23.3588005,109.124089 L63.5979661,85.8922194 C64.9135617,85.1325273 65.9028379,83.424833 65.8989799,81.9196367 L65.7274253,21.4693125 C65.7274253,19.5142812 63.9548174,18.3493882 62.09406,19.419821 L53.1093164,24.6073948 C52.8642546,24.7492726 52.6707847,24.9659591 52.558572,25.2252087 L50.203398,30.6526851 L34.3453127,39.8076821 L32.5073483,37.7246559 C32.0907432,37.253879 31.3968308,37.1390869 30.8564049,37.4550878 L21.8561837,42.6516902 C20.548327,43.4062229 19.5654997,45.1023094 19.5693576,46.5971869 C19.6012417,53.5706746 19.4603109,22.734694 19.849256,107.838158 Z M23.1769387,44.9397945 L31.2420553,40.2836182 L33.0800196,42.3666444 C33.4953352,42.8348416 34.1866676,42.9457644 34.730963,42.6362126 L51.9020642,32.7228133 C52.147126,32.5809355 52.340596,32.364249 52.4528086,32.1049994 L54.8079827,26.677523 L63.0872057,21.897526 L63.2574617,81.9273755 C63.258749,82.4871486 62.7737843,83.3177795 62.2772114,83.6041149 L22.3811325,106.623167 L22.2108764,46.589448 C22.2095891,46.0387036 22.6881047,45.2222606 23.1769387,44.9397945 Z" id="Shape" fill-rule="nonzero"></path>
            <path d="M36.4992782,35.9821367 L47.2923207,29.7511152 C47.9243224,29.3861019 48.1410088,28.5786873 47.7759956,27.9466856 C47.4096924,27.3121042 46.5996984,27.0979974 45.9715659,27.4630107 L35.1785235,33.6940322 C34.5465217,34.0590455 34.3298353,34.8664601 34.6948486,35.4984618 C35.0608038,36.1321464 35.8706771,36.3452404 36.4992782,35.9821367 Z" id="Path"></path>
            <path d="M48.5601934,97.4449536 L38.8531621,103.049132 C37.1080634,104.057756 35.7963371,106.323933 35.8014814,108.320543 C35.8069077,110.842313 37.9698813,112.095877 40.1893945,110.815015 L49.8964258,105.210837 C51.6428143,104.200924 52.9545404,101.934742 52.948115,99.9381359 C52.9426802,97.4180393 50.7762907,96.1592351 48.5601934,97.4449536 Z M48.5756711,102.922732 L38.8686398,108.526911 C38.6635617,108.645573 38.5320021,108.675238 38.5010468,108.699744 C38.4791202,108.645573 38.4429996,108.526911 38.4429996,108.312804 C38.440426,107.261618 39.2491305,105.871214 40.1739166,105.337237 L49.8809479,99.7330581 C50.0860259,99.6143965 50.2175855,99.5847313 50.2485408,99.560225 C50.2704675,99.6143965 50.3065957,99.7317683 50.3065957,99.945875 C50.3104515,100.997062 49.5004574,102.388755 48.5756711,102.922732 Z" id="Shape" fill-rule="nonzero"></path>
            <path d="M53.1312431,12.7296321 C55.5626159,11.3162927 55.5642484,8.58426429 53.1106063,7.16672678 C51.150111,6.03428289 48.0829677,6.03686232 46.130211,7.16930648 C43.6962738,8.58413591 43.7031309,11.3172022 46.1521377,12.7309222 C48.1479211,13.8824333 51.145123,13.8841112 53.1312431,12.7296321 Z M47.4587046,9.45225161 C48.6081125,8.78585478 50.6275507,8.78327772 51.7898513,9.45483131 C52.4580179,9.84124214 52.471067,10.0571565 51.8040391,10.4453973 C50.6548277,11.1148034 48.632422,11.1122237 47.4728924,10.4428176 C46.7729848,10.0401584 46.8229746,9.82227293 47.4587046,9.45225161 Z" id="Shape" fill-rule="nonzero"></path>
            <path d="M7.28789835,48.7808176 C6.55916163,48.7833973 5.96843348,49.3754153 5.9710045,50.1054416 L5.98391088,54.7874138 C5.98649058,55.5148606 6.57721873,56.1042992 7.3046656,56.1042992 C7.30595545,56.1042992 7.30724529,56.1042992 7.30853488,56.1042992 C8.0372716,56.1017195 8.62799975,55.5097015 8.62542873,54.7796752 L8.61252235,50.097703 C8.60994292,49.368966 8.01405537,48.867234 7.28789835,48.7808176 Z" id="Path"></path>
            <path d="M7.29176763,59.8498772 C6.63654941,59.9582202 5.96843322,60.4418952 5.97100547,61.1745012 L5.98391088,65.8564733 C5.98649058,66.5839202 6.57721873,67.1733588 7.3046656,67.1733588 C8.09660254,67.2584856 8.62800001,66.5800509 8.62542966,65.8487348 L8.61252235,61.1667626 C8.60994292,60.4393155 8.01921477,59.8498772 7.29176763,59.8498772 Z" id="Path"></path>
        </g>
        <g id="GOV.UK" transform="translate(59.7753, 58.2022)" fill="#000000" fill-rule="nonzero">
            <path d="M4.33195186,23.6315113 C3.97058562,24.0683055 3.52628286,24.4344975 2.9990436,24.7300875 C2.13117221,25.2166485 1.42028781,25.2982478 0.866390372,24.9748854 C0.288796791,24.6616853 0,23.9523762 0,22.8469582 C0,21.7290496 0.291758809,20.6692782 0.875276427,19.6676441 C1.45879404,18.6660101 2.23039983,17.896173 3.19009378,17.3581328 C4.02242094,16.8914992 4.69109659,16.7391035 5.19612072,16.9009458 C5.70114485,17.0627881 5.99068214,17.4555137 6.0647326,18.0791227 L4.71849526,18.8338734 C4.61482461,18.4204749 4.36157204,18.2330182 3.95873755,18.2715032 C3.73362415,18.2946627 3.4833336,18.3834612 3.20786589,18.5378987 C2.68062662,18.8334886 2.24743143,19.2863522 1.90828033,19.8964893 C1.56912923,20.5066265 1.39955368,21.2332528 1.39955368,22.0763682 C1.39955368,22.925729 1.58319882,23.4238808 1.95048909,23.5708236 C2.31777937,23.7177664 2.73542396,23.660049 3.20342286,23.3976714 C3.66253571,23.1402756 4.03871204,22.7896386 4.33195186,22.3457603 C4.62519168,21.901882 4.8058748,21.4344536 4.87400122,20.9434752 L3.35892883,21.7928812 L3.35892883,20.6406234 L6.08694774,19.1111944 L6.08694774,22.8162184 L5.18057012,23.3243674 L5.04283627,22.5397348 C4.77921663,23.015408 4.54225516,23.3793335 4.33195186,23.6315113 Z" id="Path"></path>
            <path d="M10.2900518,20.6518447 C9.354054,21.1765999 8.63872656,21.3090913 8.1440695,21.0493187 C7.48057738,20.7624179 7.14883133,19.9991216 7.14883133,18.7594296 C7.14883133,17.4947564 7.48057738,16.3594817 8.1440695,15.3536054 C8.63872656,14.5391864 9.354054,13.8695994 10.2900518,13.3448441 C11.2260496,12.8200889 11.941377,12.6875976 12.4360341,12.9473702 C13.0965642,13.2109504 13.4268293,13.975077 13.4268293,15.2397502 C13.4268293,16.4794422 13.0965642,17.6138866 12.4360341,18.6430835 C11.941377,19.4575024 11.2260496,20.1270895 10.2900518,20.6518447 Z M11.5829728,18.0721311 C11.8999088,17.4728872 12.0583768,16.7844954 12.0583768,16.0069556 C12.0583768,15.2325385 11.8991683,14.7230286 11.5807513,14.4784259 C11.2623343,14.2338233 10.8321012,14.2634685 10.2900518,14.5673615 C9.74800244,14.8712546 9.31554776,15.3244837 8.99268776,15.9270487 C8.66982776,16.5296138 8.50839775,17.2196662 8.50839775,17.997206 C8.50839775,18.7747458 8.66982776,19.2837909 8.99268776,19.5243413 C9.31554776,19.7648917 9.74800244,19.7332204 10.2900518,19.4293273 C10.8321012,19.1254343 11.2630748,18.6730355 11.5829728,18.0721311 Z" id="Shape"></path>
            <polygon id="Path" points="13.9866507 11.483172 15.4484068 10.6636571 16.8701756 15.1079283 18.3052735 9.06199127 19.7270423 8.26489473 17.4921995 16.4220096 16.1992784 17.1468693"></polygon>
            <polygon id="Path" points="19.5804224 13.8554496 20.9266598 13.1006988 20.9266598 14.4965233 19.5804224 15.2512741"></polygon>
            <path d="M26.1072299,8.93160513 L26.1072299,4.68792401 L27.4978975,3.90826396 L27.4978975,8.15194507 C27.4978975,8.88576778 27.3897838,9.51782525 27.1735565,10.0481175 C26.770722,11.0233975 26.0020782,11.8290457 24.8676252,12.4650624 C23.7331722,13.101079 22.9630474,13.1581216 22.5572509,12.6361903 C22.3410235,12.3483483 22.2329099,11.8375159 22.2329099,11.1036932 L22.2329099,6.86001208 L23.6235775,6.08035203 L23.6235775,10.3240331 C23.6235775,10.7986759 23.6768938,11.1153989 23.7835265,11.2742022 C23.9493995,11.5684162 24.3107657,11.5594251 24.8676252,11.2472289 C25.4215226,10.9366934 25.7814079,10.5413241 25.9472809,10.0611209 C26.0539135,9.78275315 26.1072299,9.4062479 26.1072299,8.93160513 Z" id="Path"></path>
            <polygon id="Path" points="34.6067416 6.82696004 32.8473027 7.813367 30.8257251 5.93025891 30.1726001 7.00370532 30.1726001 9.31290486 28.8263627 10.0676556 28.8263627 3.16347688 30.1726001 2.4087261 30.1726001 5.25189877 32.7006828 0.991388819 34.4690077 0 31.7854191 4.34769238"></polygon>
        </g>
    </g>
</svg>