<?xml version="1.0" encoding="UTF-8"?>
<svg width="140px" height="140px" viewBox="0 0 140 140" version="1.1" xmlns="http://www.w3.org/2000/svg" xmlns:xlink="http://www.w3.org/1999/xlink">
    <title>Group Copy 2</title>
    <g id="ICONS" stroke="none" stroke-width="1" fill="none" fill-rule="evenodd">
        <g id="Group-Copy-2" fill="#000000">
            <g id="Layer_1" transform="translate(25.5419, 5.3916)">
                <path d="M49.7724676,17.3546606 L57.7744584,12.7364591 C58.418614,12.3644263 58.6394675,11.5414845 58.2674347,10.8973289 C57.8954019,10.2531733 57.0672018,10.0310054 56.4283045,10.4043526 L48.4263137,15.0225541 C47.7821581,15.3945869 47.5613046,16.2175287 47.9333374,16.8616843 C48.3089701,17.5101406 49.1345153,17.7231681 49.7724676,17.3546606 Z" id="Path"></path>
                <path d="M82.6625292,74.9710945 C86.1790931,72.9400323 88.9266144,68.181168 88.9161275,64.1361334 L88.7833225,10.184814 C88.7769137,8.01769045 87.9797712,6.36359072 86.5544124,5.48724322 C86.1372312,5.20387057 82.1847017,2.93391703 78.125833,0.564545992 C76.6166682,-0.307035585 74.7210104,-0.165058624 72.7924872,0.960241722 L63.2116577,6.48946418 C62.5675021,6.86149695 62.3466486,7.68443876 62.7186814,8.32859438 C63.0920288,8.97143534 63.913656,9.18965953 64.5578116,8.82157072 L74.1425847,3.28971922 C75.2087281,2.66528261 76.1460402,2.52987838 76.7770498,2.89402349 L81.4688693,5.62314068 C75.8377451,8.50737653 100.741653,-5.51205682 14.5976254,44.2277805 C11.6361526,45.9343 9.24965444,49.5704928 8.56885436,53.0901789 C8.26099571,54.6633791 8.46967379,109.055479 8.48077605,109.32563 L3.77055225,106.585996 C3.17240763,106.246859 2.83061082,105.369988 2.83061082,104.177643 L2.69257755,50.2039672 C2.67548759,47.1527727 4.91951555,43.2576031 7.59473355,41.6971687 L42.4843042,21.2721789 C43.1258308,20.8962024 43.3414257,20.071946 42.9667636,19.4304196 C42.5894725,18.7875787 41.7639017,18.5706691 41.1250044,18.9479603 L6.23674836,39.3729501 C2.71755517,41.4250459 -0.0220781765,46.1904833 0.000134111801,50.2157988 L0.138305554,104.181586 C0.138305554,106.396693 0.954674362,108.082015 2.42703013,108.919417 L10.78002,113.776876 C10.7833065,113.778848 10.7872502,113.777862 10.790537,113.77967 C10.7934947,113.781477 10.7954669,113.784435 10.7984246,113.786079 C12.4712652,114.751696 14.4279804,114.366096 16.1159954,113.391697 L25.1157675,108.195728 L25.0737002,114.996849 C25.0631832,118.948526 27.6187723,122.604438 32.2724681,125.291487 C41.3272713,130.517426 56.0295334,130.534136 65.0534178,125.288858 C69.6150914,122.637303 72.1351861,119.030031 72.1457028,115.134861 L72.1890848,108.184553 C72.1890848,108.180281 72.1890848,108.175844 72.1890848,108.171407 C72.189249,108.154975 72.1930285,108.1392 72.1930285,108.122767 C72.1930285,104.143463 69.6203497,100.469146 64.9561369,97.7794677 C63.1375474,96.7167751 60.9673016,95.887589 58.5895128,95.2309449 L58.5719299,88.8797673 L82.6625292,74.9710945 Z M55.9300698,107.211747 C55.6572176,107.369561 46.2643869,112.802467 46.851419,112.46293 L46.8050793,95.7032163 L55.8840588,90.4571271 L55.9300698,107.211747 Z M44.1512237,112.450441 L41.356377,110.820333 L41.3313997,98.8797907 L44.1089921,97.2667724 C44.1105378,97.8214941 44.1532418,113.175527 44.1512237,112.450441 Z M14.769841,111.059591 C13.7181583,111.668253 12.7624416,111.815488 12.1406342,111.452658 C11.3852406,111.016959 11.1750015,109.889995 11.1730862,109.021956 C11.1713916,108.73909 10.9491236,54.7617792 11.2631366,53.358851 C11.8696618,50.6772245 13.7546385,47.8253567 15.9464112,46.5598867 L82.4929453,8.13929095 C83.2366,7.71068149 84.3747693,7.3258993 85.1244526,7.75164738 C85.7354145,8.10823357 86.0870708,8.99706961 86.0910148,10.1927014 L86.2238104,64.1440235 C86.2316774,67.2083946 83.9850201,71.0982753 81.3163754,72.6389903 C25.4689433,104.874844 20.2241688,107.91052 14.769841,111.059591 Z M69.4560239,114.803582 C69.3639195,115.072839 70.12071,119.229153 63.6993757,122.96201 C55.4357791,127.765571 41.9400607,127.765571 33.6186214,122.959381 C27.0205399,119.150061 27.8593647,114.90723 27.7686364,114.637941 C28.0410624,114.888538 29.39268,116.590538 32.3158493,118.284651 C40.9666994,123.278665 55.8359572,123.666062 65.0954843,118.282022 C67.7491757,116.739561 69.1867355,115.044359 69.4560239,114.803582 Z M58.6000292,97.9819169 C60.4772827,98.5471962 62.1534021,99.2597114 63.6047242,100.107631 C67.3976836,102.295295 69.4890531,105.133359 69.4989126,108.102062 C69.4989126,108.105678 69.4967763,108.108635 69.4967763,108.112251 L69.4967763,108.164835 C69.4593922,111.579045 66.6907041,114.240778 63.7348698,115.951231 C55.5104134,120.746852 41.7422795,120.625909 33.6633178,115.947287 C30.0879663,113.895448 27.0384152,110.540847 27.9778225,106.543272 L38.6423779,100.385998 L38.6653834,111.597264 C38.6666981,112.07578 38.9204166,112.517487 39.333202,112.758059 L44.825615,115.960433 C44.8267651,115.96109 44.8280798,115.960762 44.8292302,115.961419 C44.8305449,115.962076 44.8308736,115.963719 44.832188,115.964377 C44.8349815,115.96602 44.838268,115.965198 44.8410616,115.966841 C44.8412258,115.966841 44.8412258,115.967006 44.8413903,115.967006 C45.256805,116.206263 45.7681857,116.206263 46.1862295,115.964376 C46.4590817,115.806542 58.7312892,108.707868 57.9519296,109.158675 C58.3699734,108.916788 58.6263212,108.471137 58.6250066,107.988678 C58.6243187,107.71221 58.5985864,97.4038507 58.6000292,97.9819169 Z" id="Shape" fill-rule="nonzero"></path>
                <path d="M81.2795664,63.0003161 C81.6976102,62.758429 81.953958,62.3127785 81.9526484,61.8303191 L81.8211831,15.8034286 C81.8198684,15.3235983 81.5622062,14.8805771 81.1467915,14.6400046 C80.7300621,14.3994321 80.2160524,14.4033761 79.8019523,14.6413193 L15.9832199,51.4870198 C15.5651761,51.728907 15.3088283,52.1745574 15.3101379,52.6570168 L15.4416032,98.6839148 C15.4429179,99.1637452 15.7005801,99.6067663 16.1159948,99.8473388 C16.5254141,100.083146 17.0394959,100.088692 17.460834,99.8460241 L81.2795664,63.0003161 Z M79.1354484,18.1355351 L79.2577066,61.058647 L18.1273355,96.3518086 L18.0050773,53.428689 L79.1354484,18.1355351 Z" id="Shape" fill-rule="nonzero"></path>
                <path d="M49.9354785,84.5177491 L46.1126118,86.7249681 C45.4684562,87.0970009 45.2476027,87.9199427 45.6196355,88.5640983 C45.9926286,89.209959 46.8180812,89.427156 47.4587657,89.0570746 L51.2816323,86.8498556 C51.9257879,86.4778229 52.1466414,85.6548811 51.7746087,85.0107255 C51.4012612,84.3639405 50.5770051,84.1457163 49.9354785,84.5177491 Z" id="Path"></path>
            </g>
            <g id="ONE-VIEW" transform="translate(72.9248, 62.3165) rotate(5) translate(-72.9248, -62.3165)translate(26.9248, 19.8165)" fill-rule="nonzero">
                <path d="M28.216815,63.2301156 C27.2582921,63.9399325 26.5257501,64.1589225 26.0191889,63.8870854 C25.3397296,63.59659 25,62.7047032 25,61.2114249 C25,59.6880554 25.3397296,58.2930072 26.0191889,57.0262804 C26.5257501,56.0041937 27.2582921,55.1382419 28.216815,54.428425 C29.1753379,53.7186081 29.90788,53.4996181 30.4144411,53.7714552 C31.0908671,54.0341056 31.4290801,54.9271155 31.4290801,56.450485 C31.4290801,57.9437633 31.0908671,59.3376884 30.4144411,60.6322602 C29.90788,61.6543468 29.1753379,62.5202986 28.216815,63.2301156 Z M29.5408506,60.0153495 C29.8654138,59.2672102 30.0276954,58.4248455 30.0276954,57.4882554 C30.0276954,56.5554266 29.8646555,55.9549132 29.5385757,55.6867152 C29.2124959,55.4185172 28.771909,55.4899507 28.216815,55.9010155 C27.6617211,56.3120804 27.2188592,56.8939287 26.8882295,57.6465605 C26.5575997,58.3991923 26.3922849,59.2438032 26.3922849,60.1803934 C26.3922849,61.1169835 26.5575997,61.7167526 26.8882295,61.9797005 C27.2188592,62.2426484 27.6617211,62.1685899 28.216815,61.757525 C28.771909,61.3464602 29.2132542,60.765735 29.5408506,60.0153495 Z" id="Shape"></path>
                <polygon id="Path" points="37.9218595 55.8118925 36.5204748 56.8496629 33.7814045 52.9707437 33.7814045 58.8780322 32.4755687 59.8450455 32.4755687 51.5285763 33.9452028 50.4402652 36.6160237 54.2681672 36.6160237 48.4624366 37.9218595 47.4954234"></polygon>
                <polygon id="Path" points="43.8959446 47.7543726 40.63818 50.1668517 40.63818 52.3052112 44.3509397 49.5557936 44.3509397 51.0509526 39.2686449 54.8145548 39.2686449 46.4980856 44.1871414 42.8557813 44.1871414 44.3283718 40.63818 46.9564915 40.63818 48.7224717 43.8959446 46.3099926"></polygon>
                <polygon id="Path" points="47.535905 40.3759145 49.0328388 39.2673871 50.4888229 44.5027045 51.958457 37.100873 53.4144411 36.0226701 51.125816 46.0339395 49.8017804 47.0144303"></polygon>
                <polygon id="Path" points="54.1378833 35.486938 55.5301682 34.4559064 55.5301682 42.7723756 54.1378833 43.8034071"></polygon>
                <polygon id="Path" points="61.5042532 34.7148557 58.2464886 37.1273348 58.2464886 39.2656942 61.9592483 36.5162767 61.9592483 38.0114356 56.8769535 41.7750378 56.8769535 33.4585687 61.79545 29.8162643 61.79545 31.2888548 58.2464886 33.9169745 58.2464886 35.6829548 61.5042532 33.2704757"></polygon>
                <polygon id="Path" points="69.5758655 24.0546173 71 23 69.1117705 32.7147636 67.7740851 33.7053626 66.9641939 29.4416147 66.7275964 28.0088216 66.490999 29.7920307 65.6811078 35.2552793 64.379822 36.2189232 62.4779426 29.3108567 63.9657765 28.209068 64.8530168 32.3139784 65.0441147 33.4983599 65.2397626 32.0557913 65.9950544 26.7063227 67.4737883 25.6112728 68.2700297 29.7835708 68.4747774 30.9578442 68.6795252 29.5311052"></polygon>
            </g>
        </g>
    </g>
</svg>