<?xml version="1.0" encoding="UTF-8"?>
<svg width="140px" height="140px" viewBox="0 0 140 140" version="1.1" xmlns="http://www.w3.org/2000/svg" xmlns:xlink="http://www.w3.org/1999/xlink">
    <title>Group</title>
    <g id="ICONS" stroke="none" stroke-width="1" fill="none" fill-rule="evenodd">
        <g id="Group" transform="translate(-45, -50)" fill="#000000">
            <g id="Group-Copy" transform="translate(45, 50)">
                <g id="Layer_1" transform="translate(34.1123, 6.606)">
                    <path d="M23.6464258,17.0091856 C23.2788328,16.375894 22.4714185,16.157918 21.8419962,16.5255107 C21.5741561,16.680128 7.88084088,24.5848255 8.14867831,24.4302084 C8.14819465,24.4305309 8.14738846,24.4303695 8.1469048,24.4306921 C3.56602054,27.076877 -0.0105935354,33.2714617 2.35759387e-05,38.5369072 C0.00657944571,41.7687517 0.217580049,111.911577 0.218506955,112.177044 C0.218506955,115.483052 1.68466382,117.471873 3.08573126,118.156555 C8.6737676,121.398728 16.3421347,125.892843 16.8601453,126.145895 C18.9365564,127.294482 21.3558121,126.776013 23.4194208,125.58451 L63.6276313,102.370698 C68.2102891,99.7227399 71.7894829,93.5226735 71.7753371,88.2538424 L71.5663477,14.6088687 C71.5586089,12.1892062 70.8350313,10.3138375 69.5065377,9.21363851 C68.8906384,8.6684904 54.7615999,0.519455721 55.0259584,0.67516557 C53.1712268,-0.383759826 50.8044447,-0.192869562 48.3564052,1.21817115 L33.3302406,9.89336308 C32.6982388,10.2583764 32.4815524,11.065791 32.8465657,11.6977927 C33.211579,12.3285046 34.0177037,12.5426113 34.6509953,12.1814676 L49.67587,3.50627595 C51.2752216,2.58406927 52.7081887,2.39575844 53.7064936,2.96327036 L63.3116307,8.55455127 C63.2850286,8.56551459 63.2574592,8.58341055 63.2308571,8.5946964 C62.8385969,8.75850089 62.4444018,8.94616666 62.0489171,9.17494489 L22.5035022,32.006815 C22.2387305,31.8529233 10.7087542,25.1514902 11.4436325,25.5786155 L23.1627509,18.8136168 C23.7947526,18.4486019 24.0114391,17.6411876 23.6464258,17.0091856 Z M4.34070631,115.833626 C3.23034518,115.278447 2.86001639,113.475036 2.86001639,112.173174 L2.64590963,40.8421012 L13.6878834,47.2691723 L13.8553961,103.265013 C13.8683244,106.94602 13.891435,118.91013 13.9160166,120.307295 C13.9219819,120.698104 13.9395554,121.081336 13.985827,121.444253 L4.34070631,115.833626 Z M23.1508202,34.6850821 C23.1529163,34.6839537 23.1554957,34.6844373 23.1575917,34.6833086 C41.1866414,24.286071 62.5806065,11.9040935 63.6443988,11.3390657 C66.7255183,9.70728406 68.9127161,10.8899811 68.924838,14.6166062 L69.1338185,88.2615796 C69.1453937,92.5991753 66.0834096,97.9015414 62.3068766,100.082592 L22.0986661,123.296404 C18.805435,125.194828 16.5473689,123.843057 16.5473689,120.138975 L16.4983565,103.770613 L16.3358012,46.4965813 C16.3229442,42.1636624 19.378479,36.8690351 23.1508202,34.6850821 Z M20.0488524,33.6422792 C16.8965067,36.2459007 14.5316745,40.4407722 13.8813534,44.3142417 C13.6165616,44.1603778 1.92584394,37.3670843 2.66799741,37.7983358 C2.95723503,33.8657372 5.56246888,29.3549858 8.83436767,27.1173446 C9.09907412,27.2713597 20.7907692,34.0739489 20.0488524,33.6422792 Z" id="Shape" fill-rule="nonzero"></path>
                    <path d="M27.3133259,16.4171679 L30.4165836,14.6256362 C31.0485853,14.2606242 31.2652717,13.4532096 30.9002585,12.8212079 C30.5352452,12.190496 29.7239613,11.9712301 29.0958288,12.337533 L25.9925711,14.1290647 C25.3605694,14.4940779 25.143883,15.3014912 25.5088962,15.933493 C25.753958,16.3578369 26.1976492,16.5938703 26.6542384,16.5938703 C26.8786634,16.5938703 27.1056681,16.5371191 27.3133259,16.4171679 Z" id="Path"></path>
                    <path d="M19.849256,107.838158 C20.2482576,109.340442 21.7890138,110.030404 23.3588005,109.124089 L63.5979661,85.8922194 C64.9135617,85.1325273 65.9028379,83.424833 65.8989799,81.9196367 L65.7274253,21.4693125 C65.7274253,19.5142812 63.9548174,18.3493882 62.09406,19.419821 L53.1093164,24.6073948 C52.8642546,24.7492726 52.6707847,24.9659591 52.558572,25.2252087 L50.203398,30.6526851 L34.3453127,39.8076821 L32.5073483,37.7246559 C32.0907432,37.253879 31.3968308,37.1390869 30.8564049,37.4550878 L21.8561837,42.6516902 C20.548327,43.4062229 19.5654997,45.1023094 19.5693576,46.5971869 C19.6012417,53.5706746 19.4603109,22.734694 19.849256,107.838158 Z M23.1769387,44.9397945 L31.2420553,40.2836182 L33.0800196,42.3666444 C33.4953352,42.8348416 34.1866676,42.9457644 34.730963,42.6362126 L51.9020642,32.7228133 C52.147126,32.5809355 52.340596,32.364249 52.4528086,32.1049994 L54.8079827,26.677523 L63.0872057,21.897526 L63.2574617,81.9273755 C63.258749,82.4871486 62.7737843,83.3177795 62.2772114,83.6041149 L22.3811325,106.623167 L22.2108764,46.589448 C22.2095891,46.0387036 22.6881047,45.2222606 23.1769387,44.9397945 Z" id="Shape" fill-rule="nonzero"></path>
                    <path d="M36.4992782,35.9821367 L47.2923207,29.7511152 C47.9243224,29.3861019 48.1410088,28.5786873 47.7759956,27.9466856 C47.4096924,27.3121042 46.5996984,27.0979974 45.9715659,27.4630107 L35.1785235,33.6940322 C34.5465217,34.0590455 34.3298353,34.8664601 34.6948486,35.4984618 C35.0608038,36.1321464 35.8706771,36.3452404 36.4992782,35.9821367 Z" id="Path"></path>
                    <path d="M48.5601934,97.4449536 L38.8531621,103.049132 C37.1080634,104.057756 35.7963371,106.323933 35.8014814,108.320543 C35.8069077,110.842313 37.9698813,112.095877 40.1893945,110.815015 L49.8964258,105.210837 C51.6428143,104.200924 52.9545404,101.934742 52.948115,99.9381359 C52.9426802,97.4180393 50.7762907,96.1592351 48.5601934,97.4449536 Z M48.5756711,102.922732 L38.8686398,108.526911 C38.6635617,108.645573 38.5320021,108.675238 38.5010468,108.699744 C38.4791202,108.645573 38.4429996,108.526911 38.4429996,108.312804 C38.440426,107.261618 39.2491305,105.871214 40.1739166,105.337237 L49.8809479,99.7330581 C50.0860259,99.6143965 50.2175855,99.5847313 50.2485408,99.560225 C50.2704675,99.6143965 50.3065957,99.7317683 50.3065957,99.945875 C50.3104515,100.997062 49.5004574,102.388755 48.5756711,102.922732 Z" id="Shape" fill-rule="nonzero"></path>
                    <path d="M53.1312431,12.7296321 C55.5626159,11.3162927 55.5642484,8.58426429 53.1106063,7.16672678 C51.150111,6.03428289 48.0829677,6.03686232 46.130211,7.16930648 C43.6962738,8.58413591 43.7031309,11.3172022 46.1521377,12.7309222 C48.1479211,13.8824333 51.145123,13.8841112 53.1312431,12.7296321 Z M47.4587046,9.45225161 C48.6081125,8.78585478 50.6275507,8.78327772 51.7898513,9.45483131 C52.4580179,9.84124214 52.471067,10.0571565 51.8040391,10.4453973 C50.6548277,11.1148034 48.632422,11.1122237 47.4728924,10.4428176 C46.7729848,10.0401584 46.8229746,9.82227293 47.4587046,9.45225161 Z" id="Shape" fill-rule="nonzero"></path>
                    <path d="M7.28789835,48.7808176 C6.55916163,48.7833973 5.96843348,49.3754153 5.9710045,50.1054416 L5.98391088,54.7874138 C5.98649058,55.5148606 6.57721873,56.1042992 7.3046656,56.1042992 C7.30595545,56.1042992 7.30724529,56.1042992 7.30853488,56.1042992 C8.0372716,56.1017195 8.62799975,55.5097015 8.62542873,54.7796752 L8.61252235,50.097703 C8.60994292,49.368966 8.01405537,48.867234 7.28789835,48.7808176 Z" id="Path"></path>
                    <path d="M7.29176763,59.8498772 C6.63654941,59.9582202 5.96843322,60.4418952 5.97100547,61.1745012 L5.98391088,65.8564733 C5.98649058,66.5839202 6.57721873,67.1733588 7.3046656,67.1733588 C8.09660254,67.2584856 8.62800001,66.5800509 8.62542966,65.8487348 L8.61252235,61.1667626 C8.60994292,60.4393155 8.01921477,59.8498772 7.29176763,59.8498772 Z" id="Path"></path>
                </g>
            </g>
            <path d="M114.337666,123.960257 C113.250004,124.584081 112.418768,124.759777 111.843959,124.487344 C111.072957,124.190911 110.687456,123.347815 110.687456,121.958056 C110.687456,120.540291 111.072957,119.254991 111.843959,118.102154 C112.418768,117.170363 113.250004,116.392555 114.337666,115.768731 C115.425329,115.144907 116.256565,114.969211 116.831374,115.241644 C117.598933,115.512046 117.982713,116.356129 117.982713,117.773893 C117.982713,119.163652 117.598933,120.447966 116.831374,121.626834 C116.256565,122.558625 115.425329,123.336433 114.337666,123.960257 Z M115.840086,121.019163 C116.208377,120.335344 116.392523,119.557603 116.392523,118.68594 C116.392523,117.817778 116.207517,117.252638 115.837505,116.990518 C115.467493,116.728398 114.967547,116.777971 114.337666,117.139236 C113.707786,117.500501 113.205258,118.025018 112.830083,118.712786 C112.454908,119.400554 112.267321,120.180269 112.267321,121.051931 C112.267321,121.923594 112.454908,122.488129 112.830083,122.745537 C113.205258,123.002945 113.707786,122.951017 114.337666,122.589752 C114.967547,122.228486 115.468354,121.704957 115.840086,121.019163 Z" id="Shape" fill-rule="nonzero"></path>
            <polygon id="Path" fill-rule="nonzero" points="125.350251 117.428748 123.760061 118.340794 120.651961 114.625657 120.651961 120.123431 119.170193 120.973293 119.170193 113.233351 120.837828 112.276886 123.868483 115.941924 123.868483 110.538667 125.350251 109.688805"></polygon>
            <polygon id="Path" fill-rule="nonzero" points="132.129212 110.159074 128.432536 112.279287 128.432536 114.269408 132.645507 111.853076 132.645507 113.244585 126.878486 116.552235 126.878486 108.812293 132.459641 105.611246 132.459641 106.981752 128.432536 109.29148 128.432536 110.935036 132.129212 108.814824"></polygon>
            <polygon id="Path" fill-rule="nonzero" points="105.687134 133.871304 107.277324 132.959257 107.277324 139.30769 111.046282 137.146021 111.046282 138.53753 105.687134 141.611246"></polygon>
            <path d="M115.512239,136.191391 C114.424576,136.815215 113.59334,136.99091 113.018531,136.718477 C112.24753,136.422044 111.862029,135.578948 111.862029,134.189189 C111.862029,132.771425 112.24753,131.486125 113.018531,130.333288 C113.59334,129.401496 114.424576,128.623689 115.512239,127.999864 C116.599901,127.37604 117.431137,127.200345 118.005946,127.472778 C118.773506,127.74318 119.157285,128.587263 119.157285,130.005027 C119.157285,131.394786 118.773506,132.679099 118.005946,133.857967 C117.431137,134.789759 116.599901,135.567567 115.512239,136.191391 Z M117.014659,133.250297 C117.38295,132.566477 117.567095,131.788736 117.567095,130.917074 C117.567095,130.048912 117.382089,129.483771 117.012077,129.221652 C116.642065,128.959532 116.142119,129.009105 115.512239,129.37037 C114.882358,129.731635 114.37983,130.256152 114.004656,130.94392 C113.629481,131.631687 113.441893,132.411403 113.441893,133.283065 C113.441893,134.154727 113.629481,134.719263 114.004656,134.976671 C114.37983,135.234079 114.882358,135.182151 115.512239,134.820885 C116.142119,134.45962 116.642926,133.936091 117.014659,133.250297 Z" id="Shape" fill-rule="nonzero"></path>
            <path d="M125.037892,130.323669 C124.617972,130.827061 124.101676,131.254455 123.489005,131.605849 C122.480508,132.184269 121.654435,132.302743 121.010787,131.961272 C120.339602,131.632094 120.00401,130.847889 120.00401,129.608658 C120.00401,128.355425 120.343044,127.156286 121.021112,126.011242 C121.699181,124.866198 122.595814,123.973868 123.711012,123.334251 C124.678206,122.779521 125.455231,122.583283 126.042087,122.745538 C126.628943,122.907792 126.965396,123.337062 127.051445,124.033348 L125.487069,124.930588 C125.3666,124.471084 125.072312,124.270553 124.604204,124.328996 C124.342614,124.363508 124.051768,124.472561 123.731664,124.656155 C123.118994,125.007549 122.615605,125.531684 122.2215,126.228559 C121.827394,126.925435 121.630341,127.74646 121.630341,128.691636 C121.630341,129.643814 121.843743,130.195294 122.270548,130.346075 C122.697352,130.496857 123.18267,130.416292 123.726501,130.10438 C124.260007,129.798391 124.697137,129.391022 125.037892,128.882275 C125.378647,128.373528 125.588607,127.842655 125.667773,127.289656 L123.907205,128.299422 L123.907205,127.007681 L127.07726,125.18951 L127.07726,129.343034 L126.024017,129.947117 L125.863965,129.072734 C125.55763,129.615999 125.282272,130.032978 125.037892,130.323669 Z" id="Path" fill-rule="nonzero"></path>
            <polygon id="Path" fill-rule="nonzero" points="128.471258 120.80357 130.051122 119.897446 130.051122 127.637388 128.471258 128.543512"></polygon>
            <polygon id="Path" fill-rule="nonzero" points="137.687134 123.257787 136.096943 124.169834 132.988844 120.454696 132.988844 125.952471 131.507076 126.802332 131.507076 119.06239 133.17471 118.105926 136.205365 121.770964 136.205365 116.367707 137.687134 115.517845"></polygon>
        </g>
    </g>
</svg>