<?xml version="1.0" encoding="UTF-8"?>
<svg width="140px" height="140px" viewBox="0 0 140 140" version="1.1" xmlns="http://www.w3.org/2000/svg" xmlns:xlink="http://www.w3.org/1999/xlink">
    <title>outgoing-mail.1</title>
    <g id="outgoing-mail.1" stroke="none" fill="none" fill-rule="evenodd" stroke-width="1">
        <g id="Layer_1" transform="translate(6.6039, 27.3017)" fill="#000000">
            <path d="M70.6473556,8.05092905 L65.8931545,10.7943326 C65.2611527,11.1593459 65.0444663,11.9667605 65.4094796,12.5987622 C65.7780245,13.2349835 66.5879935,13.443989 67.2139092,13.0824371 L71.9681103,10.3390336 C72.600112,9.9740203 72.8167985,9.16660569 72.4517852,8.53460396 C72.0841922,7.90260222 71.275488,7.68462592 70.6473556,8.05092905 Z" id="Path"></path>
            <path d="M125.735983,12.8322159 L106.559244,8.92283347 C106.171014,8.84802513 105.767307,8.94347026 105.457755,9.19498105 C105.150783,9.44649184 104.97279,9.8231135 104.97408,10.2203717 L104.997297,18.0945977 L96.7674083,22.8604069 L96.7232328,7.39313086 C96.720764,6.90923698 96.4205834,6.45946452 96.0615656,6.2516583 C96.0599532,6.25069098 96.0580186,6.25133577 96.0564065,6.25036845 L85.6090303,0.179282184 C85.2001638,-0.0606204953 84.6945625,-0.0580410613 84.2856959,0.176702486 L75.6491982,5.16306743 C75.0171964,5.52808071 74.80051,6.33549532 75.1655232,6.96749705 C75.5305365,7.59949879 76.3392407,7.81360554 76.9699529,7.45117196 L84.9434936,2.84658754 L92.7672562,7.39313086 L41.7189255,36.8658566 L33.8958076,32.319797 L62.3913487,15.8671143 C63.0233505,15.502101 63.2400369,14.6946864 62.8750236,14.0626846 C62.5087205,13.4281032 61.6974366,13.2152863 61.070594,13.5790097 L30.6003698,31.1718754 C30.5969842,31.1738101 30.5956943,31.1780019 30.5923085,31.1799368 C30.59118,31.1805816 30.5898902,31.1802593 30.5887614,31.1809041 C30.1786053,31.4182274 29.9270942,31.8567591 29.9283841,32.3301155 L30.0056107,54.5754493 L21.7549244,59.3385127 L21.7368673,52.9617488 C21.7355775,52.3916575 21.3679848,51.8860559 20.8249792,51.7093535 C20.2871327,51.5365203 19.6899556,51.7235413 19.3507382,52.1839997 L0.255256494,78.2211775 C-0.0104421094,78.5849414 -0.0736423358,79.0582573 0.0888723057,79.478732 C0.250097362,79.8979168 0.615110645,80.2061789 1.05622185,80.2964649 L20.2368307,84.2122963 C21.052168,84.3801616 21.82472,83.7544881 21.8219945,82.9147581 L21.8000678,75.0224747 L30.0402745,70.2647266 L30.0612338,78.0006218 C30.0625236,78.4701089 30.3127446,78.9034815 30.7190314,79.1382251 C36.3781326,82.4249467 41.5489591,85.3868403 41.2579834,85.2394604 C41.6991503,85.4629181 42.1238015,85.4408003 42.5077991,85.2196298 L96.1931249,54.2244624 C96.6637003,53.952345 96.8544696,53.3753511 96.8535023,53.0765409 L96.8120676,38.5292146 L105.033411,33.7888788 L105.052758,40.1746763 C105.05439,40.8983445 105.640937,41.4915618 106.373513,41.4915618 C106.786248,41.4915618 107.184796,41.2980918 107.438887,40.9524255 L126.536949,14.9075035 C126.802647,14.5437801 126.865847,14.0704237 126.703333,13.6499491 C126.542108,13.230764 126.177094,12.9212121 125.735983,12.8322159 Z M45.7023101,80.3245182 L63.5724825,51.2351909 L68.0355113,53.5537668 C68.6826883,53.887301 69.4731087,53.5712497 69.7793204,53.057194 L74.6870077,44.8063463 L92.6758418,53.2042309 C86.0552402,57.0266525 49.9630722,77.8645581 45.7023101,80.3245182 Z M68.1464341,50.6349501 C51.5857356,42.0312517 53.6792869,43.1189054 44.4644251,38.3315526 L91.6801163,11.0716396 L68.1464341,50.6349501 Z M61.2216617,50.0139117 L43.1549562,79.4227869 L43.0445171,40.5704833 L61.2216617,50.0139117 Z M76.0443603,42.5243684 L94.0952659,12.1774814 L94.205705,51.0031879 L76.0443603,42.5243684 Z M19.816356,73.1174408 C19.4061999,73.354764 19.1546888,73.792006 19.1559787,74.2653623 L19.1753256,81.2999289 L3.60486559,78.120573 L19.106966,56.9846332 L19.119864,61.6266167 C19.1211538,62.0973936 19.3739545,62.5320558 19.7815312,62.7680892 C20.1903977,63.0041226 20.6947092,63.0002531 21.100996,62.7667994 L31.8156831,56.5812483 C31.8698547,56.5596442 31.9132243,56.5241748 31.9633652,56.4959603 L34.6580788,54.9403009 L34.6851646,64.5325349 L19.816356,73.1174408 Z M32.7001635,77.2357706 L32.6775921,68.7419571 L36.6688766,66.437569 C37.0790328,66.2002458 37.3305439,65.7630038 37.329254,65.2896475 L37.2931396,52.6521967 C37.2918497,52.1814197 37.0390491,51.7467575 36.6314723,51.5107241 C36.2226058,51.2746907 35.7182943,51.2785603 35.3120075,51.512014 L32.6417999,53.0534855 L32.5776323,34.6246688 L40.3912379,39.1621834 L40.5150586,81.7745751 L32.7001635,77.2357706 Z M107.682659,36.1517914 L107.668471,31.503354 C107.667182,31.032577 107.414381,30.5979148 107.006804,30.3631712 C106.597938,30.1284277 106.094916,30.1284277 105.688629,30.3631712 L96.8033614,35.4860938 L96.7759531,25.9072364 L106.982298,19.9970524 C107.391165,19.7610191 107.642675,19.3224873 107.641386,18.8504207 L107.620749,11.8352012 L123.187339,15.0081081 L107.682659,36.1517914 Z" id="Shape" fill-rule="nonzero"></path>
        </g>
    </g>
</svg>