<?xml version="1.0" encoding="UTF-8"?>
<svg width="78px" height="140px" viewBox="0 0 78 140" version="1.1" xmlns="http://www.w3.org/2000/svg" xmlns:xlink="http://www.w3.org/1999/xlink">
    <title>Layer_1 Copy</title>
    <g id="ICONS" stroke="none" stroke-width="1" fill="none" fill-rule="evenodd">
        <g id="Layer_1-Copy" fill="#000000">
            <path d="M28.9632353,136.955755 C28.1029412,136.955755 27.5294118,137.538695 27.5294118,138.413106 C27.5294118,139.287517 28.1029412,139.870458 28.9632353,139.870458 C30.6838235,139.870458 32.1176471,140.161928 33.8382353,139.870458 C34.6985294,139.870458 35.2720588,139.287517 35.2720588,138.413106 C35.2720588,137.538695 34.4117647,136.955755 33.5514706,136.955755 C32.1176471,136.955755 30.3970588,136.955755 28.9632353,136.955755 Z" id="Path"></path>
            <path d="M43.3014706,80.9934559 L43.3014706,92.3607978 C43.3014706,92.9437384 43.5882353,93.2352087 44.1617647,93.526679 C44.7352941,93.8181494 45.0220588,93.8181494 45.5955882,93.526679 L52.7647059,89.4460948 C53.3382353,89.1546245 53.625,88.5716839 53.625,88.2802135 L53.625,76.9128716 C53.625,76.329931 53.3382353,76.0384607 52.7647059,75.7469904 C52.1911765,75.4555201 51.9044118,75.4555201 51.3308824,75.7469904 L44.1617647,79.8275747 C43.5882353,80.119045 43.3014706,80.7019856 43.3014706,80.9934559 Z M50.1838235,79.5361044 L50.1838235,87.6972729 L45.8823529,90.0290354 L45.8823529,81.8678668 L50.1838235,79.5361044 Z" id="Shape" fill-rule="nonzero"></path>
            <path d="M65.0955882,72.8322873 C65.6691176,73.1237577 66.2426471,73.1237577 66.5294118,72.8322873 L77.4264706,65.5455297 C78,65.2540594 78,64.6711188 78,64.3796485 C78,63.7967079 77.7132353,63.5052376 77.1397059,63.2137673 L68.8235294,58.8417127 L68.8235294,49.5146629 C68.8235294,49.5146629 68.8235294,49.5146629 68.8235294,49.5146629 C68.8235294,49.5146629 68.8235294,49.5146629 68.8235294,49.5146629 C68.8235294,48.9317223 68.5367647,48.640252 67.9632353,48.3487817 L57.9264706,42.5193756 L57.9264706,36.1070288 C58.7867647,34.9411476 59.6470588,34.0667367 60.2205882,32.9008555 C61.0808824,31.1520336 61.3676471,29.4032118 61.3676471,27.65439 C61.3676471,27.3629197 61.3676471,18.0358699 61.3676471,18.3273402 C61.3676471,18.3273402 61.3676471,18.3273402 61.3676471,18.3273402 C61.3676471,13.372345 58.2132353,8.70882011 52.1911765,5.21117644 C36.9926471,-4.40734365 10.3235294,-0.0352890615 4.30147059,12.7894044 C3.44117647,14.5382262 3.15441176,16.2870481 3.15441176,18.0358699 C3.15441176,18.0358699 3.15441176,18.0358699 3.15441176,18.0358699 C3.15441176,18.0358699 3.15441176,18.0358699 3.15441176,18.0358699 L3.15441176,27.3629197 C3.15441176,30.2776227 4.30147059,33.1923258 6.59558824,35.8155585 L6.59558824,81.2849262 C4.30147059,83.033748 2.58088235,85.3655105 1.43382353,87.4058026 C0.573529412,89.1546245 0,91.1949166 0,92.9437384 C0,92.9437384 0,92.9437384 0,92.9437384 L0,92.9437384 C0,92.9437384 0,92.9437384 0,92.9437384 C0,92.9437384 0,92.9437384 0,92.9437384 L0,119.759007 C0,125.296942 3.72794118,130.251938 10.0367647,134.041052 C13.7647059,136.372814 18.6397059,137.830166 23.8014706,138.704576 C24.6617647,138.704576 25.2352941,138.413106 25.5220588,137.538695 C25.5220588,136.664284 25.2352941,136.081344 24.375,135.789873 C19.5,134.915462 14.9117647,133.458111 11.4705882,131.417819 C6.02205882,128.211645 2.86764706,123.839591 2.86764706,119.467536 L2.86764706,100.521966 C2.86764706,100.521966 2.86764706,100.521966 2.86764706,100.521966 C3.44117647,101.396377 4.58823529,102.562259 4.875,102.853729 C10.8970588,108.683135 20.3602941,111.306368 28.6764706,111.889308 C39.5735294,112.763719 49.3235294,110.140486 55.9191176,106.059902 C58.2132353,104.602551 60.7941176,102.562259 62.5147059,100.521966 L62.5147059,119.176066 C62.5147059,120.633417 62.2279412,122.090769 61.3676471,123.548121 C58.5,129.668997 49.8970588,134.332522 39.2867647,135.498403 C38.4264706,135.498403 37.8529412,136.372814 38.1397059,137.247225 C38.1397059,138.121636 39,138.704576 39.8602941,138.413106 C51.6176471,136.955755 60.7941176,131.709289 64.2352941,124.714002 C65.0955882,122.96518 65.6691176,120.924888 65.6691176,119.176066 L65.6691176,92.0693275 C65.6691176,92.0693275 65.6691176,92.0693275 65.6691176,92.0693275 L65.6691176,92.0693275 L65.6691176,92.0693275 C65.6691176,92.0693275 65.6691176,92.0693275 65.6691176,92.0693275 C65.6691176,87.6972729 63.375,83.6166887 59.0735294,80.119045 L59.0735294,68.4602328 L65.0955882,72.8322873 Z M65.6691176,69.9175843 C65.3823529,69.626114 49.0367647,61.1734751 49.8970588,61.7564157 C59.3602941,56.2184799 54.7720588,58.8417127 58.5,56.5099502 L73.6985294,64.6711188 L65.6691176,69.9175843 Z M55.6323529,91.7778572 C55.6323529,92.9437384 55.3455882,94.1096197 54.7720588,94.9840306 C47.3161765,110.140486 9.17647059,106.059902 9.17647059,91.4863869 L9.17647059,38.147321 C10.8970588,39.6046725 12.9044118,40.4790834 14.625,41.3534943 C18.9264706,43.3937865 23.8014706,44.5596677 28.6764706,44.851138 C37.5661765,45.4340786 47.8897059,43.6852568 55.3455882,38.4387913 C55.3455882,38.4387913 55.6323529,38.147321 55.6323529,38.147321 L55.6323529,42.2279053 C53.0514706,48.0573114 47.0294118,51.2634847 37.2794118,52.7208363 C36.7058824,52.7208363 36.1323529,53.5952472 36.1323529,54.1781878 L36.1323529,64.0881782 C36.1323529,64.6711188 36.4191176,64.9625891 36.9926471,65.2540594 L47.8897059,71.6664061 C48.4632353,71.9578764 48.75,71.9578764 49.3235294,71.6664061 C49.3235294,71.6664061 49.3235294,71.6664061 49.3235294,71.6664061 C50.4705882,71.0834655 56.2058824,67.5858218 55.9191176,67.8772922 L55.6323529,91.7778572 Z M39,57.0928908 L47.0294118,61.7564157 L47.0294118,68.4602328 L39,63.7967079 L39,57.0928908 Z M49.8970588,68.1687625 L49.8970588,64.6711188 L53.0514706,66.4199406 L49.8970588,68.1687625 Z M66.5294118,51.8464253 L66.5294118,57.0928908 L61.9411765,54.4696581 L66.5294118,51.8464253 Z M48.4632353,59.133183 L41.5808824,55.344069 C47.8897059,53.8867175 54.4852941,50.9720144 57.6397059,45.1426083 L65.0955882,49.5146629 C64.2352941,49.8061332 47.3161765,60.0075939 48.4632353,59.133183 Z M6.88235294,13.9552856 C12.6176471,2.29647338 37.5661765,-0.909699978 51.6176471,7.54293888 C57.0661765,10.7491122 61.0808824,15.9955777 58.2132353,21.8249839 C52.4779412,33.4837961 27.5294118,36.6899694 13.4779412,28.2373306 C7.74264706,25.3226275 4.01470588,19.7846917 6.88235294,13.9552856 Z M5.73529412,25.6140978 C7.16911765,27.3629197 9.17647059,29.4032118 12.0441176,30.8605633 C17.2058824,33.7752664 23.2279412,35.2326179 28.9632353,35.8155585 C39.2867647,36.6899694 52.7647059,33.7752664 59.0735294,25.9055681 C59.0735294,25.9055681 59.0735294,25.9055681 59.0735294,25.9055681 L59.0735294,27.3629197 C59.0735294,28.5288009 58.7867647,29.9861524 58.2132353,31.1520336 C53.9117647,40.1876131 38.7132353,43.1023162 28.6764706,42.2279053 C24.375,41.9364349 20.0735294,40.7705537 16.0588235,39.0217319 C11.1838235,36.6899694 5.73529412,32.6093852 5.73529412,27.0714494 L5.73529412,25.6140978 Z M61.0808824,97.6072633 C51.9044118,116.844303 2.58088235,112.180779 2.58088235,92.9437384 C2.58088235,91.4863869 2.86764706,90.0290354 3.72794118,88.5716839 C4.30147059,87.4058026 5.16176471,86.2399214 6.30882353,85.0740402 L6.30882353,91.7778572 C6.30882353,101.687848 18.9264706,106.934313 29.5367647,107.808724 C39.2867647,108.391665 53.0514706,105.476962 57.3529412,96.7328524 C58.2132353,95.2755009 58.5,93.8181494 58.5,92.0693275 L58.5,85.0740402 C61.9411765,88.5716839 63.375,92.9437384 61.0808824,97.6072633 Z" id="Shape" fill-rule="nonzero"></path>
        </g>
    </g>
</svg>