<?xml version="1.0" encoding="UTF-8"?>
<svg width="140px" height="140px" viewBox="0 0 140 140" version="1.1" xmlns="http://www.w3.org/2000/svg" xmlns:xlink="http://www.w3.org/1999/xlink">
    <title>chat-review.1</title>
    <g id="chat-review.1" stroke="none" fill="none" fill-rule="evenodd" stroke-width="1">
        <g id="Layer_1" transform="translate(9.1983, 5.3806)" fill="#000000">
            <path d="M84.262132,10.3185046 L78.3976862,13.7036082 C77.7535306,14.075641 77.5326771,14.8985828 77.9047099,15.5427384 C78.2803372,16.1911961 79.1058875,16.4042209 79.7438401,16.0357147 L85.6082858,12.6506111 C86.2524414,12.2785784 86.4732949,11.4556366 86.1012622,10.8114809 C85.7279147,10.1660107 84.9010292,9.94778648 84.262132,10.3185046 Z" id="Path"></path>
            <path d="M119.392278,9.06437302 L105.186674,0.468182134 C103.941744,-0.24827675 102.343187,-0.137850135 100.80773,0.767911634 L90.1936223,6.89527736 C89.5494667,7.26731013 89.3286132,8.09025194 89.700646,8.73440756 C90.0713641,9.37856317 90.8956206,9.59678736 91.5397762,9.2273839 L102.164401,3.09344517 C102.841421,2.69380575 103.467173,2.58469379 103.816857,2.78582802 L114.962557,9.53056413 L19.9892016,64.3784473 L8.25883154,57.2968432 L74.6287185,18.9870006 C75.2728741,18.6149679 75.4937276,17.7920261 75.1216948,17.1478704 C74.7496621,16.5037148 73.9227766,16.2828613 73.2825647,16.6548941 L4.93765031,56.1048267 C4.93666438,56.1053196 4.93650015,56.1064701 4.93551396,56.106963 C4.935021,56.1072917 4.93419931,56.1071272 4.93370635,56.107456 C2.16778073,57.7165306 0,61.4723524 0,64.6563217 C0,64.6569789 0,64.6576364 0,64.6582936 C0,64.6589508 0,64.6596082 0,64.6602654 L0.151179269,112.756344 C0.151179269,114.533688 0.8203125,115.914022 2.03237677,116.642312 C3.16321815,117.324919 -2.63047912,113.827623 16.399677,125.31475 C17.3300438,125.8736 19.0837632,126.00616 20.7970253,125.026852 L49.8745727,108.232137 L46.9168794,120.191741 C46.7735875,120.772796 47.0299353,121.378828 47.547889,121.679872 L60.2561597,129.057426 C60.2803156,129.071394 60.3098941,129.066135 60.3347072,129.07846 C60.3588631,129.090456 60.3757886,129.111161 60.4007659,129.121842 C60.425579,129.132523 60.452364,129.128415 60.4775058,129.137453 C60.5236813,129.154378 60.5595041,129.187408 60.6084732,129.199403 C60.7167637,129.225531 60.8237396,129.238842 60.9307152,129.238842 C60.9310439,129.238842 60.9315369,129.238842 60.9318653,129.238842 C60.9320296,129.238842 60.9321941,129.238842 60.9323583,129.238842 C60.932687,129.238842 60.9328513,129.238842 60.93318,129.238842 C61.1021064,129.238842 61.2634742,129.200225 61.4162968,129.140739 C61.4297716,129.135645 61.4443965,129.137946 61.457707,129.132359 C61.4859708,129.120363 61.5028965,129.093085 61.5300102,129.079281 C61.5336255,129.077474 61.5370762,129.075338 61.5405272,129.07353 C61.559096,129.063835 61.5760215,129.054961 61.5940974,129.044609 C61.7015662,128.982823 61.7967105,128.908712 61.8839674,128.819483 C61.9192975,128.783167 61.9534771,128.751288 61.9845345,128.711192 C62.0172353,128.669289 62.0502648,128.629851 62.0780357,128.583512 L89.1524563,85.5572007 L116.697341,69.6597021 C119.448806,68.0729757 121.60344,64.3303 121.60344,61.1384429 C121.60344,61.1371283 121.60344,61.1358136 121.60344,61.1344992 L121.453576,13.0371046 C121.453576,11.2909403 120.86034,9.95752913 119.392278,9.06437302 Z M5.65394469,58.8696019 C6.30773527,59.2643219 18.3607776,66.5412419 17.6012243,66.0826662 C16.2171883,67.4422025 15.1228915,69.4268479 14.6696588,71.1281139 L2.74637058,63.9288529 C3.00699081,62.0926805 4.19227012,60.0331901 5.65394469,58.8696019 Z M3.42059792,114.335183 C3.0538235,114.114329 2.84348696,113.539847 2.84348696,112.7524 L2.70019535,67.0465991 L14.3656568,74.0902438 C14.4068588,87.1972398 14.438851,97.3737386 14.5132212,121.031772 L3.42059792,114.335183 Z M53.1086613,106.371315 C53.3788944,106.215093 67.7174481,97.9259438 66.8066641,98.4524733 L62.4273917,116.208985 L60.0504245,125.823994 L49.772198,119.857831 L53.1086613,106.371315 Z M115.351187,67.3275955 L87.51709,83.3920487 C87.3277871,83.5011607 87.1674055,83.6562839 87.0504059,83.8416431 L64.2553477,120.067346 L70.2077075,96.0161847 C70.5088801,94.8049214 69.1106093,94.002233 68.1989934,94.5280536 C1.40155212,133.124213 24.4400684,119.812344 19.4561298,122.692116 C17.9808214,123.533863 17.2068435,122.892727 17.2068435,121.424839 L17.055664,73.3285956 C17.055664,71.0648487 18.6976036,68.2188966 20.6471604,67.1080569 L116.522498,11.7382777 C117.753532,11.0239627 118.761268,11.2448738 118.761268,13.0410496 L118.911133,61.1423866 C118.909818,63.3837856 117.27971,66.2154412 115.351187,67.3275955 Z" id="Shape" fill-rule="nonzero"></path>
            <path d="M110.125639,22.9965409 L24.4963191,72.4479757 C23.8521635,72.8200085 23.63131,73.6429503 24.0033427,74.2871059 C24.3763358,74.9329717 25.2017861,75.1501687 25.8424729,74.7800822 L111.471792,25.3286474 C112.115948,24.9566146 112.336802,24.1336728 111.964769,23.4895172 C111.592736,22.8453616 110.76585,22.6258227 110.125639,22.9965409 Z" id="Path"></path>
            <path d="M101.742413,40.0929577 C101.374324,39.4474875 100.550068,39.2266342 99.9045974,39.5986667 L24.4976337,83.0121283 C23.8534781,83.3828464 23.6313102,84.2057882 24.0033427,84.8499438 C24.3732957,85.4939352 25.1980707,85.7157025 25.8411583,85.3442348 L101.248122,41.9307733 C101.892278,41.5600549 102.114446,40.7371134 101.742413,40.0929577 Z" id="Path"></path>
            <path d="M48.9505708,83.2448131 L44.8424353,85.6163577 L43.6395734,82.0800745 C43.5067985,81.7014687 43.0374851,81.2058634 42.6615083,81.0665154 C42.175105,80.8851002 41.6400616,80.9455719 41.1536583,81.226897 C40.584435,81.5555478 40.1453575,82.1536924 39.9770883,82.8359717 L38.4994742,89.2788427 L33.3935547,92.2261836 C32.5666692,92.7033846 32.0368838,93.7484943 32.1591421,94.6555707 C32.2537937,95.3615127 32.7244214,95.9057586 33.3882963,96.0792862 L36.5919847,96.9101157 L35.2129658,102.656247 C34.8910625,103.98109 35.7705837,104.943657 36.8154672,104.943657 C37.5011304,104.943657 38.1075889,104.537598 38.4994742,103.977423 L42.3893855,98.4008758 L46.0032303,99.3276712 C46.4541393,99.4538731 46.935284,99.3789408 47.3599011,99.1317953 C48.2091349,98.6414483 48.8716948,97.4057211 48.5049207,96.3592967 L46.9996999,91.9343417 L51.0723411,86.1724352 C51.699407,85.2811341 51.70598,84.1873841 51.0907455,83.5129926 C50.5530725,82.9253644 49.6946364,82.8149377 48.9505708,83.2448131 Z M44.7569861,90.4422664 C44.310021,91.0443547 44.1509538,91.8239146 44.359976,92.5298565 L45.6995568,96.4710374 L42.5655424,95.6678149 C42.109375,95.5389837 41.6229717,95.6112869 41.1812649,95.8663201 C40.8789061,96.0437916 40.610727,96.3027685 40.4345701,96.5748913 L38.9227763,98.737414 L39.4026067,96.7379022 C39.5222356,96.1818249 39.4367863,95.6454669 39.1607195,95.2274228 C38.9779896,94.9500416 38.5218222,94.6305929 38.1997444,94.5477729 L35.8255708,93.9312239 L39.8469424,91.6096344 C40.4069634,91.2862419 40.8460411,90.6894119 41.0300854,89.9874137 L42.0462738,85.7530763 L42.6759687,87.6014085 C42.7929683,87.9984186 43.2530797,88.5203163 43.6369438,88.6741249 C44.1259762,88.8686861 44.6938848,88.8121581 45.1908049,88.52426 L46.7486099,87.6250712 L44.7569861,90.4422664 Z" id="Shape" fill-rule="nonzero"></path>
            <path d="M75.9025691,67.683853 L71.7957482,70.0553975 L70.5915716,66.5151707 C70.457482,66.1378796 69.990798,65.6475325 69.6148212,65.5081846 C69.1310472,65.3267694 68.5894305,65.384612 68.0990835,65.6711955 C68.0977688,65.6711955 68.0964542,65.6725101 68.0964542,65.6725101 C67.5193432,66.0064193 67.0776365,66.6085079 66.9133112,67.2855285 L65.4514722,73.7178829 L60.3297773,76.6744257 C59.5120941,77.1463684 58.9888818,78.1849051 59.11114,79.0919813 C59.207106,79.7979232 59.677734,80.3434838 60.3402943,80.5170114 L63.5321513,81.3452116 L62.1439302,87.1281517 C61.9664586,87.9155992 62.2044018,88.6373164 62.7801981,89.0606186 C63.5500832,89.6249634 64.7072526,89.4666153 65.4541015,88.4138336 L69.3440128,82.8425447 L72.9946662,83.7916884 C73.4311146,83.888969 73.896484,83.8114074 74.3040111,83.5760935 C75.1598179,83.0831172 75.8263218,81.8434462 75.4569184,80.7970219 L73.9516976,76.3733816 L77.9967322,70.6338234 C78.6422024,69.739893 78.6632361,68.63957 78.0466871,67.957291 C77.5103291,67.3630898 76.6466346,67.2539779 75.9025691,67.683853 Z M71.710299,74.8813066 C71.2225812,75.5372935 71.07666,76.354977 71.3119742,76.9688966 L72.6568134,80.9219089 L69.5214843,80.1068547 C69.0666316,79.9806528 68.5723406,80.0463831 68.1411508,80.3027306 C67.8479943,80.4709999 67.5798152,80.7220891 67.368164,81.0244479 L65.8563702,83.1935435 L66.3256836,81.2426721 C66.4729192,80.6760781 66.4045598,80.1265737 66.1311223,79.6940693 C65.9483925,79.4048565 65.4856521,79.072262 65.154372,78.9868127 L62.7788837,78.3689491 L66.7989409,76.0486742 C67.3760519,75.7147651 67.8256463,75.0850698 67.9663088,74.4356559 L68.9903849,70.1671388 L69.6266528,72.0338756 C69.7410234,72.4308857 70.1998198,72.9567271 70.5836842,73.1118503 C71.0687729,73.3077262 71.6314232,73.2604006 72.1270286,72.9738171 L73.6914067,72.0693699 L71.710299,74.8813066 Z" id="Shape" fill-rule="nonzero"></path>
            <path d="M102.855882,52.1215784 L98.7477465,54.4944376 L97.5448845,50.9568401 C97.4121096,50.5782343 96.9441108,50.085258 96.5681341,49.9472247 C96.0777871,49.7644948 95.5414288,49.8249665 95.0510817,50.1102356 C94.4766001,50.4415157 94.0348933,51.0396601 93.8653095,51.7232539 L92.404785,58.1556083 L87.2830902,61.1134659 C86.4496317,61.5946106 85.9237903,62.6462933 86.060509,63.5599427 C86.1669919,64.2698286 86.6520806,64.8075013 87.2936069,64.9560515 L90.4854639,65.782937 L89.1038158,71.5408998 C88.5905556,73.6180451 91.0270806,74.7628746 92.4074141,72.852874 L96.2881233,67.2789557 L99.9072265,68.2188972 C100.34499,68.3306384 100.822191,68.2609645 101.25338,68.0164483 C102.110502,67.5208429 102.779635,66.2785427 102.410231,65.2360623 L100.905011,60.812422 L104.960562,55.0597175 C105.591572,54.1618434 105.602089,53.0628351 104.986854,52.3884435 C104.450496,51.8021297 103.593375,51.6943324 102.855882,52.1215784 Z M98.6636118,59.3203464 C98.1758941,59.9763334 98.0286585,60.7953315 98.2652871,61.4066218 L99.6088116,65.3596341 L96.4747972,64.5458949 C96.0252028,64.4223222 95.5387995,64.4867376 95.0878907,64.7430854 C94.7934195,64.9139839 94.5252404,65.1677022 94.3214768,65.463488 L92.8109975,67.6286397 L93.2789962,65.6817122 C93.4275464,65.1138035 93.3578725,64.5616702 93.0818057,64.1278511 C92.8990758,63.8399529 92.4350207,63.5113021 92.1063699,63.4258529 L89.7321963,62.8079892 L93.7483096,60.489029 C94.3267352,60.1564342 94.777644,59.5267392 94.9196212,58.874696 L95.9436972,54.6061789 L96.5812798,56.4794887 C96.6969651,56.8764989 97.1597055,57.3997112 97.5435696,57.5522051 C98.0286583,57.7467663 98.592623,57.695497 99.080341,57.4115425 L100.647348,56.5070954 L98.6636118,59.3203464 Z" id="Shape" fill-rule="nonzero"></path>
        </g>
    </g>
</svg>