<?xml version="1.0" encoding="UTF-8"?>
<svg width="142px" height="140px" viewBox="0 0 142 140" version="1.1" xmlns="http://www.w3.org/2000/svg" xmlns:xlink="http://www.w3.org/1999/xlink">
    <title>document-review.3</title>
    <g id="document-review.3" stroke="none" fill="none" fill-rule="evenodd" stroke-width="1">
        <g id="Layer_1" transform="translate(27.7101, 6.6104)" fill="#000000">
            <path d="M1.52015796,97.886756 C1.52146623,97.886756 1.52277451,97.886756 1.52408252,97.886756 C2.26453803,97.8841763 2.86239688,97.2921583 2.85978915,96.562132 L2.84015727,89.9209542 C2.83754072,89.1922174 2.2383736,88.6040687 1.50053463,88.6040687 C0.703825411,88.6556608 0.158295438,89.1973766 0.160902617,89.9286927 L0.180535317,96.5698706 C0.1831516,97.2986073 0.782318725,97.886756 1.52015796,97.886756 Z" id="Path"></path>
            <path d="M21.4627459,47.2492265 C21.690377,47.2492265 21.9206247,47.1924752 22.131249,47.072524 L61.2249386,24.8183229 C61.865969,24.4533097 62.0857509,23.6458951 61.7155232,23.0138933 C61.3426789,22.3806017 60.5211135,22.166495 59.885316,22.5302184 L20.7916263,44.7844195 C20.150596,45.1494328 19.930814,45.9568474 20.3010418,46.5888491 C20.5496048,47.0131931 20.9996341,47.2492265 21.4627459,47.2492265 Z" id="Path"></path>
            <path d="M21.4627459,59.2469417 C21.690377,59.2469417 21.9206247,59.1901905 22.131249,59.0702393 L61.2249386,36.8160382 C61.865969,36.4510249 62.0857509,35.6436103 61.7155232,35.0116086 C61.3426789,34.378317 60.5211135,34.1629204 59.885316,34.5279337 L20.7916263,56.7821348 C20.150596,57.147148 19.930814,57.9545626 20.3010418,58.5865644 C20.5496048,59.0109083 20.9996341,59.2469417 21.4627459,59.2469417 Z" id="Path"></path>
            <path d="M80.0954336,48.291868 C80.0946159,48.2913844 80.094289,48.2905782 80.0934713,48.2900945 L80.092163,48.2888047 L80.0910184,48.2888047 C80.0789174,48.281872 80.0689423,48.2723597 80.0568412,48.2655882 C80.0458847,48.2593003 80.0336202,48.2559147 80.0226639,48.2496269 L73.1284801,44.2955855 C72.427762,43.8949414 71.6802748,43.6040917 70.9133278,43.362738 L70.8089966,7.71558246 C70.8076883,7.24480551 70.5512762,6.81014329 70.137877,6.57410989 C70.1365687,6.5733037 70.135097,6.57362623 70.1337887,6.57298144 L58.9734828,0.179283399 C58.5587753,-0.0593294308 58.0459511,-0.0593294308 57.6312487,0.176703701 L0.669811589,32.5996833 C0.462784966,32.7178612 0.295822706,32.8858576 0.180208181,33.0833582 C0.125262755,33.1773523 0.124608483,33.2923058 0.0943557849,33.3974244 C0.060995966,33.5128616 0,33.6189475 0,33.7424457 C0,33.743413 0,33.7440581 0,33.7450254 C0,33.7459927 0,33.7466378 0,33.7476051 L0.143904675,83.6654263 C0.146521226,84.3941631 0.681585264,85.0480914 1.48745188,84.9823118 C2.22659912,84.9797321 2.82576624,84.3877141 2.82314996,83.6576878 L2.68578639,36.0434485 L8.22546628,39.2170002 L11.1670107,40.902607 L11.3933338,119.643095 L2.91210974,114.78442 L2.87286309,101.019679 C2.87024654,100.292232 2.27107941,99.7027938 1.53324045,99.7027938 C1.53193217,99.7027938 1.53062389,99.7027938 1.52931589,99.7027938 C0.790168645,99.7053735 0.191001521,100.297391 0.193617804,101.027418 L0.235481011,115.549271 C0.236789287,116.018758 0.490584815,116.45213 0.902675781,116.686874 L12.06707,123.08299 C12.2750777,123.202941 12.5066337,123.262272 12.7394978,123.262272 C12.9710538,123.262272 13.2026097,123.202941 13.4093092,123.085569 C13.4099632,123.085247 13.4101269,123.084441 13.4107809,123.084118 C13.4135609,123.082506 13.4169949,123.083312 13.4197748,123.0817 L52.8665293,100.634996 C52.025504,108.874558 51.5192207,116.615935 51.5192207,118.371352 C51.5192207,120.63753 52.408814,122.44067 53.9656018,123.324182 L59.1644838,126.230101 C60.5980636,127.02889 62.6631586,127.013049 64.7767702,125.804467 C68.5196027,123.691775 71.4526435,118.686063 71.4526435,114.409088 C71.4526435,112.471164 70.7401513,103.189606 69.5630757,94.7333577 C79.2444332,87.3191065 86.6135023,73.545982 86.5797681,62.0419377 C86.5613369,55.5548905 84.2573887,50.676385 80.0954336,48.291868 Z M72.3291546,46.8932419 C67.245565,47.5381466 62.345025,50.6117993 58.5183843,54.1359499 C58.498761,54.1540069 58.4781565,54.1694846 58.4585329,54.1877031 C58.4585329,54.1878642 58.4582058,54.1878642 58.4582058,54.1880256 C50.0898211,61.9187614 44.016876,74.270043 44.0466381,84.7346703 C44.0526785,87.1561982 44.4859974,90.1806272 45.4582132,92.514741 C44.4263351,91.8742146 44.7189382,92.0424125 44.6405724,91.9949519 C41.8809787,90.3146857 40.4944744,87.0788305 40.031695,83.8846925 C38.4488141,74.9273372 43.9373758,59.714197 54.8453834,50.8047204 C59.5595883,46.9360423 66.6296054,43.6301953 71.7823163,46.5798207 L72.3291546,46.8932419 Z M58.2984389,2.84658849 L66.7927455,7.71300276 L49.9140286,17.321202 L12.4984571,38.6104718 L6.88273678,35.392422 L4.01232708,33.7476051 L58.2984389,2.84658849 Z M14.0830448,119.654703 L13.8514889,40.899382 L52.5553352,18.8679941 L68.1362927,10.0023971 L68.2331013,42.8303748 C68.2077546,42.8284402 68.1804453,42.8334382 68.1549349,42.8316646 C62.8830426,42.459089 57.3226562,45.3786712 53.2993884,48.6465646 C51.8702648,49.8047743 50.3136811,51.3069022 49.0731667,52.659937 C49.0653173,52.6686431 49.0568139,52.676382 49.0489646,52.6850881 L20.7916266,68.7798516 C20.1505963,69.1448649 19.9308143,69.9535691 20.3010421,70.5842812 C20.5496048,71.0086252 20.9996344,71.2446586 21.4627462,71.2446586 C21.6903773,71.2446586 21.9206249,71.1879073 22.1312492,71.0679561 L44.6989521,58.2139752 C42.1031061,62.0562879 40.0478844,66.2776406 38.7224885,70.5676751 L20.7877018,80.7749874 C20.1466714,81.1400007 19.9268895,81.9474153 20.2971172,82.579417 C20.5456799,83.003761 20.9957095,83.2397944 21.4588214,83.2397944 C21.6864525,83.2397944 21.9167001,83.1830431 22.1273244,83.0630919 L37.8054228,74.1400976 C37.1426431,77.3336059 36.8874472,80.1980844 37.2466472,83.4200441 L20.7890101,92.7675438 C20.1479797,93.1312672 19.9268897,93.9386818 20.2971172,94.5706836 C20.5443719,94.9950275 20.9957095,95.2323508 21.4588214,95.2323508 C21.6851445,95.2323508 21.9153921,95.1755995 22.1260161,95.0556483 L37.7544019,86.1792479 C38.410017,88.7632807 39.6162671,91.1493392 41.5487456,92.9515014 L20.7877018,104.7601 C20.1466714,105.125113 19.9268895,105.932528 20.2971172,106.564529 C20.5456799,106.987584 20.9957095,107.224907 21.4588214,107.224907 C21.6864525,107.224907 21.9167001,107.168155 22.1273244,107.048204 L43.8888335,94.670643 C46.1175077,95.9490863 50.4538705,98.4424401 50.9239784,98.6903032 L14.0830448,119.654703 Z M55.2934505,121.029629 C54.5974747,120.63495 54.198466,119.666311 54.198466,118.371352 C54.198466,116.64431 54.750537,108.34445 55.6283561,99.956884 C56.1907244,99.9892499 57.7207652,99.9389981 58.4776657,99.8356429 C58.4512355,100.113484 57.3304493,109.964096 56.8383012,118.90017 C56.787306,119.815424 56.7062521,121.141872 56.7709275,121.814149 C56.7720721,121.825758 56.7719086,121.845266 56.7730535,121.85639 L55.2934505,121.029629 Z M63.4384558,123.515073 C62.1681691,124.24123 61.0339379,124.346993 60.3706677,123.837522 C59.2763168,122.915709 59.3961729,121.3838 59.4683193,119.898797 C59.6787188,115.561574 60.4083609,106.541895 61.2432539,99.2199248 C61.9915588,98.990824 62.7562165,98.7020703 63.5321576,98.3646265 C63.5354281,98.3631755 63.5385352,98.3625305 63.5416421,98.3612409 C64.825287,97.8023646 66.0965139,97.1203226 67.0988702,96.4808745 C68.1480669,104.415721 68.7733985,112.630454 68.7733985,114.409088 C68.7733985,117.713554 66.3335582,121.882186 63.4384558,123.515073 Z M62.4692243,95.9225526 C57.9074684,97.9123908 52.9132676,98.0842868 49.6901583,94.386079 C47.4695379,91.8362965 46.738097,88.0954144 46.7284072,84.730801 C46.7026624,75.2277193 52.0742354,64.0706309 59.5558069,56.8119616 C64.5959184,51.9272792 72.7181574,47.1211133 78.7473075,50.5743298 C78.7484521,50.5749746 78.7499241,50.5749746 78.7512321,50.5756196 C82.0553184,52.4693677 83.8847079,56.5404588 83.9005162,62.0496762 C83.9389993,75.1717185 73.776399,90.9934527 62.4692243,95.9225526 Z" id="Shape" fill-rule="nonzero"></path>
            <path d="M73.7184895,52.8082625 C73.4241388,52.8082625 73.1023154,52.8340584 72.7124643,52.8675932 C62.7084456,53.8996092 49.8353967,70.1671401 49.8733888,84.1503908 C49.8733888,89.1959153 51.7403053,93.9451284 56.8803275,93.9451284 C58.8884481,93.9451284 61.2210138,93.2176816 63.6229154,91.8440449 C72.9361708,86.5571567 80.7802894,73.178066 80.7528886,62.626216 C80.7515084,56.4790319 78.1219757,52.8082625 73.7184895,52.8082625 Z M71.9963746,55.6701663 C72.0174697,55.6651683 72.0370932,55.6642009 72.0581883,55.6595255 C72.6351155,57.1951931 72.7321519,58.9662491 72.7321519,59.9834173 C72.7321519,59.9847071 72.7321519,59.985997 72.7321519,59.9872866 C72.756944,69.6904483 65.5381573,82.0196421 56.9666708,86.9105619 C55.6273753,87.6762192 54.3794918,88.1887532 53.2405182,88.4467132 C52.8381317,87.3599764 52.5526429,85.9689882 52.5526429,84.1465216 C52.5194815,71.771001 63.4312604,57.6636524 71.9963746,55.6701663 Z M62.2819848,89.5572305 C59.2444494,91.2974925 56.6348722,91.8292123 54.8962408,90.7167601 C55.9895902,90.367547 57.1270919,89.8725863 58.3102129,89.1960865 C67.6077695,83.8911409 75.4388059,70.5120505 75.4113332,59.9795475 C75.4113332,58.7610094 75.2746236,57.1800375 74.8398022,55.6371149 C77.7159353,56.5128889 78.0736353,60.701029 78.0736353,62.6300856 C78.0736353,62.6313754 78.0736353,62.6326653 78.0736353,62.6339549 C78.0984278,72.3538844 70.8691751,84.6830782 62.2819848,89.5572305 Z" id="Shape" fill-rule="nonzero"></path>
        </g>
    </g>
</svg>