<?xml version="1.0" encoding="UTF-8"?>
<svg width="96px" height="141px" viewBox="0 0 96 141" version="1.1" xmlns="http://www.w3.org/2000/svg" xmlns:xlink="http://www.w3.org/1999/xlink">
    <title>Layer_1</title>
    <g id="ICONS" stroke="none" stroke-width="1" fill="none" fill-rule="evenodd">
        <g id="Layer_1" transform="translate(0, 0.5027)" fill="#000000">
            <path d="M1.51041081,78.3044102 L1.51324955,78.3044102 C2.31658253,78.3029859 2.96662928,77.6478013 2.9637998,76.8430638 L2.94959742,70.7099671 C2.94675867,69.9052296 2.29671192,69.2543182 1.49621769,69.2543182 L1.49337895,69.2543182 C0.690045974,69.2557426 0.0399992173,69.9109271 0.0428286963,70.7156646 L0.0570310836,76.8487613 C0.0598698249,77.6534985 0.709916581,78.3044102 1.51041081,78.3044102 Z" id="Path"></path>
            <path d="M93.4668392,5.95904344 C93.0712935,5.6801644 87.0260381,2.1804488 84.3502169,0.612346203 C82.7236806,-0.331974151 80.6770267,-0.179572521 78.590632,1.03821614 L6.73349421,42.6581005 C2.93540429,44.8828792 -0.0224507656,50.0445937 0.000128408034,54.4058436 L0.0286445428,64.9101601 C0.0314832841,65.7134732 0.681530041,66.364385 1.48202427,66.364385 L1.48486301,66.364385 C2.28819599,66.3615363 2.93824274,65.7077761 2.935404,64.9016145 L2.90701775,54.3944492 C2.88998588,51.0871917 5.31417793,46.8669491 8.19255113,45.1805612 L80.0468502,3.56210084 C81.1964963,2.8912488 82.2042108,2.73742309 82.8939984,3.13480653 L87.9581184,6.09025835 C87.8417344,6.15150388 87.7253506,6.21417377 87.6089666,6.28111648 L15.760345,47.9166683 C11.8371278,50.1878987 8.99957104,55.5085798 9.01291597,59.672957 L9.07075322,83.0591266 L9.14917032,118.132506 C9.14917032,118.237905 9.15200906,118.344729 9.15768625,118.448703 L4.0708572,115.480433 C3.42648764,115.11296 3.05746552,114.162942 3.05746552,112.871089 L2.98366115,83.8606592 C2.98082241,83.0573461 2.33077565,82.4064343 1.53028142,82.4064343 L1.52744268,82.4064343 C0.724109706,82.4078587 0.07406295,83.0630432 0.0769016913,83.8692048 L0.150706058,112.875362 C0.150706058,115.275331 1.03352059,117.101302 2.62315467,118.00859 L11.6414895,123.271431 C11.6436184,123.272677 11.6462796,123.272143 11.6485861,123.273389 C11.6523117,123.275526 11.6547955,123.279265 11.6585214,123.281401 C13.4687428,124.326313 15.5858357,123.906897 17.4010744,122.854107 L27.1162935,117.225217 L27.0722948,124.593194 C27.0581016,128.873258 29.8200908,132.834276 34.8444699,135.746998 C44.6755626,141.44095 60.5485237,141.395283 70.2336986,135.744149 C75.1615642,132.871308 77.880974,128.961566 77.8923284,124.744171 C77.8936812,124.444643 77.9276118,116.569977 77.9253274,117.069789 C77.9171664,112.807351 75.1514513,108.858084 70.120153,105.946074 C68.1176754,104.770659 65.7821907,103.867465 63.2577596,103.162252 L63.2387761,96.2959896 L89.2468573,81.2271021 C93.0421087,79.0265369 96.0084794,73.8705196 95.9999818,69.487905 L95.8551935,11.0340526 C95.8496936,8.69621913 94.9931364,6.91190972 93.4668392,5.95904344 Z M74.985569,124.731353 C74.977053,127.874814 72.7714356,130.891512 68.7746414,133.223114 C59.8499815,138.427558 45.2849592,138.427558 36.2978493,133.220265 C32.2130576,130.853055 29.9676993,127.792204 29.9790111,124.606013 L29.9818927,124.204357 C30.0125854,124.239965 30.0571164,124.271122 30.0883414,124.306552 C32.449019,127.013316 35.7189516,128.846731 39.0905316,130.097813 C47.4038212,133.193025 58.1659632,133.172729 66.3838035,130.007725 C70.2625284,128.521219 73.0189291,126.556033 74.8370731,124.528567 C74.881959,124.478894 74.944409,124.435274 74.9884077,124.385245 L74.985569,124.731353 Z M63.2960812,117.000176 L63.2659206,106.142274 C65.2531407,106.752948 67.0620589,107.53098 68.6582574,108.468535 C72.7884672,110.858534 75.0508574,113.937901 75.0255236,117.139759 C75.0255236,117.144032 75.0255236,117.146881 75.0255236,117.151154 C75.0255236,122.277294 69.6053072,125.708522 64.8165233,127.466037 C57.7499257,130.049209 48.8041534,130.141967 41.5204005,127.815528 C36.2115096,126.112716 30.0818268,122.652857 30.0312137,117.086704 C30.0338748,116.490272 30.0931315,115.94298 30.2121766,115.431473 L41.7196371,108.76408 L41.7423461,120.917041 C41.7423461,121.434067 42.0176936,121.912636 42.4633588,122.17471 L48.3932617,125.645763 C48.8474429,125.910686 49.4009762,125.909261 49.8551574,125.647188 C50.1497543,125.476203 63.4108519,117.779432 62.5693913,118.267816 C63.0207337,118.005742 63.2989199,117.5229 63.2960812,117.000176 Z M44.6263965,107.138047 L47.6211535,105.393084 C47.6219906,105.686804 47.6711122,122.928015 47.667991,121.831984 L44.6491056,120.068149 L44.6263965,107.138047 Z M60.3723571,116.165528 C60.0777153,116.336546 49.9424119,122.220755 50.5761698,121.852814 L50.5250745,103.694233 L60.3353876,98.0055227 C60.336491,98.5470072 60.3741583,117.085924 60.3723571,116.165528 Z M87.7934778,78.7003693 C87.4970625,78.8720549 11.119414,123.121533 15.9476947,120.327374 C13.6472245,121.661021 12.0705415,120.89276 12.0644457,118.118263 L11.97769,83.1009659 L11.9252669,59.6572895 C11.9089777,56.5226134 14.2401296,52.1692085 17.2165632,50.4448259 L89.0651851,8.81781991 C91.2556556,7.55057388 92.9421025,8.14458819 92.948434,11.0425985 L93.0932267,69.4950257 C93.1017203,72.8165278 90.6746895,77.0310732 87.7934778,78.7003693 Z" id="Shape" fill-rule="nonzero"></path>
            <path d="M87.6089666,15.8610533 C87.1604626,15.6018281 86.6069293,15.6032525 86.1584256,15.8624777 L17.2563041,55.7831551 C16.8049617,56.0452291 16.5267755,56.5280714 16.5295927,57.0507946 L16.6715458,106.918881 C16.6759533,107.726244 17.3267736,108.373105 18.1249255,108.373105 C18.3747252,108.373105 18.6273636,108.307587 18.8516154,108.177974 L87.7537369,68.2572982 C88.2050793,67.9952243 88.4832655,67.5123819 88.4804483,66.9896587 L88.3384952,17.1215727 C88.3356565,16.601698 88.0603093,16.121704 87.6089666,15.8610533 Z M19.5697896,104.392147 L19.4392125,57.886867 L85.4402517,19.6483059 L85.5708289,66.1535863 L19.5697896,104.392147 Z" id="Shape" fill-rule="nonzero"></path>
            <path d="M84.2451875,74.0884404 L80.1178161,76.4798638 C79.4223513,76.8829447 79.183906,77.7745654 79.5869919,78.4724793 C79.9826483,79.1673164 80.8717057,79.4095722 81.5711959,79.0065972 L85.6985673,76.6151739 C86.3940321,76.2120929 86.6324774,75.3204722 86.2293915,74.6225583 C85.8291441,73.9203713 84.9378137,73.6853595 84.2451875,74.0884404 Z" id="Path"></path>
            <path d="M74.1538497,79.9352498 L70.0264783,82.3266732 C69.3310135,82.7297541 69.0925682,83.6213748 69.4956541,84.3192887 C69.8913105,85.0141257 70.7803679,85.2563816 71.4798581,84.8534066 L75.6072295,82.4619832 C76.3026943,82.0589023 76.5411396,81.1672816 76.1380537,80.4693677 C75.7378063,79.7700294 74.8464759,79.5321689 74.1538497,79.9352498 Z" id="Path"></path>
            <path d="M77.8628774,37.890209 C77.8361655,37.0907708 77.3289374,36.5135928 76.4456903,36.51628 C76.8614279,36.3998924 62.5329879,40.1023748 62.1152101,40.2111288 C61.3374249,40.4162301 60.8747279,41.213846 61.0791094,41.9929457 C61.2806522,42.7706213 62.0896626,43.2335234 62.8532547,43.0312706 L71.6519501,40.7076802 L30.5638123,82.0321961 L31.6822333,73.5400791 C31.7872627,72.7410389 31.2252134,72.0089416 30.4303964,71.9035421 C29.6469337,71.7981429 28.9032123,72.3564739 28.7981829,73.1583629 C28.6274713,74.4713468 29.4203977,68.4018103 27.1301317,86.0014032 C27.0457767,87.1095975 28.0774144,87.7475455 28.9315988,87.5182977 L42.8948309,83.8293242 C43.6726161,83.624223 44.1353132,82.8266071 43.9309316,82.0475074 C43.7293889,81.2698317 42.9203784,80.8055053 42.1567367,81.0091825 L33.3792033,83.3270757 L74.4439222,42.0262391 L73.3278074,50.5003739 C73.2227781,51.2994142 73.7848273,52.0315115 74.5796444,52.136911 C75.384563,52.2422658 76.107638,51.6742037 76.2118578,50.8820902 C76.8528898,45.923374 77.852909,38.5981821 77.8742521,37.9895548 C77.8747643,37.9557276 77.8646517,37.9240365 77.8628774,37.890209 Z" id="Path"></path>
        </g>
    </g>
</svg>