<?xml version="1.0" encoding="UTF-8"?>
<svg width="140px" height="140px" viewBox="0 0 140 140" version="1.1" xmlns="http://www.w3.org/2000/svg" xmlns:xlink="http://www.w3.org/1999/xlink">
    <title>user-account.4 copy</title>
    <g id="user-account.4-copy" stroke="none" fill="none" fill-rule="evenodd" stroke-width="1">
        <g id="Layer_1" transform="translate(16.1214, 6.6011)" fill="#000000">
            <path d="M28.869954,21.1563434 C28.3333974,20.6649297 27.4988971,20.6945952 27.003614,21.2324416 C10.5483543,39.0690793 -0.0512184813,63.9531814 0.000186137323,84.6312475 C0.05325533,98.7648706 4.91966907,109.374762 13.7044937,114.506874 L24.6677896,120.89912 C24.6848794,120.909116 24.7048714,120.904763 24.7222837,120.913792 C25.8782666,121.983358 27.1035735,122.966347 28.4804344,123.758606 C38.53419,129.547025 52.6047943,126.279096 62.5530686,120.536687 C87.5597019,106.098671 107.83793,70.9348663 107.756916,42.1478304 C107.716689,28.0051786 102.81932,17.4094754 93.9687157,12.3160572 C93.9216379,12.2889714 93.8695624,12.2739774 93.8223235,12.2472142 L78.3544027,3.23715834 C69.454786,-1.96589147 57.6969734,-0.868272185 45.2504079,6.32365012 C44.6184061,6.6886634 44.4017197,7.49736759 44.766733,8.12807974 C45.1304564,8.76008148 45.9391608,8.97289838 46.5711626,8.61175465 C58.1600113,1.91382578 68.9762702,0.812336947 77.0233294,5.51881548 L83.4068698,9.23714627 C83.0067094,9.21135034 82.6031633,9.19990336 82.1973604,9.19168087 C74.8520528,9.00202736 67.2450772,11.8202834 60.9408194,15.4592991 C35.7847659,29.9839156 15.6176267,65.1940899 15.6998112,93.7797958 C15.7252848,102.755994 17.3017422,109.926312 20.3356732,115.31445 L15.0368544,112.225219 C7.09297914,107.58452 2.69089337,97.7807541 2.64188095,84.6222193 C2.59157869,64.576155 12.9164239,40.3975731 28.9460501,23.0226837 C29.4400454,22.4874164 29.4065107,21.6516265 28.869954,21.1563434 Z M62.2615738,17.7474031 C76.3819664,9.59452876 84.1099416,11.1598917 92.7137407,14.6583332 C92.7203508,14.6622025 92.728251,14.6604293 92.7350222,14.6641374 C100.67922,19.2900034 105.07792,29.0434674 105.115398,42.1555695 C105.193841,70.0977865 85.5076305,104.233621 61.2323136,118.248582 C52.7054491,123.174327 39.3586035,126.972786 29.7973196,121.469212 C22.2352275,117.117428 18.3813065,107.798627 18.3410842,93.7720567 C18.2625997,66.3735809 37.6798038,31.9393244 62.2615738,17.7474031 Z" id="Shape" fill-rule="nonzero"></path>
            <path d="M33.4074687,18.0517959 C33.7260493,18.0517959 34.0446296,17.9382934 34.2974305,17.7061296 C36.1199172,16.043578 37.9952856,14.4842116 39.8732337,13.0693016 C40.456223,12.6307698 40.572305,11.8027184 40.1337732,11.2197291 C39.6952414,10.6393192 38.86719,10.519368 38.2842007,10.9591896 C36.3404729,12.423112 34.4006144,14.0366514 32.5175069,15.7559528 C31.9783706,16.2473665 31.9396767,17.0818666 32.43238,17.6210029 C32.6929198,17.9073383 33.0489044,18.0517959 33.4074687,18.0517959 Z" id="Path"></path>
            <path d="M39.4024568,106.586215 C46.5858441,110.719609 55.2572771,108.601607 62.5014765,104.419352 C79.7809208,94.4427523 93.792013,70.1455088 93.7354338,50.2555104 C93.7068864,40.3937033 90.2721502,32.9954131 84.0630553,29.4226683 C77.8165562,25.8279971 69.6173006,26.5915584 60.9808028,31.5792132 C43.6871708,41.5635515 29.6644702,65.8414478 29.7210498,85.6979117 C29.7495973,95.591964 33.1882028,103.009601 39.4024568,106.586215 Z M62.3015578,33.8673177 C68.6360253,30.210653 76.4321179,28.0775538 82.7448803,31.7120626 C88.1039974,34.7946836 91.0679567,41.3829795 91.093916,50.2632492 C91.1479241,69.3097188 77.7288499,92.5777024 61.1807218,102.131247 C53.3825939,106.632648 46.1158633,107.400079 40.7206318,104.296821 C35.3563556,101.210331 32.3885268,94.6026875 32.3625675,85.6901729 C32.3085596,66.677238 45.7392419,43.4298915 62.3015578,33.8673177 Z" id="Shape" fill-rule="nonzero"></path>
            <path d="M47.4933693,92.8098663 C47.9071934,93.0467056 48.4089455,93.0412039 48.8128341,92.8085764 L75.9682733,77.1297733 C76.3784294,76.89245 76.6299405,76.4552081 76.6286556,75.9831416 L76.6247814,74.3786309 C76.5980078,64.724023 69.4252616,60.6242641 61.0207866,65.4751447 C53.1684869,70.00879 46.8007467,81.0404453 46.8264646,90.0651726 L46.8317018,91.6683934 C46.8329919,92.1404602 47.0857928,92.5751227 47.4933693,92.8098663 Z M62.3415416,67.7632492 C68.9409117,63.9529043 73.9617487,66.7341404 73.9832722,74.3850799 L73.9858519,75.2247394 L49.4796607,89.3738402 C49.7659961,81.326781 55.4166077,71.760338 62.3415416,67.7632492 Z" id="Shape" fill-rule="nonzero"></path>
            <path d="M62.3144558,61.7244079 C66.4289163,59.348597 69.641807,53.7908509 69.6289477,49.0727642 C69.6155675,43.8294016 65.547812,41.4647104 60.9511376,44.1173543 C56.8457058,46.4867162 53.6418438,52.0483316 53.6559844,56.7780266 C53.6693123,61.9745282 57.7165169,64.3767042 62.3144558,61.7244079 Z M62.2718923,46.4054589 C65.0039044,44.8270566 66.9790762,45.7899021 66.9874286,49.0805031 C66.9977181,52.8118932 64.2530244,57.5544859 60.9937011,59.4363036 C58.2536831,61.0159703 56.3057887,60.0097605 56.2975043,56.7702881 C56.2859327,53.0272896 59.0215974,48.2808273 62.2718923,46.4054589 Z" id="Shape" fill-rule="nonzero"></path>
        </g>
    </g>
</svg>