<?xml version="1.0" encoding="UTF-8"?>
<svg width="140px" height="140px" viewBox="0 0 140 140" version="1.1" xmlns="http://www.w3.org/2000/svg" xmlns:xlink="http://www.w3.org/1999/xlink">
    <title>Group</title>
    <g id="ICONS" stroke="none" stroke-width="1" fill="none" fill-rule="evenodd">
        <g id="Group">
            <g fill="#000000" id="Layer_1" transform="translate(6.9081, 6.6019)">
                <path d="M109.738721,103.204475 L105.874482,105.435829 C105.24248,105.800842 105.025794,106.608256 105.390807,107.240258 C105.756767,107.873933 106.56664,108.087032 107.195236,107.723933 L111.059476,105.49258 C111.691478,105.127567 111.908164,104.320152 111.543151,103.68815 C111.176848,103.054859 110.365563,102.838172 109.738721,103.204475 Z" id="Path"></path>
                <path d="M14.2290683,85.4452257 C13.599646,85.0789226 12.7896519,85.2917395 12.4233488,85.9224516 C12.0570457,86.5531638 12.2698626,87.361868 12.9005747,87.7281711 L17.0047167,90.1143002 C17.6371493,90.4812682 18.4446318,90.2666376 18.8104362,89.6370743 C19.1767393,89.0063624 18.9639224,88.1976579 18.3332103,87.8313548 L14.2290683,85.4452257 Z" id="Path"></path>
                <path d="M22.8952315,90.4831825 C22.2658092,90.1181692 21.4558152,90.3296963 21.089512,90.9604084 C20.7219191,91.5911203 20.9360258,92.3998248 21.566738,92.7661279 L25.6721698,95.152257 C26.3046024,95.519225 27.1120849,95.3045944 27.4778893,94.6750311 C27.8454823,94.0443192 27.6313755,93.2356147 27.0006634,92.8693116 L22.8952315,90.4831825 Z" id="Path"></path>
                <path d="M126.170767,83.8368455 C126.174636,82.6850544 125.472985,81.6183902 124.250255,80.9102902 L77.5925688,53.7958024 L77.9335543,53.2763356 L95.8643473,42.9321434 C98.285301,41.5417395 100.160669,38.283706 100.136163,35.513214 L100.043298,3.89764797 C100.043298,2.31635378 99.4190347,1.04719091 98.3304438,0.417768876 C97.2328246,-0.218102407 95.8114653,-0.12394686 94.4300901,0.671859367 L47.2221429,27.9201642 C44.7986095,29.3105682 42.9219512,32.5737611 42.9503269,35.3365116 L42.9741882,46.1532565 L1.92954023,69.8476799 C0.60731234,70.6324726 0,71.8380773 0,72.7806841 C0,73.0466648 0.0430772075,84.4304357 0.043853283,84.1644547 C0.043853283,85.321405 0.748083925,86.3816202 1.96049528,87.0665036 L68.7308374,125.880441 C70.844854,127.098384 74.0482323,127.104511 76.2013563,125.880441 L102.746715,110.552463 C103.378717,110.18745 103.595404,109.380035 103.23039,108.748034 C102.864087,108.114742 102.052803,107.899345 101.425961,108.264359 L74.8870505,123.588467 C73.5908019,124.328812 71.3284935,124.330102 70.0554614,123.594916 L3.27480155,84.7745298 C2.84271875,84.5307576 2.68536325,84.2766671 2.68536325,84.1592953 L2.65440792,76.1211034 C9.43529657,80.0605845 -21.857902,61.8802302 68.7089113,114.49667 C70.8689678,115.743543 74.0861964,115.717203 76.1794302,114.49667 L123.525386,87.1800059 L123.542154,95.2451224 C123.544733,95.3276696 123.402855,95.5804702 122.939817,95.8422996 L113.869947,101.078886 C113.237945,101.443899 113.021259,102.251314 113.386272,102.883315 C113.752575,103.514027 114.55741,103.730714 115.190702,103.36699 L124.250254,98.1368531 C125.514257,97.4223042 126.218488,96.3375828 126.182373,95.2012694 C126.181186,94.0392607 126.186728,99.4107012 126.170767,83.8368455 Z M63.5579375,102.170056 L63.549715,102.170056 L16.4384975,74.7643959 L43.0033723,59.4238428 L43.0199785,66.9675579 C43.0354561,68.5514318 43.6713271,69.8167251 44.7650771,70.4422779 C45.8588271,71.0678306 47.2788965,70.9710956 48.6551126,70.1804485 L64.5660796,60.9828881 L61.7878515,73.207608 C61.6472632,73.8305811 61.9710029,74.4651625 62.5591516,74.7153837 C63.1297266,74.9611662 63.8227319,74.7710216 64.1804295,74.2252599 L73.1569506,60.5522563 L104.284161,78.6647499 L63.5579375,102.170056 Z M48.5403179,30.2095583 L95.7482654,2.96125401 C96.1584215,2.72522061 96.4860308,2.64009401 96.7181946,2.64009401 C96.8420154,2.64009401 96.9387503,2.66460008 97.0071097,2.70329423 C97.2508819,2.8438825 97.4017885,3.30176122 97.4017885,3.90151805 L97.4948333,35.5222432 C97.4948333,35.5248229 97.4948333,35.5286922 97.4948333,35.5312719 C97.5127112,37.3731082 96.1635809,39.7140942 94.5461725,40.6427498 L76.3419469,51.1455873 C76.1639546,51.2487713 76.0117582,51.391939 75.8982557,51.5647722 C73.3958936,55.3760188 68.6201085,62.6500498 65.9835667,66.6657451 L67.8125024,58.6186859 C67.9285843,58.1066354 67.7299552,57.5739483 67.3069008,57.2631066 C66.8864262,56.950975 66.3202041,56.9213098 65.8636152,57.1818493 L47.3369347,67.8910547 C46.8081169,68.1941576 46.324442,68.2934723 46.0755107,68.1490147 C45.8265793,68.005847 45.667934,67.5440988 45.661485,66.9520808 L45.5916601,35.3210347 C45.5737789,33.5101553 46.9499951,31.1227363 48.5403179,30.2095583 Z M3.26448328,72.1280456 L42.9807991,49.2000855 L42.996599,56.3770138 L13.1443469,73.6164741 C12.7367702,73.8525075 12.4852594,74.28717 12.4839696,74.7579466 C12.4826797,75.2300132 12.7329009,75.6659655 13.1404777,75.9019989 L62.4172688,104.566504 C63.0167231,104.94899 64.2260968,104.853152 64.6331444,104.598749 L107.578304,79.8139608 C107.985881,79.5779274 108.237392,79.1432649 108.238682,78.6724882 C108.239972,78.2017116 107.98975,77.7657592 107.582174,77.528436 L74.6086151,58.3410559 L76.1407357,56.0070023 L122.924339,83.1945252 C123.609011,83.5908665 123.801171,83.9610189 122.898543,84.4740063 C113.528613,89.8793245 76.0381414,111.537124 74.7430769,112.253225 C73.5962838,112.8633 71.8026564,112.89619 70.5244651,112.395264 C69.6852388,112.05649 76.1542838,115.762064 3.24384623,73.398498 C2.42281042,72.9222344 2.5204163,72.5680334 3.26448328,72.1280456 Z" id="Shape" fill-rule="nonzero"></path>
                <path d="M30.4947303,61.476881 L38.7791151,56.6930144 C39.4111168,56.3280011 39.6278033,55.5205865 39.26279,54.8885848 C38.8964869,54.2540034 38.0877827,54.0398966 37.4583604,54.4049099 L29.1739755,59.1887765 C28.5419738,59.5537897 28.3252874,60.3612043 28.6903006,60.9932061 C29.0562562,61.6268857 29.8661318,61.8399847 30.4947303,61.476881 Z" id="Path"></path>
                <path d="M89.8319549,97.564182 C91.8439213,98.7267045 95.0053004,98.7374663 97.0277465,97.5628922 C99.5234581,96.1135908 99.5256952,93.3159753 97.0238772,91.8658476 C97.0225874,91.8658476 97.0225874,91.8658476 97.0225874,91.8658476 C94.9627774,90.6766525 91.8646791,90.6843913 89.8100283,91.8774557 C87.3147198,93.3280874 87.3130472,96.1097114 89.8319549,97.564182 Z M91.1372322,94.1616907 C92.3587127,93.4515251 94.4903582,93.4539233 95.7018326,94.1539519 C96.4610207,94.5939851 96.3933265,94.8761791 95.7005428,95.2786572 C94.4971598,95.9790486 92.3741499,95.9803081 91.1527096,95.2760775 C90.3945092,94.8379488 90.4321148,94.5717462 91.1372322,94.1616907 Z" id="Shape" fill-rule="nonzero"></path>
            </g>
            <line x1="57.25" y1="43.1412429" x2="101.25" y2="18" id="Path" stroke="#000000"></line>
            <line x1="57.25" y1="51.0508475" x2="101.25" y2="25.9096045" id="Path-Copy" stroke="#000000"></line>
            <line x1="57.25" y1="58.960452" x2="101.25" y2="33.819209" id="Path-Copy-2" stroke="#000000"></line>
            <line x1="57.25" y1="68" x2="101.25" y2="42.8587571" id="Path-Copy-3" stroke="#000000"></line>
        </g>
    </g>
</svg>