<?xml version="1.0" encoding="UTF-8"?>
<svg width="132px" height="140px" viewBox="0 0 132 140" version="1.1" xmlns="http://www.w3.org/2000/svg" xmlns:xlink="http://www.w3.org/1999/xlink">
    <title>Layer_1</title>
    <g id="ICONS" stroke="none" stroke-width="1" fill="none" fill-rule="evenodd">
        <g id="Layer_1" fill="#000000">
            <path d="M17.0133333,90.6933071 C17.6,90.9854949 18.48,90.9854949 19.0666667,90.6933071 L80.08,55.6307699 C80.6666667,55.3385821 80.96,54.4620187 80.96,54.1698309 C80.96,53.877643 80.96,53.877643 80.96,53.5854552 L80.96,16.7697912 C80.96,16.1854156 80.6666667,15.3088521 80.08,15.0166643 C79.4933333,14.7244765 78.6133333,14.7244765 78.0266667,15.0166643 L17.0133333,50.0792015 C16.72,50.3713893 15.84,51.2479528 15.84,52.1245162 L15.84,88.9401802 C15.84,89.8167437 16.1333333,90.4011193 17.0133333,90.6933071 Z M40.48,74.9151654 C41.0666667,69.6557848 44.88,63.8120286 49.28,61.1823383 C53.68,58.8448358 56.6133333,60.3057749 56.6133333,65.2729676 L56.6133333,65.5651554 L40.48,74.9151654 Z M18.7733333,52.416704 L78.0266667,18.5229181 L78.0266667,53.2932674 C78.0266667,53.2932674 78.0266667,53.2932674 78.0266667,53.2932674 L59.2533333,64.1042164 C58.6666667,57.6760846 53.3866667,55.3385821 47.52,58.552648 C41.6533333,61.7667139 37.2533333,69.6557848 37.2533333,76.3761044 L37.2533333,76.6682922 L18.7733333,87.1870534 L18.7733333,52.416704 C18.7733333,52.7088918 18.7733333,52.416704 18.7733333,52.416704 Z" id="Shape" fill-rule="nonzero"></path>
            <path d="M114.693333,105.01051 L110.293333,107.6402 C109.706667,107.932388 109.413333,108.808951 109.706667,109.685515 C110,110.26989 110.88,110.562078 111.76,110.26989 L116.16,107.6402 C116.746667,107.348012 117.04,106.471449 116.746667,105.594885 C116.453333,104.718322 115.573333,104.426134 114.693333,105.01051 Z" id="Path"></path>
            <path d="M132,84.5573631 C132,83.096424 131.12,81.9276728 129.653333,81.0511094 L90.64,58.552648 C89.4666667,57.9682724 88,57.6760846 86.5333333,57.6760846 C87.12,56.5073333 87.7066667,55.0463943 87.7066667,53.877643 L87.7066667,9.17290814 C87.7066667,7.71196909 87.12,6.25103004 85.9466667,5.66665442 C85.36,5.37446661 76.2666667,0.115086033 76.56,0.407273843 C75.3866667,-0.177101777 73.92,-0.177101777 72.4533333,0.699461652 L4.4,39.2682526 C1.76,40.7291916 0,43.9432575 0,46.8651356 L0,91.5698705 C0,93.3229974 0.586666667,94.4917486 1.76,95.0761242 C2.93333333,95.9526877 -1.46666667,93.3229974 11.1466667,100.627693 C11.44,100.627693 11.44,100.91988 11.7333333,100.91988 C11.7333333,100.91988 11.7333333,100.91988 11.7333333,101.212068 C11.7333333,101.504256 11.7333333,113.191768 11.7333333,112.899581 C11.7333333,114.36052 12.6133333,115.529271 14.08,116.405834 L53.0933333,138.904296 C55.44,140.365235 59.5466667,140.365235 61.8933333,138.904296 L107.066667,112.899581 C107.653333,112.607393 107.946667,111.730829 107.653333,110.854266 C107.36,110.26989 106.48,109.977703 105.6,110.26989 L60.4266667,136.274605 C58.96,137.151169 56.0266667,137.151169 54.56,136.274605 L15.5466667,113.776144 C14.96,113.483956 14.6666667,113.191768 14.6666667,112.899581 L14.6666667,105.01051 L52.8,127.216783 C55.44,128.677722 59.2533333,128.677722 61.6,127.216783 L128.773333,88.6479924 L128.773333,96.5370633 C128.773333,96.8292511 128.48,97.1214389 127.893333,97.4136267 L118.8,102.673007 C118.213333,102.965195 117.92,103.841759 118.213333,104.718322 C118.506667,105.594885 119.386667,105.594885 120.266667,105.302698 L129.36,100.043317 C130.826667,99.1667536 131.706667,97.9980023 131.706667,96.5370633 L132,84.5573631 C132,84.5573631 132,84.5573631 132,84.5573631 Z M128.186667,83.6807997 C128.773333,83.9729875 129.066667,84.2651753 129.066667,84.5573631 C129.066667,84.5573631 129.066667,84.5573631 129.066667,84.5573631 C129.066667,84.5573631 129.066667,84.8495509 128.773333,84.8495509 C128.773333,84.8495509 128.773333,84.8495509 128.773333,84.8495509 C128.773333,84.8495509 128.773333,84.8495509 128.48,85.1417387 C128.48,85.1417387 128.186667,85.4339265 127.893333,85.4339265 L60.4266667,124.587093 C58.6666667,125.463656 55.7333333,125.463656 54.56,124.587093 L15.5466667,102.088632 C14.3733333,101.504256 14.6666667,100.91988 15.5466667,100.335505 L83.0133333,61.4745261 C83.0133333,61.4745261 83.0133333,61.4745261 83.3066667,61.4745261 L83.6,61.4745261 C85.36,60.5979627 88,60.5979627 89.4666667,61.4745261 L128.186667,83.6807997 Z M83.0133333,8.0041569 C84.1866667,7.41978128 84.48,7.71196909 84.48,8.88072033 L84.48,53.5854552 C84.48,55.3385821 83.0133333,57.6760846 81.5466667,58.552648 C74.5066667,62.6432773 106.773333,43.9432575 13.7866667,97.7058145 C12.9066667,98.2901901 12.32,98.2901901 12.32,96.8292511 L12.32,52.1245162 C12.32,50.3713893 13.7866667,47.741699 15.2533333,46.8651356 C15.84,46.8651356 83.3066667,8.0041569 83.0133333,8.0041569 Z M3.22666667,91.5698705 L3.22666667,46.8651356 C3.22666667,45.1120088 4.69333333,42.4823185 6.16,41.605755 C29.6266667,28.1651158 47.2266667,17.9385424 73.92,2.74477632 C74.2133333,2.45258851 74.5066667,2.45258851 74.8,2.45258851 L80.6666667,5.95884223 C-7.62666667,56.7995211 20.8266667,40.4370038 13.7866667,44.5276331 C11.44,45.9885722 9.38666667,49.4948259 9.38666667,52.1245162 L9.38666667,96.2448755 L3.52,92.7386218 C3.22666667,92.7386218 3.22666667,92.4464339 3.22666667,91.5698705 Z" id="Shape" fill-rule="nonzero"></path>
            <path d="M34.0266667,96.8292511 C33.7333333,96.2448755 32.8533333,95.9526877 31.9733333,96.2448755 L27.5733333,98.8745658 C26.9866667,99.1667536 26.6933333,100.043317 26.9866667,100.91988 C27.28,101.504256 28.16,101.796444 29.04,101.504256 L33.44,98.8745658 C34.32,98.582378 34.32,97.7058145 34.0266667,96.8292511 Z" id="Path"></path>
            <path d="M39.8933333,95.0761242 L44.2933333,92.4464339 C44.88,92.1542461 45.1733333,91.2776827 44.88,90.4011193 C44.5866667,89.8167437 43.7066667,89.5245558 42.8266667,89.8167437 L38.4266667,92.4464339 C37.84,92.7386218 37.5466667,93.6151852 37.84,94.4917486 C38.4266667,95.368312 39.3066667,95.6604999 39.8933333,95.0761242 Z" id="Path"></path>
            <path d="M50.7466667,88.9401802 L55.1466667,86.3104899 C55.7333333,86.0183021 56.0266667,85.1417387 55.7333333,84.2651753 C55.44,83.6807997 54.56,83.3886118 53.68,83.6807997 L49.28,86.3104899 C48.6933333,86.6026777 48.4,87.4792412 48.6933333,88.3558046 C48.9866667,89.232368 49.8666667,89.232368 50.7466667,88.9401802 Z" id="Path"></path>
            <path d="M61.3066667,82.8042362 L65.7066667,80.1745459 C66.2933333,79.8823581 66.5866667,79.0057947 66.2933333,78.1292313 C66,77.5448556 65.12,77.2526678 64.24,77.5448556 L59.84,80.1745459 C59.2533333,80.4667337 58.96,81.3432972 59.2533333,82.2198606 C59.84,82.8042362 60.72,83.096424 61.3066667,82.8042362 Z" id="Path"></path>
            <path d="M72.16,76.3761044 L76.56,73.7464141 C77.1466667,73.4542263 77.44,72.5776629 77.1466667,71.7010994 C76.8533333,71.1167238 75.9733333,70.824536 75.0933333,71.1167238 L70.6933333,73.7464141 C70.1066667,74.0386019 69.8133333,74.9151654 70.1066667,75.7917288 C70.6933333,76.6682922 71.5733333,76.96048 72.16,76.3761044 Z" id="Path"></path>
            <path d="M85.6533333,65.2729676 L81.2533333,67.9026579 C80.6666667,68.1948457 80.6666667,69.0714092 80.96,69.6557848 C81.2533333,70.2401604 82.1333333,70.5323482 83.0133333,70.2401604 L87.4133333,67.6104701 C88,67.3182823 88.2933333,66.4417189 88,65.5651554 C87.4133333,64.9807798 86.5333333,64.9807798 85.6533333,65.2729676 Z" id="Path"></path>
            <path d="M40.7733333,100.91988 C40.48,100.335505 39.6,100.043317 38.72,100.335505 L34.32,102.965195 C33.7333333,103.257383 33.44,104.133946 33.7333333,105.01051 C34.0266667,105.594885 34.9066667,105.887073 35.7866667,105.594885 L40.1866667,102.965195 C41.0666667,102.380819 41.36,101.504256 40.7733333,100.91988 Z" id="Path"></path>
            <path d="M51.6266667,94.7839364 C51.3333333,94.1995608 50.4533333,93.907373 49.5733333,94.1995608 L45.4666667,96.5370633 C44.88,96.8292511 44.5866667,97.7058145 44.88,98.582378 C45.1733333,99.1667536 46.0533333,99.4589414 46.9333333,99.1667536 L51.3333333,96.5370633 C51.92,96.2448755 51.92,95.368312 51.6266667,94.7839364 Z" id="Path"></path>
            <path d="M62.48,88.3558046 C62.1866667,87.771429 61.3066667,87.4792412 60.4266667,87.771429 L56.0266667,90.4011193 C55.44,90.6933071 55.1466667,91.5698705 55.44,92.4464339 C55.7333333,93.0308096 56.6133333,93.3229974 57.4933333,93.0308096 L61.8933333,90.4011193 C62.48,90.1089315 62.7733333,89.232368 62.48,88.3558046 Z" id="Path"></path>
            <path d="M66.2933333,86.3104899 C66.5866667,86.8948656 67.4666667,87.1870534 68.3466667,86.8948656 L72.7466667,84.2651753 C73.3333333,83.9729875 73.6266667,83.096424 73.3333333,82.2198606 C73.04,81.635485 72.16,81.3432972 71.28,81.635485 L66.88,84.2651753 C66,84.5573631 66,85.4339265 66.2933333,86.3104899 Z" id="Path"></path>
            <path d="M81.84,75.499541 L77.7333333,77.8370435 C77.1466667,78.1292313 76.8533333,79.0057947 77.1466667,79.8823581 C77.44,80.4667337 78.32,80.7589216 79.2,80.4667337 L83.6,77.8370435 C84.1866667,77.5448556 84.48,76.6682922 84.1866667,75.7917288 C83.6,75.2073532 82.72,74.9151654 81.84,75.499541 Z" id="Path"></path>
            <path d="M87.7066667,73.7464141 C88,74.3307897 88.88,74.6229775 89.76,74.3307897 L94.16,71.7010994 C94.7466667,71.4089116 95.04,70.5323482 94.7466667,69.6557848 C94.4533333,69.0714092 93.5733333,68.7792213 92.6933333,69.0714092 L88.2933333,71.7010994 C87.7066667,72.2854751 87.4133333,73.1620385 87.7066667,73.7464141 Z" id="Path"></path>
            <path d="M45.76,104.426134 L41.36,107.055824 C40.7733333,107.348012 40.48,108.224576 40.7733333,109.101139 C41.0666667,109.685515 41.9466667,109.977703 42.8266667,109.685515 L47.2266667,107.055824 C47.8133333,106.763637 48.1066667,105.887073 47.8133333,105.01051 C47.52,104.133946 46.3466667,103.841759 45.76,104.426134 Z" id="Path"></path>
            <path d="M56.6133333,97.9980023 L52.2133333,100.627693 C51.6266667,100.91988 51.3333333,101.796444 51.6266667,102.673007 C51.92,103.257383 52.8,103.549571 53.68,103.257383 L58.08,100.627693 C58.6666667,100.335505 58.96,99.4589414 58.6666667,98.582378 C58.08,97.9980023 57.2,97.7058145 56.6133333,97.9980023 Z" id="Path"></path>
            <path d="M68.64,94.4917486 C69.2266667,94.1995608 69.52,93.3229974 69.2266667,92.4464339 C68.9333333,91.8620583 68.0533333,91.5698705 67.1733333,91.8620583 L63.0666667,94.4917486 C62.48,94.7839364 62.1866667,95.6604999 62.48,96.5370633 C62.7733333,97.1214389 63.6533333,97.4136267 64.5333333,97.1214389 L68.64,94.4917486 Z" id="Path"></path>
            <path d="M78.0266667,85.7261143 L73.6266667,88.3558046 C73.04,88.6479924 72.7466667,89.5245558 73.04,90.4011193 C73.3333333,90.9854949 73.92,90.9854949 74.2133333,90.9854949 C74.5066667,90.9854949 74.8,90.9854949 75.0933333,90.6933071 L79.4933333,88.0636168 C80.08,87.771429 80.3733333,86.8948656 80.08,86.0183021 C79.4933333,85.4339265 78.6133333,85.1417387 78.0266667,85.7261143 Z" id="Path"></path>
            <path d="M83.8933333,83.9729875 C84.1866667,84.5573631 84.7733333,84.5573631 85.0666667,84.5573631 C85.36,84.5573631 85.6533333,84.5573631 85.9466667,84.2651753 L90.3466667,81.635485 C90.9333333,81.3432972 91.2266667,80.4667337 90.9333333,79.5901703 C90.64,79.0057947 89.76,78.7136069 88.88,79.0057947 L84.48,81.635485 C83.8933333,82.2198606 83.6,83.3886118 83.8933333,83.9729875 Z" id="Path"></path>
            <path d="M94.7466667,77.8370435 C95.04,78.4214191 95.92,78.7136069 96.8,78.4214191 L101.2,75.7917288 C101.786667,75.499541 102.08,74.6229775 101.786667,73.7464141 C101.493333,73.1620385 100.613333,72.8698507 99.7333333,73.1620385 L95.3333333,75.7917288 C94.4533333,76.0839166 94.16,76.96048 94.7466667,77.8370435 Z" id="Path"></path>
            <path d="M85.9466667,91.2776827 C85.36,90.9854949 85.0666667,90.9854949 84.48,91.2776827 L64.5333333,102.673007 C63.9466667,102.965195 63.9466667,103.549571 63.6533333,103.841759 C63.6533333,104.426134 63.9466667,104.718322 64.24,105.01051 L74.2133333,110.854266 C74.8,111.146454 75.0933333,111.146454 75.68,110.854266 L95.6266667,99.4589414 C96.2133333,99.1667536 96.2133333,98.582378 96.5066667,98.2901901 C96.5066667,97.7058145 96.2133333,97.4136267 95.92,97.1214389 L85.9466667,91.2776827 Z M75.3866667,108.224576 L68.0533333,104.133946 L85.0666667,94.1995608 L92.4,98.2901901 L75.3866667,108.224576 Z" id="Shape" fill-rule="nonzero"></path>
            <path d="M48.9866667,55.0463943 C52.2133333,53.2932674 54.56,48.9104503 54.56,45.4041966 C54.56,41.0213794 51.04,39.2682526 47.52,41.3135672 C44.2933333,43.0666941 41.9466667,47.4495112 41.9466667,50.9557649 C41.9466667,55.0463943 45.4666667,57.091709 48.9866667,55.0463943 Z M48.9866667,43.6510697 C50.7466667,42.7745063 51.6266667,43.0666941 51.6266667,45.1120088 C51.6266667,47.741699 49.8666667,50.9557649 47.52,52.1245162 C45.76,53.0010796 44.88,52.7088918 44.88,50.6635771 C44.88,48.3260747 46.64,45.1120088 48.9866667,43.6510697 Z" id="Shape" fill-rule="nonzero"></path>
            <path d="M61.6,36.9307501 L73.6266667,29.9182426 C74.2133333,29.6260548 74.5066667,28.7494914 74.2133333,27.872928 C73.92,27.2885523 73.04,26.9963645 72.16,27.2885523 L59.84,34.5932476 C59.2533333,34.8854354 58.96,35.7619988 59.2533333,36.6385623 C59.84,37.2229379 60.72,37.5151257 61.6,36.9307501 Z" id="Path"></path>
            <path d="M71.8666667,34.5932476 L68.0533333,36.9307501 C67.4666667,37.2229379 67.1733333,38.0995013 67.4666667,38.9760647 C67.76,39.5604404 68.64,39.8526282 69.52,39.5604404 L73.3333333,37.2229379 C73.92,36.9307501 74.2133333,36.0541866 73.92,35.1776232 C73.6266667,34.3010598 72.7466667,34.008872 71.8666667,34.5932476 Z" id="Path"></path>
        </g>
    </g>
</svg>