<?xml version="1.0" encoding="UTF-8"?>
<svg width="141px" height="140px" viewBox="0 0 141 140" version="1.1" xmlns="http://www.w3.org/2000/svg" xmlns:xlink="http://www.w3.org/1999/xlink">
    <title>bell.1</title>
    <g id="bell.1" stroke="none" fill="none" transform="translate(0.0133, 0)" fill-rule="evenodd" stroke-width="1">
        <g id="Layer_1" transform="translate(28.2968, 6.133)" fill="#000000">
            <path d="M7.1984962,59.7151388 L7.1984962,67.8484533 C2.54860778,71.9056789 0.0744498593,76.6395658 0.0494598593,81.587398 C0.0468801612,81.6206102 0.0299515197,81.6491472 0.0297903876,81.6830042 L6.22557486e-05,92.3057932 C-0.0192220275,99.0836898 4.44219443,105.398548 12.5627724,110.088259 C17.4936759,112.934686 23.3641985,114.900985 29.5913507,116.010535 C29.8354451,122.511125 35.1511928,127.734007 41.6967642,127.734007 C48.2416908,127.734007 53.5572771,122.533374 53.8236205,116.052776 C60.1196157,114.950159 66.0455996,112.965318 71.0010095,110.08568 C78.9603624,105.459169 83.3547093,99.2294369 83.3740563,92.544406 L83.4048502,81.9614397 C83.4048502,81.9570867 83.4063012,81.953056 83.4063012,81.9487028 C83.4063012,81.9435437 83.4063012,81.9370947 83.4063012,81.9306457 C83.4063012,76.8707623 80.8926432,72.0538446 76.169236,67.9519595 L76.169236,58.6845888 C76.169236,49.4870283 72.5900422,40.8247346 66.0855833,34.2919001 C61.8016755,30.034433 56.5076933,27.0109816 50.719718,25.4566121 C52.0348299,19.4895157 52.801938,13.3470067 52.801938,11.1271004 C52.801938,4.99152408 47.8207322,0 41.6980538,0 C35.5624774,0 30.5696635,4.99152408 30.5696635,11.1271004 C30.5696635,13.3582923 31.3395127,19.5106362 32.6597837,25.4772489 C23.7577485,27.861927 16.1190722,33.7540536 11.5928431,41.8759212 C11.2368585,42.513082 11.4651531,43.3179169 12.102314,43.672612 C12.7368954,44.0247273 13.5417303,43.800302 13.8990048,43.1631411 C18.0650571,35.688753 25.0673788,30.2225824 33.2472874,28.0092865 C33.2998468,28.2201688 33.3593387,28.3994509 33.4130265,28.6063025 C33.8279036,30.1918088 34.3144503,31.8290732 34.8735633,33.3484118 C35.6394373,35.4289843 36.3629443,37.3725509 40.2384846,38.0331248 C43.5761533,38.6117057 46.9088794,37.4791155 48.2347579,34.130675 C48.8753046,32.5184255 49.4934411,30.5169792 50.0777202,28.1792174 C50.0922306,28.1223051 50.107708,28.0676498 50.1220572,28.0107375 C55.4345801,29.4514437 60.286806,32.252888 64.2179537,36.1595297 C70.2219705,42.1906322 73.5277268,50.1899688 73.5277268,58.6845888 L73.5277268,68.5373674 L73.5277268,79.6206148 C73.5780291,84.2600238 70.3870651,88.6801667 64.5442731,92.0671804 C52.0228993,99.3132742 31.5808666,99.3119844 18.9795253,92.0658905 C13.1109374,88.6775873 9.86580182,84.2497053 9.8400059,79.606427 C9.8400059,78.773166 9.8400059,58.69065 9.8400059,59.7151388 C9.8400059,58.9851122 9.24927775,58.3943841 8.51925118,58.3943841 C7.78922461,58.3943841 7.1984962,58.9851122 7.1984962,59.7151388 Z M41.698054,2.64150943 C46.3645488,2.64150943 50.1604288,6.44770792 50.1604288,11.1271004 C50.1604288,13.3360434 49.2946508,20.0030172 47.8657142,26.0957076 C47.8644243,26.1007056 47.860555,26.1042526 47.8594263,26.1094117 C47.3504796,28.3221989 46.6051365,31.0342794 45.7673714,33.1555866 C45.5431076,33.7214862 45.3881703,34.0900465 45.1063493,34.3904086 C44.6227602,34.8887322 43.2243504,35.5528405 41.5605291,35.5043117 C39.1671348,35.4333425 38.1774957,34.5371737 37.6738795,33.3129424 C37.6609816,33.2665097 37.6455039,33.2213666 37.6274468,33.1762237 C34.9717496,26.5118296 33.2111732,14.2909789 33.2111732,11.1271007 C33.2111732,6.44770792 37.0186613,2.64150943 41.698054,2.64150943 Z M51.1871093,116.483085 C50.7202019,121.308225 46.6418558,125.092497 41.6967645,125.092497 C36.7555424,125.092497 32.6823554,121.294037 32.2296359,116.455999 C37.6939521,117.205262 45.0889975,117.315147 51.1871093,116.483085 Z M80.7325471,92.5366672 C80.7170694,98.2453199 76.78834,103.666347 69.673806,107.802734 C64.6963084,110.695271 58.6906795,112.632066 52.3292269,113.64601 C52.3250351,113.646655 52.3211656,113.644882 52.3169737,113.645526 C47.6982874,114.38836 42.2048295,114.687584 36.6149544,114.260438 C28.8454188,113.662778 20.6594793,111.711784 13.8835274,107.800155 C6.61808658,103.604437 2.62486737,98.1047319 2.64158202,92.313532 L2.64679375,90.4394532 C4.50797435,93.4055487 7.81687699,96.7114862 12.5885686,99.4783683 C16.8145967,101.91222 21.733731,103.692788 26.9696721,104.853124 C41.7707666,108.144209 59.1677438,106.357836 71.0319648,99.4616008 C75.4808462,96.8786563 79.0245199,93.3514173 80.7377062,90.6548495 L80.7325471,92.5366672 Z M17.66135,94.3552846 C30.9870751,102.018608 52.6112442,102.022518 65.8688971,94.3527049 C72.5706956,90.466539 76.2298568,85.2247937 76.1692363,79.606427 L76.1692363,71.5722658 C79.1809181,74.7514603 80.7586656,78.2834151 80.7638247,81.9124272 C80.7638247,81.9129109 80.7638247,81.9133946 80.7638247,81.9138782 L80.7638247,81.9151681 C80.7638247,81.9438662 80.756247,81.9719193 80.7559245,82.0006172 C80.615165,88.6705735 75.4137059,93.8463677 69.6931527,97.1657577 C58.6252219,103.599923 42.5006318,105.364207 28.5746662,102.509558 C23.2279634,101.409521 18.1956494,99.6492668 13.9144822,97.1773661 C10.2991187,95.0898456 6.67691563,92.0962613 4.60809495,88.5121704 C3.28319386,86.2160048 2.68143921,83.7949605 2.68143921,81.737176 C2.66227114,78.1515333 4.21261001,74.6471481 7.19849593,71.4781105 L7.19849593,79.6141658 C7.22945152,85.2415612 10.9440742,90.4768575 17.66135,94.3552846 Z" id="Shape" fill-rule="nonzero"></path>
            <path d="M10.2682191,53.4815376 C10.5739017,51.6319651 11.0433886,49.8030294 11.6663619,48.0463224 C11.9101341,47.3588592 11.55028,46.6043266 10.8628168,46.3605544 C10.1779334,46.1167822 9.41953122,46.4753465 9.17704884,47.1640994 C8.50248367,49.0665536 7.99301284,51.0489755 7.66282416,53.0533241 C7.54416254,53.7730322 8.03170673,54.4514669 8.75141503,54.5701285 C9.4373062,54.6926089 10.146958,54.2238926 10.2682191,53.4815376 Z" id="Path"></path>
        </g>
    </g>
</svg>