<?xml version="1.0" encoding="UTF-8"?>
<svg width="140px" height="140px" viewBox="0 0 140 140" version="1.1" xmlns="http://www.w3.org/2000/svg" xmlns:xlink="http://www.w3.org/1999/xlink">
    <title>headphones.3</title>
    <g id="headphones.3" stroke="none" fill="none" fill-rule="evenodd" stroke-width="1">
        <g id="Layer_1" transform="translate(15.1401, 5.3839)" fill="#000000">
            <path d="M17.8078034,126.678558 C22.1649844,129.194565 27.4398072,130.396831 31.690015,127.709207 L44.9543629,119.613879 C48.603702,117.503941 50.6308201,113.172323 50.6623707,107.416989 C50.6623707,107.416989 50.6623707,107.415675 50.6623707,107.41436 C50.6881698,97.8246572 44.9027648,86.1951827 36.851312,79.4417313 L36.8195972,63.438243 C36.7775299,48.4701691 47.3443118,30.1722073 60.3720312,22.6500469 C64.2203681,20.4272168 67.8933699,19.3750412 71.1315667,19.5030507 C73.0475496,22.5641636 73.788873,26.572849 73.788873,30.169578 L73.8057985,43.8476948 C73.3288747,44.1377188 64.1697918,49.7198433 63.7479325,49.9622438 C60.0723014,52.0774406 58.0399246,56.4103733 58.0241493,62.1604484 C57.9925987,73.5015315 65.9801288,87.3548272 75.8317665,93.0431157 C80.0623244,95.4860083 85.1489563,96.7068024 89.3984732,94.2604383 C89.6683162,94.1051509 103.462665,85.7761834 104.34995,85.0350449 C106.011938,86.3330514 107.025004,88.2556588 107.027304,90.4152237 C107.029934,92.9103408 105.744252,95.1491104 103.588302,96.403242 L88.5002704,105.171975 C87.0916727,103.506537 85.0177216,102.42544 82.6755916,102.42544 C78.4267935,102.42544 74.9693867,105.882847 74.9693867,110.13296 C74.9693867,114.364668 78.4267935,117.8063 82.6755916,117.8063 C86.9086144,117.8063 90.350246,114.364668 90.350246,110.13296 C90.350246,109.202549 90.1597929,108.321765 89.8577626,107.495372 L104.939714,98.7300899 C107.93701,96.9882403 109.72487,93.8792035 109.719623,90.4125943 C109.715175,87.4705121 108.410924,84.7992381 106.185629,82.9952735 C107.804728,80.6680917 108.681075,77.5352277 108.681075,73.7868004 C108.706874,63.9821599 102.759444,52.220568 94.4856594,45.4985078 L94.4570668,30.1630047 C94.4255162,19.438799 90.6872774,11.4184039 83.9344886,7.57450388 C83.9325167,7.57335373 83.931695,7.57138161 83.9297232,7.57023146 L74.974645,2.36834596 C68.6882118,-1.22972377 60.4403902,-0.714399387 51.7482328,3.82098273 C51.0883019,4.16540884 50.8332687,4.97783369 51.1776949,5.63776461 C51.5194917,6.29769554 52.3345458,6.55272869 52.9944767,6.20830257 C66.7359126,-0.963842772 74.0601742,5.09633427 74.4724666,5.18948488 C66.7355174,5.24558342 58.9082765,9.39288796 52.8347526,14.1895882 C42.4645297,22.3766067 33.8951439,34.8775039 29.1669622,47.676477 C26.5620756,54.7240657 25.0892269,61.9228337 25.106481,68.6532742 C25.1070561,68.9225984 25.1494419,88.7630853 25.1467407,87.4981185 C24.8694365,87.3369152 18.4790622,83.6221953 18.8778902,83.854038 L18.8515982,63.4487594 C18.8095309,47.9443272 27.2782057,28.9193898 39.9273194,16.1072629 C40.4505314,15.5787923 40.445273,14.7269294 39.9168024,14.2037171 C39.3883317,13.6818195 38.5364689,13.6870781 38.0132566,14.2168631 C24.8961442,27.4996157 16.1145936,47.2883375 16.1592902,63.4540587 L16.1763802,77.2516014 C13.4752657,78.8922727 6.52056189,83.1408858 5.72659793,83.59769 C2.05096685,85.7115723 0.0159607757,90.044505 9.25945144e-05,95.7972092 C-0.0313640705,107.136978 7.95616578,120.990269 17.8078034,126.678558 Z M82.6755919,115.113992 C79.9096663,115.113992 77.6616946,112.879166 77.6616946,110.13296 C77.6616946,107.367034 79.9096663,105.117748 82.6755919,105.117748 C85.4231129,105.117748 87.6579385,107.367034 87.6579385,110.13296 C87.6579385,112.879166 85.4231129,115.113992 82.6755919,115.113992 Z M47.9701356,107.403843 C47.943771,112.162707 46.3951683,115.671384 43.5792877,117.300218 L36.143891,121.838188 C36.477225,120.889106 36.7355805,119.653985 36.8748105,118.649617 C38.1935682,109.301647 33.1619187,98.2100718 26.8590118,91.1357905 C27.2222249,91.0366201 36.4582559,85.644004 36.1885876,85.7996512 C36.6066314,85.5590787 36.8616645,85.1134282 36.8616645,84.6309688 L36.8585422,83.0286317 C43.4340243,89.4296 47.9910967,99.2404847 47.9701356,107.403843 Z M82.7465805,35.3754075 C82.747022,35.6447292 82.7798873,55.4500196 82.7778024,54.1932948 L76.507473,50.5774782 C76.5071135,50.2965894 76.4808318,29.8961637 76.481181,30.1682633 C76.481181,27.0080673 75.9247135,23.2355202 74.5434555,20.1404688 C80.5931371,22.3010686 82.7289155,28.8865922 82.7465805,35.3754075 Z M73.8097424,46.9971558 L73.8128647,49.5448573 C72.7850606,49.1848408 71.5078824,48.8888703 70.8599368,48.7922469 L73.8097424,46.9971558 Z M77.1779206,90.7110095 C68.0703485,85.452596 60.6849067,72.648354 60.7163566,62.1683361 C60.7296033,57.4173596 62.2834646,53.9113124 65.0914573,52.2956648 C74.5207478,46.8556923 93.7321969,65.5256944 92.3413774,83.881645 C91.9185475,88.2708078 89.9834309,90.8172665 88.0549487,91.9270177 C85.2232933,93.5558111 81.3609887,93.1272506 77.1779206,90.7110095 Z M105.988837,73.778913 C105.988837,73.7802277 105.988837,73.7815423 105.988837,73.7828567 C105.988837,78.5220018 104.448053,82.0280541 101.626914,83.6713084 L94.1468209,88.2250946 C94.7942221,85.6407385 95.0251607,84.6248172 95.0234971,84.1585335 C95.9022069,75.0857828 90.9877879,64.2578366 85.0070412,57.6137285 L93.8234287,52.5244059 C94.2414725,52.2838334 94.4965056,51.838183 94.4965056,51.3557236 L94.4922332,49.0390639 C101.201311,55.3951708 106.009802,65.5458808 105.988837,73.778913 Z M91.7647597,30.1695783 C91.7652114,30.4405919 91.8011885,51.9190618 91.7990405,50.5774784 L85.4936085,54.2020041 L85.4467759,35.3372841 C85.4467759,26.3587845 81.6342003,17.594904 71.9300241,16.8684214 C71.9236153,16.8684214 71.9186857,16.8731868 71.9122769,16.8733513 C67.9918009,16.5460151 63.5865652,17.6842972 59.0258773,20.3179406 C45.2540924,28.2699764 34.0852222,47.6169916 34.1272895,63.4448187 C34.1276748,63.7158374 34.1581108,85.1969393 34.1562108,83.8553557 L27.847758,87.4803743 C27.8471315,87.211045 27.8011127,67.3804227 27.8038629,68.6453895 C27.7843284,61.8975303 29.3467343,54.6639255 32.0566249,47.6137075 C36.943704,34.9058938 45.2709923,23.6148733 54.3218978,16.4314825 C60.0422453,11.8937925 67.9042463,7.66645696 75.2091377,7.89379084 C77.904239,7.97940434 80.3904825,8.64755165 82.5914573,9.90628438 C88.4782513,13.2519473 91.7384677,20.4480862 91.7647597,30.1695783 Z M16.172437,80.4058286 L16.172437,83.301905 C15.5372167,83.0599152 13.6982946,82.5383258 12.8754117,82.4119185 L16.172437,80.4058286 Z M7.01425251,85.9700567 C7.02706978,85.9629908 7.04169493,85.963648 7.05434797,85.956089 C17.4588995,79.852627 37.0298209,102.02766 34.1448724,118.787158 C33.6743265,121.498404 32.4154861,124.192078 30.0309856,125.563774 C27.19933,127.197826 23.334396,126.760063 19.1539573,124.346451 C10.0463852,119.088038 2.66094335,106.285116 2.69239325,95.8050977 C2.70547574,91.0861645 4.24093247,87.600658 7.01425251,85.9700567 Z" id="Shape" fill-rule="nonzero"></path>
            <path d="M25.7322326,118.153355 C27.9039573,116.904481 29.1055049,114.387016 29.1134688,111.065013 C29.1344262,104.69576 24.8014935,97.1946332 19.2486089,93.9883158 C16.3485939,92.3135111 13.551118,92.08477 11.3688763,93.3402162 C9.19978066,94.5890894 7.99823335,97.1026109 7.99026935,100.415412 C7.96931204,106.795182 12.2969864,114.300252 17.8419834,117.501311 C20.3162798,118.929084 23.2455833,119.583345 25.7322326,118.153355 Z M10.6826056,100.423299 C10.6879117,98.1109119 11.4109436,96.4242757 12.7124011,95.6749518 C14.2870185,94.7652565 16.3193364,95.4069576 17.9024553,96.320422 C22.5377468,98.9956398 26.4368604,105.744814 26.4211328,111.057126 C26.4158267,113.378715 25.6927949,115.07061 24.3887083,115.819934 C23.0741048,116.57846 21.2283685,116.34709 19.1881375,115.169205 C14.5607331,112.497931 10.6668781,105.744814 10.6826056,100.423299 Z" id="Shape" fill-rule="nonzero"></path>
            <path d="M77.2699429,60.3515542 C74.3751863,58.6793786 71.572452,58.4506377 69.3954687,59.7034546 C67.223744,60.9523278 66.0221964,63.464535 66.0116213,66.77865 C65.9932754,73.1610494 70.3235787,80.6648052 75.8659467,83.864555 C78.3402458,85.2923272 81.269552,85.946589 83.7561962,84.5165983 C85.9279209,83.267725 87.1294684,80.7502545 87.1374323,77.4295665 C87.1583895,71.0589987 82.8228275,63.5565572 77.2699429,60.3515542 Z M82.4126714,82.1831773 C81.1006972,82.9403889 79.2523649,82.7103333 77.2121005,81.5324487 C72.5846967,78.8624842 68.6908414,72.1093667 68.7039542,66.7865376 C68.711875,64.4741503 69.4322776,62.7875141 70.7363642,62.0368755 C72.3213136,61.1300253 74.3486374,61.7747972 75.923789,62.6836605 C80.5590805,65.3588782 84.4608232,72.108052 84.4450958,77.4216788 C84.4397898,79.741954 83.7167579,81.4338535 82.4126714,82.1831773 Z" id="Shape" fill-rule="nonzero"></path>
            <path d="M46.2268991,7.20214265 C45.0700481,8.01851146 43.9289725,8.89272261 42.8089302,9.81688873 C42.2357632,10.2901461 42.1542576,11.1393796 42.627515,11.7125469 C43.1007414,12.2865111 43.9522448,12.365729 44.5231731,11.8939621 C45.5906311,11.0118633 46.6738642,10.1797192 47.7781311,9.40278865 C48.3854778,8.97422792 48.5300843,8.13419642 48.1041529,7.52684977 C47.6729629,6.9168738 46.8342457,6.77752588 46.2268991,7.20214265 Z" id="Path"></path>
        </g>
    </g>
</svg>