<?xml version="1.0" encoding="UTF-8"?>
<svg id="Layer_1" xmlns="http://www.w3.org/2000/svg" version="1.1" viewBox="0 0 157 140">
  <!-- Generator: Adobe Illustrator 30.0.0, SVG Export Plug-In . SVG Version: 2.1.1 Build 123)  -->
  <defs>
    <style>
      .st0 {
        fill-rule: evenodd;
      }
    </style>
  </defs>
  <g id="ICONS">
    <g id="Group">
      <g>
        <g id="Layer_11" data-name="Layer_1">
          <path id="Shape" d="M19.5,36.37c.15.79.9,1.3,1.68,1.17.78-.15,1.3-.91,1.15-1.7-.52-2.82-.96-5.69-1.3-8.53-.58-4.79.41-8.64,2.72-10.54,2.66-2.2,7.12-1.31,10.59.78,1.69.98,3.2,3.27,3.52,5.33,1.32,8.28,3.57,17.01,6.7,25.96.34.97.7,2.87.03,3.54-.1.1-.19.19-.34.2h-.01c-1.33.06-2.65.33-3.98.63h-.04c-1.48.34-2.47,1.12-3.05,2.27-3.73,7.47,18.57,40.75,22.59,46.33,1.22,1.66,2.95,3.29,5.01,3.85,2.08.56,3.92-.28,4.66-1.44l2.31-3.18c.09-.12.22-.17.34-.21.93-.33,2.34.88,3.01,1.7,3.37,4.02,6.86,7.76,10.41,11.25,2.79,2.74,5.62,5.34,8.49,7.73.37.3.7.68,1.01,1.08,1.33,1.68,1.88,3.85,1.78,5.04,0,4.76-2.07,7.91-4.41,8.93-2.36,1.03-5.48.53-8.79-1.41-.91-.53-1.83-1.17-2.74-1.91-23.88-19.27-42.57-45.94-52.65-75.11-.26-.76-1.08-1.16-1.83-.89-.75.27-1.14,1.1-.88,1.86,10.25,29.68,29.28,56.82,53.57,76.42,1.02.83,2.06,1.55,3.1,2.16,3.45,2.02,7.66,3.16,11.36,1.56.49-.21,6.07-3.53,22.19-13.02,2.27-1.35,3.88-3.72,4.68-6.99.04-.29.56-4.38.53-4.08.26-2.85-1.35-6.39-3.85-8.45-6.29-5.22-12.52-11.48-18.48-18.59-1.74-2.11-4.63-3.67-6.8-2.32l-6.42,3.78c-.7-.51-1.39-1.19-1.99-2.03-8.73-12.11-16.1-25.03-21.9-38.4-.44-1-.63-1.97-.69-2.86l6.41-3.77s0,0,.01,0c1.92-1.16,2.46-4.04,1.34-7.16-3.05-8.66-5.26-17.23-6.57-25.47-.45-2.94-2.48-5.98-4.98-7.43l-4.16-1.71c-3.19-1.12-6.15-.96-8.55.45C15.16,18.37,25.16,12.46,23.01,13.74c-4.48,2.7-5.47,8.64-4.83,13.93.35,2.9.8,5.82,1.33,8.7ZM93.26,88.3c.79-.5,2.43.85,3.13,1.69,6.09,7.26,12.43,13.65,18.86,18.97,1.76,1.46,2.99,4.08,2.8,5.97-.04.43-.51,4.04-.48,3.75-.59,2.38-1.7,4.07-3.31,5.03l-15.42,9.08c.63-2.03.79-4.73.83-5.02.21-2.31-.8-5.07-2.5-7.13-.41-.51-.86-.99-1.35-1.39-2.84-2.36-5.64-4.93-8.41-7.66-7.62-7.51-10.08-11.41-12.07-12.76,25.46-14.97-5.5,3.24,17.91-10.54ZM58.84,50.32c5.89,13.56,13.36,26.67,22.21,38.94.5.7,1.05,1.33,1.64,1.89-.29.17-12.99,7.64-12.18,7.16-.6.35-.86.81-1.13,1.1l-2.24,3.06c-.38.52-1.01.56-1.64.37-1.33-.39-2.63-1.7-3.4-2.77-3.35-4.63-25.47-38.34-22.24-43.41.16-.25.33-.44.67-.53,1.28-.28,2.48-.57,3.85-.63.31-.02,1.14-.18,1.4-.37,3.07-1.81,11.8-6.97,12.27-7.24.17.8.43,1.61.79,2.42ZM45.73,3.71c1.65-.97,3.79-1.05,6.13-.24.3.12,4.05,1.65,3.75,1.53,1.69.98,3.2,3.27,3.52,5.33,1.34,8.42,3.59,17.17,6.71,26,.69,1.93.38,3.36-.1,3.66-.29.17-18.19,10.7-17.9,10.53-.03-.55-.29-1.93-.54-2.63-3.05-8.67-5.26-17.24-6.58-25.46-.45-2.93-2.48-5.97-4.97-7.42h-.02s0-.01,0-.01c-3.54-1.42-3.72-1.71-5.5-2.13l15.51-9.15Z"/>
          <path id="Path" class="st0" d="M25.53,49.57c-.7-2.47-1.1-3.96-1.67-6.44-.18-.78-.95-1.26-1.73-1.09-.77.18-1.26.97-1.08,1.75.58,2.54.99,4.06,1.71,6.58.18.64.76,1.06,1.38,1.06.13,0,.26-.02.4-.06.76-.22,1.2-1.03.99-1.8Z"/>
          <path id="Shape1" data-name="Shape" d="M95.52,7.35l-10.14,5.99s-.04.02-.05.03c-5.02,2.93-7.8,8.97-7.82,17-.04,16.03,11.09,35.6,24.81,43.64,5.81,3.4,12.79,5.12,18.6,1.73.02-.01.03-.03.05-.04h0s0,.01,0,.01c0,0,0,0,0,0l10.23-6.04c4.98-2.95,7.74-8.99,7.78-17.02.03-16-11.11-35.56-24.84-43.6-6.96-4.08-13.58-4.69-18.63-1.7ZM103.76,71.48c-12.93-7.57-23.42-26.01-23.38-41.11.02-6.93,2.28-12.06,6.35-14.46h0c13.67-8.06,39.21,18.16,39.14,42.77-.02,5.67-1.6,11.73-6.39,14.52-4.12,2.41-9.71,1.79-15.73-1.73ZM136.12,52.63c-.06,13.59-8.09,15.05-9.29,16.25,1.08-2.45,1.92-6.13,1.93-10.19.04-19.72-17.35-45.36-34.73-47.08,1.7-.48,6.88-6.96,18.69-.03,12.94,7.57,23.44,26,23.41,41.06Z"/>
        </g>
        <g>
          <path id="Shape-Copy-2" d="M98.27,25.48l9.29,3.91c.34.15.56.45.55.79l-.36,22.92c0,.3-.19.58-.48.74-.29.16-.66.18-.97.05l-5.4-2.27c-.3-.13-.5-.38-.55-.67l-3.54-24.56c-.05-.32.11-.64.41-.83.3-.19.69-.22,1.02-.09ZM102.29,50.24l3.49,1.47.33-20.97-7.06-2.97,3.23,22.47Z"/>
          <path id="Shape-Copy" d="M103.92,54.94c2.04.86,3.73,3.09,3.87,5.08.16,2.35-1.94,3.61-4.35,2.6-2.04-.86-3.74-3.09-3.88-5.09-.16-2.35,1.96-3.6,4.37-2.58ZM104.32,61.03c1.02.43,1.53.12,1.47-.88-.09-1.37-1.36-3.03-2.76-3.63-.98-.41-1.54-.17-1.48.86.09,1.38,1.36,3.05,2.77,3.64Z"/>
        </g>
      </g>
    </g>
  </g>
</svg>