<?xml version="1.0" encoding="UTF-8"?>
<svg width="105px" height="140px" viewBox="0 0 105 140" version="1.1" xmlns="http://www.w3.org/2000/svg" xmlns:xlink="http://www.w3.org/1999/xlink">
    <title>Layer_1</title>
    <g id="ICONS" stroke="none" stroke-width="1" fill="none" fill-rule="evenodd">
        <g id="Layer_1" fill="#000000">
            <path d="M88.9583333,31.6944079 C86.0416667,33.4420783 83.7083333,37.519976 83.7083333,40.7240385 C83.7083333,44.8019362 86.9166667,46.5496067 90.4166667,44.5106578 C93.3333333,42.7629874 95.6666667,38.6850897 95.6666667,35.4810272 C95.6666667,31.4031295 92.4583333,29.655459 88.9583333,31.6944079 Z M88.9583333,42.1804306 C87.5,43.0542658 86.625,42.471709 86.625,40.7240385 C86.625,38.3938113 88.375,35.4810272 90.4166667,34.3159136 C91.875,33.4420783 92.75,33.7333568 92.75,35.7723056 C92.75,37.8112545 91,40.7240385 88.9583333,42.1804306 Z" id="Shape" fill-rule="nonzero"></path>
            <path d="M6.125,75.386169 C6.125,75.386169 6.125,75.386169 6.125,75.386169 C2.625,77.4251179 0,82.0855724 0,86.1634701 C0,86.1634701 0,86.1634701 0,86.1634701 L0,120.534322 C0,122.864549 0.875,124.320941 2.33333333,125.194777 C8.45833333,128.690118 16.3333333,133.350572 16.9166667,133.641851 C18.375,134.515686 20.4166667,134.224407 22.1666667,133.350572 L24.2083333,132.185458 C31.7916667,136.554635 37.9166667,140.049975 37.625,139.758697 C38.5,140.341254 39.375,139.758697 39.6666667,139.17614 C39.9583333,138.884862 53.9583333,115.000032 53.6666667,115.000032 L74.6666667,102.766339 C78.1666667,100.72739 80.7916667,96.0669359 80.7916667,91.9890382 L80.7916667,69.2693225 L87.5,65.4827032 L100.916667,73.0559418 C101.208333,73.0559418 101.5,73.3472202 101.5,73.3472202 C102.375,73.3472202 103.25,72.4733849 102.958333,71.3082713 L98.875,58.7832998 C102.375,56.7443509 105,52.0838964 105,48.0059987 L105,13.6351466 C105,11.5961978 104.125,10.1398057 102.958333,9.26597052 C102.666667,8.97469212 87.7916667,0.5276183 88.0833333,0.5276183 C86.625,-0.346216923 84.5833333,-0.0549385154 82.8333333,0.818896707 L77,4.02295919 C76.4166667,4.3142376 76.125,5.18807282 76.4166667,6.06190804 C76.7083333,6.64446486 77.5833333,6.93574326 78.4583333,6.64446486 L84.2916667,3.44040237 C85.4583333,3.14912397 86.3333333,3.14912397 86.625,3.44040237 L97.4166667,9.55724893 C97.4166667,9.55724893 97.4166667,9.55724893 97.4166667,9.55724893 L45.7916667,39.2676465 C45.5,38.9763681 33.5416667,31.9856863 34.125,32.5682431 L67.6666667,13.3438682 C68.25,13.0525898 68.5416667,12.1787546 68.25,11.3049194 C67.9583333,10.7223626 67.0833333,10.4310842 66.2083333,10.7223626 L30.625,31.1118511 C30.625,31.1118511 30.625,31.1118511 30.625,31.1118511 C30.625,31.1118511 30.625,31.1118511 30.625,31.1118511 L30.625,31.1118511 C30.625,31.1118511 30.625,31.1118511 30.625,31.1118511 C27.125,33.1507999 24.5,37.8112545 24.5,41.8891522 C24.5,41.8891522 24.5,41.8891522 24.5,41.8891522 L24.5,64.6088679 L6.125,75.386169 Z M38.7916667,56.4530725 L27.125,63.1524759 L27.125,44.5106578 L38.7916667,51.2100612 C38.7916667,51.5013396 38.7916667,56.7443509 38.7916667,56.4530725 Z M73.2083333,50.336226 L69.4166667,48.2972771 C70,46.5496067 71.1666667,45.0932146 72.625,44.5106578 C74.0833333,43.6368226 74.9583333,43.928101 74.9583333,45.6757715 C74.9583333,47.1321635 74.375,48.8798339 73.2083333,50.336226 Z M9.625,76.5512826 L59.7916667,47.7147203 C60.6666667,47.1321635 61.5416667,47.1321635 62.125,47.4234419 L72.9166667,53.5402885 C72.9166667,53.5402885 72.9166667,53.5402885 72.9166667,53.5402885 L21.2916667,83.250686 C21,83.250686 9.04166667,76.2600042 9.625,76.5512826 Z M7,78.2989531 C7.29166667,78.5902315 19.5416667,85.5809133 18.6666667,84.9983565 C16.625,86.7460269 15.1666667,89.658811 14.5833333,91.9890382 C14.2916667,91.6977598 2.04166667,84.7070781 2.91666667,85.2896349 C3.20833333,82.6681292 4.95833333,80.0466235 7,78.2989531 Z M14.5833333,128.981396 L3.79166667,122.864549 C3.20833333,122.573271 2.91666667,121.699436 2.91666667,120.534322 L2.91666667,88.4936974 C3.20833333,88.7849758 15.1666667,95.7756575 14.5833333,95.1931007 C14.5833333,141.506368 14.5833333,125.486055 14.5833333,128.981396 C14.5833333,128.981396 14.5833333,128.981396 14.5833333,128.981396 Z M37.9166667,124.320941 C37.9166667,125.194777 36.75,137.137191 36.75,136.263356 L26.8333333,130.437788 L37.9166667,124.320941 Z M72.9166667,100.72739 L51.625,112.961084 C51.3333333,112.961084 51.3333333,113.252362 51.0416667,113.54364 L40.25,132.185458 C40.25,131.89418 41.125,121.116879 41.125,121.699436 C41.125,120.825601 40.5416667,120.243044 39.6666667,120.243044 C39.375,120.243044 39.0833333,120.243044 38.7916667,120.534322 L20.4166667,131.020345 C18.375,132.185458 17.2083333,131.311623 17.2083333,129.272674 C17.2083333,79.1727883 17.2083333,140.923811 17.2083333,94.9018223 C17.2083333,91.9890382 19.25,88.2024189 21.875,86.7460269 C78.1666667,54.1228453 73.5,56.7443509 74.375,56.4530725 C76.4166667,55.5792373 77.2916667,56.1617941 77.2916667,58.4920214 C77.2916667,73.929777 77.2916667,93.7367087 77.2916667,92.8628735 C77.875,95.4843791 75.5416667,99.2709984 72.9166667,100.72739 Z M97.4166667,56.4530725 L96.5416667,57.0356293 C95.9583333,57.3269078 95.6666667,58.200743 95.9583333,58.7832998 L99.1666667,68.9780441 L88.0833333,62.8611975 C87.5,62.5699191 87.2083333,62.5699191 86.625,62.8611975 L80.5,66.3565384 C80.5,56.1617941 80.5,58.200743 80.5,57.3269078 C80.2083333,55.5792373 79.625,54.1228453 78.4583333,53.5402885 C77.875,53.2490101 75.5416667,51.792618 75.8333333,52.0838964 C77.2916667,50.336226 77.875,48.0059987 77.875,45.9670499 C77.875,41.8891522 74.6666667,40.1414817 71.1666667,42.1804306 C69.4166667,43.0542658 67.9583333,45.0932146 66.7916667,47.1321635 L63.5833333,45.384493 C62.125,44.5106578 60.0833333,44.8019362 58.3333333,45.6757715 L41.7083333,55.2879589 C41.7083333,54.1228453 41.7083333,51.5013396 41.7083333,50.9187828 C41.7083333,48.0059987 44.0416667,44.2193794 46.375,42.7629874 C46.375,42.7629874 46.375,42.7629874 46.375,42.7629874 L98.875,12.1787546 C100.625,11.013641 102.083333,11.5961978 102.083333,13.926425 L102.083333,48.2972771 C102.083333,51.5013396 100.041667,54.9966805 97.4166667,56.4530725 Z M31.2083333,34.3159136 C31.5,34.607192 43.75,41.5978738 42.875,41.0153169 C40.8333333,42.7629874 39.375,45.384493 38.7916667,48.0059987 L27.125,41.3065953 C27.7083333,38.6850897 29.1666667,35.7723056 31.2083333,34.3159136 Z" id="Shape" fill-rule="nonzero"></path>
            <path d="M29.1666667,97.523328 C26.25,99.2709984 23.9166667,103.348896 23.9166667,106.552959 C23.9166667,110.630856 27.125,112.378527 30.625,110.339578 C33.5416667,108.591907 35.875,104.51401 35.875,101.309947 C35.875,97.523328 32.6666667,95.4843791 29.1666667,97.523328 Z M29.1666667,108.009351 C27.7083333,108.883186 26.8333333,108.300629 26.8333333,106.552959 C26.8333333,104.222731 28.5833333,101.309947 30.625,100.144834 C32.0833333,99.2709984 32.9583333,99.5622768 32.9583333,101.601226 C32.9583333,103.931453 31.2083333,106.844237 29.1666667,108.009351 Z" id="Shape" fill-rule="nonzero"></path>
            <path d="M46.6666667,87.3285837 C43.75,89.0762542 41.4166667,93.1541519 41.4166667,96.3582144 C41.4166667,100.436112 44.625,102.183783 48.125,100.144834 C51.0416667,98.3971632 53.375,94.3192655 53.375,91.115203 C53.375,87.3285837 50.1666667,85.5809133 46.6666667,87.3285837 Z M46.6666667,97.8146064 C45.2083333,98.6884416 44.3333333,98.1058848 44.3333333,96.3582144 C44.3333333,94.0279871 46.0833333,91.115203 48.125,89.9500894 C49.5833333,89.0762542 50.4583333,89.3675326 50.4583333,91.4064814 C50.75,93.7367087 49,96.6494928 46.6666667,97.8146064 Z" id="Shape" fill-rule="nonzero"></path>
            <path d="M64.4583333,77.4251179 C61.5416667,79.1727883 59.2083333,83.250686 59.2083333,86.4547485 C59.2083333,90.5326462 62.4166667,92.2803167 65.9166667,90.2413678 C68.8333333,88.4936974 71.1666667,84.4157996 71.1666667,81.2117372 C71.1666667,77.1338395 67.9583333,75.386169 64.4583333,77.4251179 Z M64.4583333,87.6198621 C63,88.4936974 62.125,87.9111405 62.125,86.1634701 C62.125,83.8332428 63.875,80.9204588 65.9166667,79.7553451 C67.375,78.8815099 68.25,79.1727883 68.25,81.2117372 C68.25,83.5419644 66.5,86.4547485 64.4583333,87.6198621 Z" id="Shape" fill-rule="nonzero"></path>
            <path d="M71.4583333,11.013641 L74.6666667,9.26597052 C75.25,8.97469212 75.5416667,8.10085689 75.25,7.22702167 C74.9583333,6.64446486 74.0833333,6.35318645 73.2083333,6.64446486 L70,8.68341371 C69.4166667,8.97469212 69.125,9.84852734 69.4166667,10.7223626 C69.7083333,11.3049194 70.5833333,11.5961978 71.4583333,11.013641 Z" id="Path"></path>
        </g>
    </g>
</svg>