<?xml version="1.0" encoding="UTF-8"?>
<svg width="123px" height="140px" viewBox="0 0 123 140" version="1.1" xmlns="http://www.w3.org/2000/svg" xmlns:xlink="http://www.w3.org/1999/xlink">
    <title>Layer_1 Copy</title>
    <g id="ICONS" stroke="none" stroke-width="1" fill="none" fill-rule="evenodd">
        <g id="Layer_1-Copy" fill="#000000">
            <path d="M0.0401088509,58.7657239 C0.0344828045,58.8177058 0,58.8609645 0,58.9140146 L0.209070731,125.117517 C0.209070731,126.246875 0.693996921,127.189669 1.57383345,127.720881 C2.07055765,128.003588 1.11433047,127.459314 22.4886394,139.624367 C22.5087842,139.636472 22.5227585,139.655164 22.5432663,139.666735 C23.4771112,140.192106 24.5756107,140.060327 25.523966,139.522895 L67.7034799,115.660204 L82.8106096,124.27299 C82.8588846,124.300405 82.9136928,124.29186 82.9636008,124.313579 C83.0147794,124.33868 83.0461762,124.390661 83.0995325,124.412558 C83.91839,124.750084 84.8809833,124.64612 85.8072796,124.122029 C86.720509,123.603635 87.5161365,122.724928 88.0446192,121.651111 L99.7597998,98.1125945 C100.026945,97.5714137 100.430566,97.1000167 100.813861,96.8835445 L120.15429,85.9303299 C121.78039,85.0088982 123.004321,82.9296247 122.999977,81.0924583 L122.808318,14.8804141 C122.804144,13.7442904 122.32684,12.8239271 121.506168,12.3283194 C121.486567,12.3158579 121.475678,12.2957418 121.45517,12.2841705 L100.510419,0.366799536 C99.6305833,-0.165836343 98.5242541,-0.113142441 97.4992305,0.490701548 L83.1387335,8.62123087 C82.4273147,9.02426817 82.1833995,9.91579244 82.5942802,10.6136308 C83.0037089,11.310045 83.9125829,11.549304 84.6254536,11.1476909 L98.984499,2.87047301 L117.112612,13.185664 L23.8122051,66.0248455 C23.023837,66.4806601 21.8720945,67.8636808 21.5182423,68.6324826 L3.14766589,58.1535134 C3.38432141,57.5240347 3.85618111,56.877466 4.33239602,56.6068757 L69.2936461,19.8279464 C70.0050648,19.4249091 70.24898,18.5333848 69.8380993,17.8355464 C69.4243148,17.1391323 68.5139892,16.8998733 67.8069259,17.3014863 L2.84422423,54.0818396 C1.27383979,54.9735418 0.0983653856,56.9661196 0.0401088509,58.7657239 Z M3.18251104,125.113244 L2.98215231,61.4475954 C3.28057659,61.617599 22.1894453,72.3893778 20.9892153,71.7056419 C21.0073892,78.2289844 20.9233931,48.0795117 21.1668884,135.478281 L3.18251104,125.113244 Z M70.6732905,113.980051 L78.0078065,109.830583 L80.7794361,119.741669 L70.6732905,113.980051 Z M118.66757,83.4038701 L99.3271413,94.3570848 C98.4284306,94.8655099 97.611025,95.7712757 97.0854459,96.8379714 L85.3702653,120.376488 C85.1452247,120.835068 84.8301678,121.230984 84.3641159,121.532906 L80.78234,108.725435 C80.2907215,106.988839 78.4368811,106.189284 76.5675407,107.247157 L24.1519439,136.901017 C24.1328767,130.127856 24.2208908,161.392029 23.9661039,70.8869278 C23.9661039,70.8814092 23.9704594,70.8767807 23.9704594,70.8712621 C23.9704594,70.1523393 24.5958744,68.9667207 25.3192514,68.5584261 L119.834878,15.0299479 L120.026527,81.0995791 C120.027977,81.8885637 119.367374,83.0079536 118.66757,83.4038701 Z" id="Shape" fill-rule="nonzero"></path>
            <path d="M78.1689646,11.4353712 L73.215161,14.2395423 C72.5037422,14.6425793 72.259827,15.5341036 72.6707077,16.2319419 C72.9465639,16.6990666 73.4460091,16.9611119 73.959973,16.9611119 C74.2125991,16.9611119 74.4681292,16.8984488 74.7018811,16.766002 L79.6556847,13.9618309 C80.3671035,13.5587936 80.6110187,12.6672694 80.200138,11.969431 C79.7878054,11.2730168 78.8760279,11.0309097 78.1689646,11.4353712 Z" id="Path"></path>
            <path d="M44.4825518,80.5384601 C39.4300261,83.4010217 35.4852815,90.104543 35.5026466,95.801183 C35.5206881,102.045924 40.4176419,104.867274 46.0229913,101.694357 C51.075517,98.8346437 55.0202616,92.1296984 55.0043393,86.4316342 C54.9861934,80.150649 50.0506518,77.3825549 44.4825518,80.5384601 Z M44.5362712,99.1678974 C41.0327206,101.157093 38.4884116,99.8918937 38.4760985,95.792638 C38.4616257,91.201146 41.8938586,85.3734835 45.969272,83.0649201 C49.4580258,81.0874851 52.0185383,82.3277116 52.0308886,86.4401795 C52.0439175,91.111424 48.6813745,96.8208817 44.5362712,99.1678974 Z" id="Shape" fill-rule="nonzero"></path>
            <path d="M71.2130253,65.3996392 C66.159048,68.263625 62.215755,74.967146 62.23312,80.6623621 C62.2511728,86.9108975 67.1603314,89.7259501 72.7534648,86.5569604 C77.8161534,83.6887023 81.7696152,76.9809086 81.7536928,71.2828444 C81.7356208,65.0435771 76.8201728,62.2237737 71.2130253,65.3996392 Z M71.2667446,84.0305004 C67.7782233,86.009938 65.2189303,84.7682596 65.206572,80.6538171 C65.1920991,76.0651735 68.6243321,70.2360868 72.6997454,67.9260992 C76.2576847,65.9145565 78.7680334,67.2442046 78.7802422,71.2913893 C78.7932711,75.9626342 75.4234631,81.6763639 71.2667446,84.0305004 Z" id="Shape" fill-rule="nonzero"></path>
            <path d="M97.9435044,50.2622425 C92.9025938,53.1176833 88.9665602,59.816932 88.9824824,65.513572 C89.0005431,71.7818509 93.903276,74.5808595 99.4839439,71.4181395 C104.546632,68.5498814 108.500089,61.8420877 108.484166,56.1454477 C108.466004,49.8719727 103.520202,47.1019203 97.9435044,50.2622425 Z M97.9972237,68.8916798 C94.4476499,70.9020152 91.9680514,69.5579751 91.9559339,65.5050273 C91.9429044,60.9135353 95.366426,55.0901451 99.4302245,52.7887025 C102.978086,50.7782168 105.498496,52.0997985 105.510716,56.1539926 C105.523745,60.8238133 102.153942,66.5375433 97.9972237,68.8916798 Z" id="Shape" fill-rule="nonzero"></path>
        </g>
    </g>
</svg>