<?xml version="1.0" encoding="UTF-8"?>
<svg width="140px" height="140px" viewBox="0 0 140 140" version="1.1" xmlns="http://www.w3.org/2000/svg" xmlns:xlink="http://www.w3.org/1999/xlink">
    <title>tactical-planning.1</title>
    <g id="tactical-planning.1" stroke="none" fill="none" fill-rule="evenodd" stroke-width="1">
        <g id="Layer_1" transform="translate(38.9671, 6.6036)" fill="#000000">
            <path d="M1.43425694,118.14082 C1.4497346,118.597389 1.69737611,119.013994 2.0920546,119.242289 C9.00764992,123.259551 15.1390242,126.817624 14.7965775,126.626391 C15.1904551,126.846352 15.6858438,126.85399 16.1018546,126.614783 L61.4073579,100.38671 C61.8278326,100.142937 62.0806332,99.6876383 62.0651555,99.2013837 C62.0427151,98.498584 61.8969273,94.0096182 61.8407305,92.2790296 C61.8243762,91.7821846 61.4528637,91.3379292 61.188092,91.1839897 C56.9449538,88.7196463 48.7552306,83.9619286 49.2476117,84.2506722 L49.2966241,67.4237864 L55.6393745,63.7512436 C56.0495307,63.5139203 56.2997519,63.0766784 56.2971722,62.6046119 C56.2959529,62.3097064 56.0650083,5.74689817 56.0650083,6.04690258 C56.0650083,5.57612564 55.8147871,5.14017357 55.4072107,4.90414017 L47.2763145,0.179604547 C46.8687377,-0.0602981321 46.3605568,-0.059008283 45.95298,0.178314698 L30.6069403,9.05600474 C29.9749385,9.42101802 29.7582521,10.2284326 30.1245552,10.8604344 C30.4908583,11.4924361 31.3008524,11.705253 31.927695,11.3415296 L46.610778,2.84819975 L52.1104833,6.0430333 L9.45422826,30.7246371 L3.95452294,27.5285139 L18.4467104,19.1422374 C19.0787121,18.7772241 19.2953986,17.9698095 18.9290954,17.3378078 C18.5602129,16.7045162 17.7476391,16.4891196 17.1259557,16.8567125 L0.664408038,26.3807535 C0.663118189,26.3813983 0.661667208,26.3810761 0.660377358,26.381882 C0.256876755,26.6154112 0,27.149489 0,27.5246444 C0,27.7972482 0.209333019,83.8057219 0.211527057,84.1184681 C0.214106755,84.5866654 0.464327698,85.020038 0.869324717,85.2547816 L9.0002183,89.9793172 C9.00505517,89.9822192 9.01118162,89.9809296 9.01617962,89.9836701 C9.01714694,89.9841538 9.01730808,89.9852825 9.01827566,89.9857662 C9.40204657,90.2046493 9.91769932,90.2286012 10.3390304,89.980607 L12.5755428,88.6856482 L12.5421692,103.840309 C11.4507014,104.472472 16.4960397,101.55023 1.86762958,110.022802 C1.39538158,110.304381 1.22272989,110.893547 1.22272989,111.159115 C1.22272989,111.425096 1.43136,118.40677 1.43425694,118.14082 Z M3.93646558,113.497038 L13.9290261,119.305489 L14.0457531,123.134742 L4.05254751,117.326936 L3.93646558,113.497038 Z M16.692583,123.22003 C16.6844665,122.95417 16.5640313,119.00948 16.5717556,119.27534 C20.8175784,116.819632 58.5123425,95.0156716 59.2716111,94.5764848 L59.3978502,98.4971528 L16.692583,123.22003 Z M46.6520515,68.9646132 C46.6474466,70.5721719 46.576185,95.4488832 46.5798226,94.1789043 C46.5669247,94.2137289 46.4714795,94.3478679 46.1722459,94.5142521 C45.1816749,95.0985313 43.4301272,95.0972415 42.4111855,94.5000643 C42.1325486,94.3452882 42.042303,94.1995411 42.0345642,94.1750348 L42.0835766,71.6001573 C42.348847,71.4471196 46.9430019,68.796763 46.6520515,68.9646132 Z M22.4325133,82.9782852 L39.4394874,73.1311495 L39.4059527,88.3078981 L22.3884989,98.1422972 L22.4325133,82.9782852 Z M2.85045679,83.3510373 L2.64924826,29.8256466 L8.13347328,33.0140312 L8.33468208,86.538132 L2.85045679,83.3510373 Z M10.7878807,33.0179005 L53.428658,8.3388764 L53.6530831,61.8513691 C19.8680189,81.4087 95.5292058,37.6107508 10.9890892,86.5484505 L10.7878807,33.0179005 Z M19.7855222,84.5110506 L19.7415078,100.422824 C19.7415078,100.426048 19.7390895,100.428628 19.7390895,100.431852 L19.715873,109.71196 C19.702975,109.750654 19.6023705,109.900271 19.310876,110.073104 C18.3125711,110.657383 16.5661826,110.654804 15.598833,110.088582 C15.2892811,109.898981 15.180938,109.737756 15.1706195,109.733887 L15.2196319,87.1546563 L19.7855222,84.5110506 Z M12.5291101,109.733886 C12.5291101,110.743799 13.1275771,111.668586 14.2393842,112.353469 C16.1774237,113.487475 19.052926,113.285218 20.6496878,112.3496 C22.1329571,111.471247 22.3548027,110.333643 22.3548027,109.737756 L22.3796313,101.198316 L39.3930545,91.3658516 L39.3930545,94.175035 C39.3930545,95.2365401 40.0250562,96.1961508 41.1033285,96.7946178 C42.9642524,97.8855665 45.7392862,97.8285836 47.4801024,96.8100955 C48.5841709,96.1974407 49.2187521,95.2468584 49.2187521,94.2059904 L49.2393889,87.3004037 L57.8857213,92.3209485 C53.9170282,94.6171041 19.3774866,114.600583 15.2278539,117.001424 L5.17612358,111.160889 L12.5291095,106.901487 L12.5291095,109.733886 L12.5291101,109.733886 Z" id="Shape" fill-rule="nonzero"></path>
            <path d="M23.3969609,16.2775922 L27.5165805,13.8953314 C28.1485823,13.5303181 28.3652687,12.7229035 27.9989656,12.0909018 C27.6326625,11.4576102 26.8175093,11.240924 26.1958258,11.6098065 L22.0762062,13.9920664 C21.4442044,14.3570796 21.227518,15.1644953 21.5938211,15.796497 C21.9670569,16.4408148 22.7859789,16.6365419 23.3969609,16.2775922 Z" id="Path"></path>
            <path d="M26.3634998,34.7887951 L27.2591044,35.3666253 L26.4279899,36.898907 C26.0797442,37.5399375 26.3170671,38.3421927 26.9593874,38.6891488 C27.5906889,39.033495 28.3969948,38.8061426 28.7496292,38.1577514 L29.4846538,36.8024946 L30.0239512,37.1504181 C30.6349384,37.5447138 31.4526713,37.3737752 31.8503075,36.7570292 C32.2475657,36.1443744 32.0695734,35.3266415 31.4582084,34.9319628 L30.7476902,34.4736004 L31.6981111,32.7212465 C32.0463569,32.0802161 31.8090339,31.2779609 31.1667136,30.9310047 C30.5347119,30.5866282 29.7272973,30.8200819 29.3764718,31.4624022 L28.5221408,33.0377311 L27.7977571,32.57034 C27.1889715,32.178241 26.3686592,32.3484944 25.9714008,32.9637289 C25.5741426,33.5763835 25.7521349,34.3941163 26.3634998,34.7887951 Z" id="Path"></path>
            <path d="M40.3810411,57.2016415 L39.6740696,56.7456975 L40.6235232,54.9935047 C40.9717689,54.3524743 40.734446,53.5502191 40.0921257,53.2032629 C39.4523851,52.8588864 38.6527094,53.0897604 38.3018839,53.7346604 L37.4480366,55.3103118 L36.7205897,54.8413084 C36.1169636,54.4492093 35.2940713,54.6194628 34.8968131,55.2359871 C34.4995549,55.8486419 34.6775472,56.6663748 35.2914919,57.0623434 L36.1861291,57.6392062 L35.355982,59.1711658 C35.0077362,59.8121962 35.2450592,60.6144514 35.8873794,60.9614076 C36.5386375,61.3120819 37.3325947,61.0644101 37.6776212,60.4300101 L38.4121622,59.0745919 L38.9519432,59.4226765 C39.5524357,59.8112286 40.3741689,59.650815 40.7757198,59.0279978 C41.172978,58.4153427 40.9949857,57.5976099 40.3810411,57.2016415 Z" id="Path"></path>
            <path d="M18.1087829,46.8342329 L19.00471,47.4122242 L18.1732729,48.9456347 C17.8250272,49.5866651 18.0623502,50.3889203 18.7046704,50.7358765 C19.3559285,51.0865509 20.1498857,50.838879 20.4949122,50.204479 L21.2302591,48.8480935 L21.769234,49.1958556 C22.3802212,49.5901514 23.197954,49.4192127 23.5955902,48.8024667 C23.9928484,48.1898119 23.8148561,47.3720791 23.2034912,46.9774003 L22.4931341,46.5191991 L23.4433938,44.7666841 C23.7916396,44.1256537 23.5543166,43.3233985 22.9119964,42.9764423 C22.2722558,42.6307759 21.47258,42.8642296 21.1217546,43.5078398 L20.2675847,45.0831686 L19.5430398,44.6157776 C18.9316749,44.2236785 18.113942,44.3913525 17.7166835,45.0091665 C17.3194256,45.6218213 17.4974179,46.4395541 18.1087829,46.8342329 Z" id="Path"></path>
            <path d="M22.2258228,69.0871441 C25.0969167,67.4194332 27.3463271,63.5190795 27.3463271,60.2055845 C27.3463271,58.629127 26.7651112,57.3904358 25.8450003,56.6039805 C27.1825226,54.7781081 28.7904189,53.1078175 30.5940423,51.7328913 C32.8524713,49.9516327 35.6566365,48.4403454 38.0439244,46.5827218 C40.6356152,44.540163 42.6448006,41.4167522 43.3915945,38.4585971 C43.449313,38.4274807 43.5067091,38.4168399 43.5642665,38.3834662 C46.4482633,36.7209147 48.7002531,32.8192711 48.6899702,29.5031965 C48.679032,25.5687311 45.5161615,23.9015242 42.2151362,25.8014718 C39.3208261,27.4743419 37.0636769,31.3798548 37.0714157,34.6933497 C37.0777236,36.9223753 38.1717206,38.8592259 40.4423066,39.1168784 C39.6295718,41.1159065 38.1532351,43.1323468 36.4161975,44.5022751 C34.0800077,46.3190131 31.3918439,47.7380948 28.9766337,49.6447057 C26.7652724,51.3295064 24.8015526,53.4304285 23.2291257,55.7301412 C22.4652418,55.7839902 21.6695968,56.0404992 20.8715334,56.5025698 C17.9849621,58.1780192 15.7252332,62.0796628 15.7252332,65.3944476 C15.7576295,69.2385092 18.8774228,71.033225 22.2258228,69.0871441 Z M39.7129135,34.6856111 C39.7077657,32.31238 41.456734,29.2916695 43.5358906,28.0895764 C45.0790501,27.2043733 46.0428426,27.6336928 46.0484508,29.5109353 C46.056164,31.8867462 44.3123499,34.9022973 42.2435115,36.095362 C40.6920088,36.9959746 39.718467,36.5246133 39.7129135,34.6856111 Z M22.1948678,58.7880948 C23.7482399,57.8928633 24.7048176,58.3825838 24.7048176,60.2055845 C24.7048176,62.5839748 22.9610085,65.6059752 20.899909,66.8029092 C19.3114806,67.7267884 18.3829055,67.1767747 18.3667426,65.3828398 C18.3667426,63.0134782 20.12087,59.9927676 22.1948678,58.7880948 Z" id="Shape" fill-rule="nonzero"></path>
        </g>
    </g>
</svg>