<?xml version="1.0" encoding="UTF-8"?>
<svg width="140px" height="140px" viewBox="0 0 140 140" version="1.1" xmlns="http://www.w3.org/2000/svg" xmlns:xlink="http://www.w3.org/1999/xlink">
    <title>Gps Route</title>
    <g id="Gps-Route" stroke="none" fill="none" fill-rule="evenodd" stroke-width="1">
        <g id="Layer_1" transform="translate(6.6037, 21.1753)" fill="#000000">
            <path d="M106.39826,21.1772143 C101.164254,24.1992146 97.0781686,31.2944017 97.0948844,37.3306636 C97.1134565,43.7765376 102.022041,46.7448601 107.775766,43.4288359 C113.02138,40.3990967 117.116494,33.3142279 117.099778,27.2986031 C117.081014,20.7659093 112.093108,17.8932639 106.39826,21.1772143 Z M106.455011,41.1407314 C102.566588,43.3902527 99.7498673,41.8198109 99.7364044,37.3229248 C99.7222577,32.3172129 103.37755,25.9713991 107.719015,23.4653185 C111.551594,21.2504657 114.444584,22.7173709 114.458258,27.3063416 C114.472405,32.291417 110.806795,38.6269123 106.455011,41.1407314 Z" id="Shape" fill-rule="nonzero"></path>
            <path d="M6.43879275,60.1730134 C6.44508562,68.0046309 17.4109649,71.6947976 25.3150075,71.6947976 C30.0072983,71.6947976 34.69314,70.6358722 38.3355337,68.5180214 C42.0385483,66.365346 44.0764313,63.424603 44.0699823,60.2375035 C44.0661131,57.8368641 42.9046485,55.5756845 40.7453627,53.6779055 C49.1121309,50.9049976 59.8793775,51.6222876 66.8039888,55.6548809 C74.7156897,60.2396698 74.6763106,67.265112 66.7008048,71.8586021 L45.9401916,83.8511582 C40.5407532,86.9617012 40.5484871,92.4478736 45.8576444,95.5161051 C50.7942513,98.378916 58.5011562,98.3417436 63.398918,95.5173949 L101.057845,73.7675056 C102.553639,74.6316006 106.124772,76.7372085 106.647191,76.9939389 C107.235299,77.2689082 108.060993,77.1124896 108.401963,76.3778985 C112.660871,67.2024462 126.82158,33.6064935 126.792614,22.9932523 C126.774674,16.9182965 124.645376,12.341604 120.799839,10.0834875 C120.786296,10.0749425 120.779202,10.0607546 120.765337,10.0526936 C120.761467,10.0501139 120.756308,10.0475344 120.752439,10.0449547 L108.803736,3.09035566 C104.867268,0.833206456 99.7583717,1.29366487 94.4211812,4.37499593 C83.922213,10.4435028 75.4134005,25.1936502 75.4520944,37.2545654 C75.4907883,48.8485735 91.1579883,66.3705049 94.2986501,69.7652574 C94.3876462,69.8619924 94.49212,69.9458294 94.6056223,70.0116091 L98.4269759,72.2360297 L62.0794529,93.2292904 C58.0269028,95.5625378 51.2077326,95.5625378 47.1809786,93.2292904 C43.5605768,91.1390191 43.7222905,88.1764001 47.2596565,86.1392625 L68.0202697,74.1467064 C72.7435155,71.4265191 75.346331,67.7260842 75.3514901,63.7251262 C75.3579391,59.7499591 72.7925279,56.0727405 68.1311925,53.3706105 C59.9696635,48.6189891 47.4692489,48.0172976 38.0925677,51.8247857 C36.8993419,51.1577982 35.5732666,50.6280129 34.1831852,50.177873 C38.680555,39.1155849 44.0862659,24.5302092 44.0751415,18.3512636 C44.0661128,13.1133876 42.225569,9.16063574 38.8970801,7.199012 C38.8836984,7.19062838 38.8767658,7.17676283 38.8630617,7.16870174 C38.8591924,7.16612204 38.8566127,7.16354261 38.8527431,7.16225276 L28.6929923,1.23562404 C25.2788928,-0.72615977 20.8677786,-0.341799544 16.2606145,2.31647608 C15.6299029,2.68019925 15.4119269,3.4889037 15.7769401,4.12090544 C16.1419534,4.75161732 16.9454985,4.96572408 17.5813695,4.60458034 C21.3333964,2.43642729 24.8145654,2.04948736 27.3696581,3.52243846 L31.8491319,6.13428242 C29.3828866,6.606014 26.2429149,7.99396687 23.1478218,10.5079926 C13.6174618,18.2363378 8.81683169,31.7471416 10.574696,39.4797923 C12.0020015,45.7917285 17.1070733,53.1472083 21.1371854,58.2162263 L17.8638354,56.3061944 C12.1538941,50.0880709 2.6583886,37.7962814 2.64162135,30.4328158 C2.63259268,26.3222248 3.93013117,21.578342 6.29691384,17.0730723 C6.63742105,16.4281726 6.38848969,15.6297866 5.74230015,15.2905693 C5.09997988,14.9526418 4.30030437,15.2015731 3.95979664,15.845183 C1.39567524,20.7232048 -0.0102063438,25.9056194 5.57859065e-05,30.4379749 C0.0152673166,37.2748797 6.35431015,46.5050076 11.1739678,52.5370777 C8.11682192,54.6159121 6.43653558,57.2909563 6.43879275,60.1730134 Z M124.151105,23.0009908 C124.179436,33.03547 110.653792,64.6842532 106.833567,73.4226451 C101.077797,66.9115959 90.0700428,52.9431831 90.0512497,44.2052949 C90.0242549,34.4037859 96.0484248,22.7104634 104.069527,16.1432879 C108.332516,12.6590632 114.660494,9.58792472 119.407178,12.3214506 C122.451105,14.0729985 124.136873,17.8662991 124.151105,23.0009908 Z M78.0934863,37.2468266 C78.0574949,26.0281503 85.9742844,12.3085526 95.7419362,6.66310019 C100.233018,4.06673363 104.40294,3.61272419 107.482981,5.37717008 L113.307716,8.7680908 C109.161857,9.37641272 105.186745,11.7521831 102.005364,14.4573588 C93.6179587,21.5760848 87.3727494,33.8643273 87.4059617,44.2130338 C87.4333295,52.5921157 95.760487,64.1768079 101.070098,70.7184191 L96.1056597,67.8279783 C89.3638775,60.5109407 78.1219848,45.9916675 78.0934863,37.2468266 Z M41.4336464,18.3564227 C41.4465303,25.6550757 32.6067279,47.674211 26.8029526,60.8701498 C22.1158966,55.5489608 15.4305862,46.7830048 13.4083858,39.9209035 C10.995681,31.7096467 16.7821977,19.5168695 24.0751879,13.1856165 C33.1082433,5.35804476 41.4144716,7.72092487 41.4336464,18.3564227 Z M16.3612193,58.4872454 L26.52226,64.415169 C27.121586,64.7696926 28.0570637,64.4353626 28.3468428,63.8626511 C29.0255797,62.5212091 32.1950857,55.00722 33.1802052,52.6238167 C34.5183722,53.042679 35.788341,53.5421541 36.9051463,54.1767352 C39.8188034,55.8573441 41.4258937,58.0113094 41.4284803,60.2426624 C41.4323424,62.4469299 39.8626566,64.575104 37.0070404,66.235076 C26.6337748,72.2643044 9.08470452,67.78473 9.08030043,60.1704337 C9.07917268,58.1462546 10.4555499,56.2046226 12.8779546,54.6133324 C14.2902852,56.2965207 15.4499749,57.5861589 16.0529562,58.2396037 C16.1419534,58.3363389 16.2477168,58.4214655 16.3612193,58.4872454 Z" id="Shape" fill-rule="nonzero"></path>
            <path d="M9.50077686,12.0196378 C10.8395887,10.2474534 12.2970624,8.66615891 13.8319236,7.31960827 C14.3813781,6.83851306 14.4355497,6.00401268 13.9544545,5.45584797 C13.4707798,4.9063934 12.6375693,4.85351144 12.0906942,5.33331706 C10.4204038,6.79852932 8.84039924,8.51267295 7.39324434,10.4254457 C6.95342271,11.008435 7.06821479,11.8364864 7.64991452,12.276308 C8.22901422,12.7145474 9.05805064,12.6026348 9.50077686,12.0196378 Z" id="Path"></path>
            <path d="M26.4345535,16.6190628 C21.9241246,19.2154294 18.3991024,25.3226301 18.4093983,30.521812 C18.4199912,36.1444259 22.7427519,38.7888727 27.7836838,35.887378 C32.3044312,33.2832729 35.837192,27.1863904 35.8268963,22.0052657 C35.8161724,16.2940536 31.4149129,13.7552242 26.4345535,16.6190628 Z M26.4655088,33.5992737 C23.3432317,35.3947151 21.0563893,34.2494184 21.0509157,30.5166528 C21.0431915,26.320935 24.1116246,21.0043814 27.7527288,18.9071674 C30.864695,17.1150464 33.1798927,18.24778 33.1853789,22.0104251 C33.1931031,26.1893754 30.1156414,31.4956105 26.4655088,33.5992737 Z" id="Shape" fill-rule="nonzero"></path>
        </g>
    </g>
</svg>