<?xml version="1.0" encoding="UTF-8"?>
<svg width="81px" height="140px" viewBox="0 0 81 140" version="1.1" xmlns="http://www.w3.org/2000/svg" xmlns:xlink="http://www.w3.org/1999/xlink">
    <title>Layer_1</title>
    <g id="ICONS" stroke="none" stroke-width="1" fill="none" fill-rule="evenodd">
        <g id="Layer_1" transform="translate(0.656, 0)" fill="#000000">
            <path d="M1.73913043,116.975179 C2.60869565,116.975179 3.1884058,116.390877 3.1884058,115.514424 L3.1884058,110.255707 C3.1884058,109.379254 2.60869565,108.794952 1.73913043,108.794952 C1.73913043,108.794952 1.73913043,108.794952 1.73913043,108.794952 C0.869565217,108.794952 0.289855072,109.379254 0.289855072,110.255707 L0.289855072,115.514424 C0.289855072,116.390877 0.869565217,116.975179 1.73913043,116.975179 C1.73913043,116.975179 1.73913043,116.975179 1.73913043,116.975179 Z" id="Path"></path>
            <path d="M80,100.030424 L79.7101449,12.9694438 C79.7101449,11.5086891 79.1304348,10.0479344 77.9710145,9.46363251 C77.6811594,9.17148157 78.8405797,10.0479344 62.6086957,0.406953346 C62.0289855,0.114802405 60.5797101,-0.469499476 58.2608696,0.699104287 L4.63768116,31.959255 C2.02898551,33.4200097 0,36.925821 0,39.8473304 L0.289855072,104.120537 C0.289855072,104.99699 0.869565217,105.581292 1.73913043,105.581292 C1.73913043,105.581292 1.73913043,105.581292 1.73913043,105.581292 C2.60869565,105.581292 3.1884058,104.99699 3.1884058,104.120537 L2.89855072,39.8473304 C2.89855072,37.8022738 4.34782609,35.4650663 6.08695652,34.5886134 L60,3.03631181 C60.5797101,2.74416087 61.1594203,2.74416087 61.1594203,2.74416087 L73.0434783,9.75578345 C65.5072464,14.1380476 77.6811594,7.12642499 19.7101449,40.7237832 L19.7101449,40.7237832 C17.1014493,42.1845379 15.0724638,45.6903492 15.0724638,48.6118586 L15.3623188,135.088537 L3.47826087,128.076915 C3.47826087,128.076915 3.1884058,127.492613 3.1884058,126.908311 L3.1884058,120.48099 C3.1884058,119.604537 2.60869565,119.020235 1.73913043,119.020235 C1.73913043,119.020235 1.73913043,119.020235 1.73913043,119.020235 C0.869565217,119.020235 0.289855072,119.604537 0.289855072,120.48099 L0.289855072,126.908311 C0.289855072,128.661216 0.869565217,129.82982 2.02898551,130.706273 L17.1014493,139.470801 C17.1014493,139.470801 17.1014493,139.470801 17.1014493,139.470801 C18.2608696,140.347254 20,140.055103 21.1594203,139.17865 L75.3623188,107.9185 C77.9710145,106.457745 80,102.951934 80,100.030424 Z M73.9130435,105.581292 L20,136.841443 C19.4202899,137.133594 18.8405797,137.133594 18.8405797,137.133594 C18.8405797,137.133594 18.8405797,137.133594 18.8405797,137.133594 L18.8405797,137.133594 C18.5507246,137.133594 18.5507246,136.549292 18.5507246,135.96499 L18.2608696,48.6118586 C18.2608696,46.8589529 19.4202899,44.2295945 21.4492754,43.3531417 L75.0724638,12.092991 C75.0724638,12.092991 75.0724638,12.092991 75.0724638,12.092991 C76.2318841,11.5086891 76.8115942,11.80084 76.8115942,12.9694438 L77.1014493,100.322575 C77.1014493,102.075481 75.6521739,104.412688 73.9130435,105.581292 Z" id="Shape" fill-rule="nonzero"></path>
            <path d="M67.2463768,26.1162361 L45.2173913,38.9708775 C44.6376812,39.2630285 44.3478261,40.1394813 44.6376812,41.0159341 C44.9275362,41.600236 45.7971014,41.892387 46.6666667,41.600236 L68.6956522,28.7455946 C69.2753623,28.4534437 69.5652174,27.5769908 69.2753623,26.700538 C68.6956522,25.8240852 67.826087,25.8240852 67.2463768,26.1162361 Z" id="Path"></path>
            <path d="M67.2463768,43.9374435 L45.2173913,56.7920849 C44.6376812,57.0842359 44.3478261,57.9606887 44.6376812,58.8371415 C44.9275362,59.4214434 45.7971014,59.7135943 46.6666667,59.4214434 L68.6956522,46.566802 C69.2753623,46.2746511 69.5652174,45.3981982 69.2753623,44.5217454 C68.6956522,43.6452926 67.826087,43.6452926 67.2463768,43.9374435 Z" id="Path"></path>
            <path d="M67.2463768,61.7586509 L45.2173913,74.6132923 C44.6376812,74.9054433 44.3478261,75.7818961 44.6376812,76.6583489 C44.9275362,77.2426508 45.7971014,77.5348017 46.6666667,77.2426508 L68.6956522,64.3880094 C69.2753623,64.0958585 69.5652174,63.2194056 69.2753623,62.3429528 C68.6956522,61.4665 67.826087,61.4665 67.2463768,61.7586509 Z" id="Path"></path>
            <path d="M67.2463768,79.5798583 L45.2173913,92.4344997 C44.6376812,92.7266507 44.3478261,93.6031035 44.6376812,94.4795563 C44.9275362,95.0638582 45.7971014,95.3560091 46.6666667,95.0638582 L68.6956522,82.2092168 C69.2753623,81.9170659 69.5652174,81.040613 69.2753623,80.1641602 C68.6956522,79.2877074 67.826087,79.2877074 67.2463768,79.5798583 Z" id="Path"></path>
            <path d="M67.2463768,97.4010657 L45.2173913,110.255707 C44.6376812,110.547858 44.3478261,111.424311 44.6376812,112.300764 C44.9275362,112.885066 45.7971014,113.177217 46.6666667,112.885066 L68.6956522,100.030424 C69.2753623,99.7382732 69.5652174,98.8618204 69.2753623,97.9853676 C68.6956522,97.1089148 67.826087,97.1089148 67.2463768,97.4010657 Z" id="Path"></path>
            <path d="M25.5072464,64.6801603 C25.7971014,64.6801603 26.0869565,64.6801603 26.3768116,64.3880094 L38.2608696,57.6685378 C38.8405797,57.3763868 39.1304348,56.7920849 39.1304348,56.499934 L39.1304348,42.7688398 C39.1304348,42.1845379 38.8405797,41.892387 38.2608696,41.600236 C37.6811594,41.3080851 37.3913043,41.3080851 36.8115942,41.600236 L24.9275362,48.3197077 C24.3478261,48.6118586 24.057971,49.1961605 24.057971,49.4883114 L24.057971,63.2194056 C24.057971,64.0958585 24.6376812,64.6801603 25.5072464,64.6801603 Z M35.6521739,45.3981982 L35.6521739,55.6234812 L26.6666667,60.8821981 L26.6666667,50.6569152 L35.6521739,45.3981982 Z" id="Shape" fill-rule="nonzero"></path>
            <path d="M25.5072464,85.7150281 C25.7971014,85.7150281 26.0869565,85.7150281 26.3768116,85.4228771 L38.2608696,78.7034055 C38.8405797,78.4112546 39.1304348,77.8269527 39.1304348,77.5348017 L39.1304348,63.8037075 C39.1304348,63.2194056 38.8405797,62.9272547 38.2608696,62.6351038 C37.6811594,62.3429528 37.3913043,62.3429528 36.8115942,62.6351038 L24.9275362,69.3545754 C24.3478261,69.6467263 24.057971,70.2310282 24.057971,70.5231792 L24.057971,84.2542734 C24.057971,84.8385753 24.6376812,85.7150281 25.5072464,85.7150281 Z M35.6521739,66.140915 L35.6521739,76.366198 L26.9565217,81.6249149 L26.9565217,71.399632 L35.6521739,66.140915 Z" id="Shape" fill-rule="nonzero"></path>
            <path d="M25.5072464,106.457745 C25.7971014,106.457745 26.0869565,106.457745 26.3768116,106.165594 L38.2608696,99.4461223 C38.8405797,99.1539714 39.1304348,98.5696695 39.1304348,98.2775185 L39.1304348,84.5464243 C39.1304348,83.9621224 38.8405797,83.6699715 38.2608696,83.3778206 C37.6811594,83.0856696 37.3913043,83.0856696 36.8115942,83.3778206 L24.9275362,90.0972922 C24.3478261,90.3894431 24.057971,90.973745 24.057971,91.265896 L24.057971,104.704839 C24.057971,105.873443 24.6376812,106.457745 25.5072464,106.457745 Z M35.6521739,87.1757828 L35.6521739,97.4010657 L26.6666667,102.659783 L26.6666667,92.4344997 L35.6521739,87.1757828 Z" id="Shape" fill-rule="nonzero"></path>
            <path d="M37.9710145,104.120537 C37.3913043,103.828386 37.1014493,103.828386 36.5217391,104.120537 L24.9275362,110.840009 C24.3478261,111.13216 24.057971,111.716462 24.057971,112.008613 L24.057971,125.739707 C24.057971,126.324009 24.3478261,126.61616 24.9275362,126.908311 C25.5072464,127.200462 25.7971014,127.200462 26.3768116,126.908311 L38.2608696,120.188839 C38.8405797,119.896688 39.1304348,119.312386 39.1304348,119.020235 L39.1304348,105.289141 C38.8405797,104.99699 38.5507246,104.412688 37.9710145,104.120537 Z M26.9565217,123.402499 L26.9565217,113.177217 L35.942029,107.9185 L35.942029,118.143783 L26.9565217,123.402499 Z" id="Shape" fill-rule="nonzero"></path>
        </g>
    </g>
</svg>